M48
INCH
VER,1
FMAT,2
;FILE_FORMAT=2:4
T01C0.1063
T02C0.1335
T03C0.1156
T04C0.07908
T05C0.06621
T06C0.06199
T07C0.05773
T08C0.04416
T09C0.03566
T10C0.03142
T11C0.02888
T12C0.02633
T13C0.01695
DETECT,ON
ATC,ON
%
G90
T01
X100690Y020365
X008888
X093648Y096805
X010609Y109605
Y119445
Y123405
Y133245
X053639Y143105
X079185Y148125
X097709
X100690Y147405


X097709Y150925
X079185
X075164Y150725
X051388Y152245
X057720Y150725
X044257
X026812
T02
X066542Y031705
X093648
X066542Y096805
X093648
X010129Y150506
T03
X010229Y036905
X054639
X100650
Y094305
X054639
X010229
X100650Y150505
X054639
X026812Y150725
X010129Y150505
T04
X018731Y019155
X013729
X028733
X023732
X033734
X097249Y039005
X013729Y041155
X018731
X023732
X028733
X033734
Y063155
X097249Y092005
X048738Y152566
X051388Y152246
X046087
T05
X013729Y063155
X018731
X023732
X028733
X033734
X094648Y108855
T06
Y106355
Y108855
X097149Y106355
X099650
Y108855
X097149
Y110605
X016630Y135005
T07
X081546Y026805
Y039805
X050138Y066105
Y079105
X088347Y087405
Y100405
X040236Y097105
X019331Y109605
X032334
X040236Y110105
X032134Y125405
X025632Y135006
X016630
X032134Y133405
X088247Y127105
Y135105
X099250Y126906
Y134905
X030083Y151346
T08
X012729Y064575
X014700Y072235
X012729
X010759
X025332Y076505
X023332
X011129Y112346
Y113436
X010008Y112895
Y113986
X011129Y114525
X070143Y109605
X010008Y115065
Y116155
X011129Y115615
Y116705
Y126145
X010008Y126696
Y127786
Y128865
Y129955
X011129Y130505
Y129415
Y128325
Y127235
X046637Y142105
Y143105
Y144105
X029543Y150225
X030633
X031724
X032814
X033904
X034994
X036074
X037165
X038255
X039345
X039896Y151346
X038805
X037715
X036625
X035535
X034444
X033354
X032264
X031174
X030083
X040436Y150225
X041526
X040986Y151346
X060451Y150225
X061541
X062631
X063721
X064812
X065902
X066982
X068072
X069163
X069713Y151346
X068622
X067532
X066442
X065352
X064261
X063171
X062081
X060990
X070253Y150225
X071343
X072434
X071893Y151346
X070803
X081906Y147625
X082456Y148746
X082986Y147625
X083546Y148746
X084086Y147625
X084636Y148746
X085176Y147625
X085727Y148746
X086267Y147625
X086817Y148746
X087357Y147625
X087907Y148746
X088447Y147625
X088987Y148746
X089538Y147625
Y150425
X088987Y151546
X088447Y150425
X087907Y151546
X087357Y150425
X086817Y151546
X086267Y150425
X085727Y151546
X085176Y150425
X084636Y151546
X084086Y150425
X083546Y151546
X082986Y150425
X082456Y151546
X081906Y150425
X090077Y148746
X090627Y147625
X091168Y148746
X091718Y147625
X092258Y148746
X092808Y147625
X093348Y148746
X093908Y147625
X094439Y148746
X094989Y147625
Y150425
X094439Y151546
X093908Y150425
X093348Y151546
X092808Y150425
X092258Y151546
X091718Y150425
X091168Y151546
X090627Y150425
X090077Y151546
T09
X019231Y022905
Y023905
X018231Y023405
Y022405
X014230Y022905
Y023905
X013229Y022405
Y023405
Y024405
Y025405
Y026405
Y027405
Y028405
Y029405
X014230Y029905
Y028905
Y027905
Y026905
Y025905
Y024905
X018231Y024405
Y025405
Y026405
Y027405
Y028405
Y029405
X019231Y029905
Y028905
Y027905
Y026905
Y025905
Y024905
Y030905
Y031905
X018231Y032405
Y031405
Y030405
X014230Y030905
Y031905
X013229Y031405
Y030405
X029233Y022905
Y023905
X028233Y023405
Y022405
X024232Y022905
Y023905
X023232Y023405
Y022405
Y024405
Y025405
Y026405
Y027405
Y028405
Y029405
X024232Y029905
Y028905
Y027905
Y026905
Y025905
Y024905
X028233Y024405
Y025405
Y026405
Y027405
Y028405
Y029405
X029233Y029905
Y028905
Y027905
Y026905
Y025905
Y024905
Y030905
Y031905
X028233Y031405
Y030405
X024232Y030905
Y031905
X023232Y031405
Y030405
X034235Y023905
Y022905
X033234Y022405
Y023405
Y024405
Y025405
Y026405
Y027405
Y028405
Y029405
X034235Y024905
Y025905
Y026905
Y027905
Y028905
Y029905
Y030905
Y031905
X033234Y031405
Y030405
X034235Y032905
Y033905
Y034905
Y035905
Y036905
Y037905
Y038905
Y039905
X033234Y035405
Y034405
Y033405
Y032405
X029233Y032905
Y033905
Y034905
Y035905
X028233Y035405
Y034405
Y033405
Y032405
X024232Y032905
Y033905
Y034905
Y035905
Y036905
Y037905
Y038905
Y039905
X028233Y039405
Y038405
Y037405
Y036405
X029233Y036905
Y037905
Y038905
Y039905
X033234Y039405
Y038405
Y037405
Y036405
X023232Y035405
Y034405
Y033405
Y032405
X019231Y032905
Y033905
Y034905
Y035905
X018231Y035405
Y034405
Y033405
X014230Y032905
Y033905
Y034905
Y035905
Y036905
Y037905
Y038905
Y039905
X018231Y039405
Y038405
Y037405
Y036405
X019231Y036905
Y037905
Y038905
Y039905
X023232Y039405
Y038405
Y037405
Y036405
X018231Y042405
X013229Y039405
Y038405
Y037405
Y036405
Y035405
Y034405
Y033405
Y032405
X019231Y042905
Y043905
Y044905
Y045905
Y046905
Y047905
X018231Y047405
Y046405
Y045405
Y044405
Y043405
X014230Y042905
Y043905
Y044905
Y045905
Y046905
Y047905
X013229Y042405
Y043405
Y044405
Y045405
Y046405
Y047405
Y048405
Y049405
Y050405
Y051405
X014230Y051905
Y050905
Y049905
Y048905
X018231Y048405
Y049405
Y050405
Y051405
Y052405
X019231Y051905
Y050905
Y049905
Y048905
X029233Y042905
Y043905
Y044905
Y045905
Y046905
Y047905
X028233Y047405
Y046405
Y045405
Y044405
Y043405
Y042405
X024232Y042905
Y043905
Y044905
Y045905
Y046905
Y047905
X023232Y047405
Y046405
Y045405
Y044405
Y043405
Y042405
Y048405
Y049405
Y050405
Y051405
X024232Y051905
Y050905
Y049905
Y048905
X028233Y048405
Y049405
Y050405
Y051405
X029233Y051905
Y050905
Y049905
Y048905
X034235Y042905
Y043905
Y044905
Y045905
Y046905
Y047905
X033234Y047405
Y046405
Y045405
Y044405
Y043405
Y042405
Y048405
Y049405
Y050405
Y051405
X034235Y048905
Y049905
Y050905
Y051905
Y052905
Y053905
Y054905
Y055905
Y056905
Y057905
Y058905
Y059905
X024232Y053905
Y052905
X028233Y052405
Y053405
X029233Y053905
Y052905
X033234Y052405
Y053405
Y059405
Y058405
Y057405
Y056405
Y055405
Y054405
X029233Y054905
Y055905
Y056905
Y057905
Y058905
Y059905
X028233Y059405
Y058405
Y057405
Y056405
Y055405
Y054405
X024232Y054905
Y055905
Y056905
Y057905
Y058905
Y059905
X014230Y053905
Y052905
X018231Y053405
X019231Y053905
Y052905
X023232Y052405
Y053405
Y059405
Y058405
Y057405
Y056405
Y055405
Y054405
X019231Y054905
Y055905
Y056905
Y057905
Y058905
Y059905
X018231Y059405
Y058405
Y057405
Y056405
Y055405
Y054405
X014230Y054905
Y055905
Y056905
Y057905
Y058905
Y059905
X013229Y052405
Y053405
Y059405
Y058405
Y057405
Y056405
Y055405
Y054405
X080945Y077605
X083946
X009529Y084505
Y085505
Y086505
Y087505
Y088505
Y089505
X010529
Y088505
Y087505
Y086505
Y085505
Y084505
X083946Y083605
X080945
X091048Y088305
X094048
Y094305
X091048
X068643Y105005
Y106005
X069643
Y105005
X070643
Y106005
X071643
Y105005
X072643
Y106005
X073644
Y105005
X074644
Y106005
X075644
Y105005
X076645
Y106005
X077645
Y105005
X078645
Y106005
X079145Y109605
Y108605
X078145
Y109605
X077145
Y108605
X076144
Y109605
X075144
Y108605
X074144
Y109605
X073144
Y108605
X072143
Y109605
X071143
Y108605
X070143
Y109605
X079645Y106005
Y105005
X080645
Y106005
X081646
Y105005
X082646
Y106005
X083646
Y105005
X084646
Y106005
X085646
Y105005
X086647
Y106005
X087647
Y105005
X086146Y108605
Y109605
X085147
Y108605
X084146
Y109605
X083146
Y108605
X082146
Y109605
X081145
Y108605
X080145
Y109605
X047397Y151056
T10
X055739Y022705
Y021205
Y019705
X056740
Y021205
Y022705
X057740
Y021205
Y019705
X064542Y031105
X063541
X060840Y033305
Y034305
Y035305
Y036305
X058840Y033305
Y034305
Y035305
Y036305
Y037305
Y038305
Y039305
X060840
Y038305
Y037305
X058840Y040305
Y041305
Y042305
X060840
Y041305
Y040305
Y048305
Y047305
Y046305
Y045305
Y044305
Y043305
X058840
Y044305
Y045305
Y046305
Y047305
Y048305
X052639Y047605
Y046605
Y045605
X058840Y049305
X060840
X080645Y048305
X079245
X073244
Y049305
X079245
X080645
X086647Y048305
Y049305
X096124Y040755
Y041755
X096874Y042255
Y041255
Y040255
X097624Y040755
Y041755
X098375Y040255
Y041255
Y042255
Y043255
Y044255
Y045255
Y046255
Y047255
Y048255
X097624Y047755
Y046755
Y045755
Y044755
Y043755
Y042755
X096874Y043255
Y044255
Y045255
Y046255
Y047255
Y048255
X096124Y047755
Y046755
Y045755
Y044755
Y043755
Y042755
Y048755
X096874Y049255
X097624Y048755
X098375Y049255
X096124Y049755
Y050755
Y051755
Y052755
Y053755
X096874Y054255
Y053255
Y052255
Y051255
Y050255
X097624Y049755
Y050755
Y051755
Y052755
Y053755
X098375Y050255
Y051255
Y052255
Y053255
Y054255
Y055255
Y056255
Y057255
Y058255
Y059255
X097624Y058755
Y057755
Y056755
Y055755
Y054755
X096874Y055255
Y056255
Y057255
Y058255
Y059255
X096124Y058755
Y057755
Y056755
Y055755
Y054755
X079245Y054305
Y053305
Y052305
Y051305
Y050305
X080645
Y051305
Y052305
Y053305
Y054305
X086647
Y053305
Y052305
Y051305
Y050305
Y055305
Y056305
Y057305
Y058305
Y059305
X080645
Y058305
Y057305
Y056305
Y055305
X079245
Y056305
Y057305
Y058305
Y059305
X073244Y050305
Y051305
Y052305
Y053305
Y054305
Y059305
Y058305
Y057305
Y056305
Y055305
X058840Y050305
Y051305
Y052305
Y053305
Y054305
X060840
Y053305
Y052305
Y051305
Y050305
Y055305
Y056305
Y057305
Y058305
Y059305
X058840Y055305
Y056305
Y057305
Y058305
Y059305
X060840Y060305
X058840
Y061305
Y062305
Y063305
Y064305
Y065305
Y066305
X060840
Y065305
Y064305
Y063305
Y062305
Y061305
Y067305
Y068305
Y069305
X058840
Y068305
Y067305
X080645Y060305
X079245
X073244
Y061305
Y062305
Y063305
Y064305
Y065305
Y066305
X079245
Y065305
Y064305
Y063305
Y062305
Y061305
X080645
Y062305
Y063305
Y064305
Y065305
Y066305
Y067305
X079245
X073244
X086647Y060305
Y066305
Y065305
Y064305
Y063305
Y062305
Y061305
Y067305
X098375Y060255
X097624Y059755
X096874Y060255
X096124Y059755
Y060755
Y061755
Y062755
Y063755
Y064755
X096874Y066255
Y064255
Y063255
Y062255
Y061255
X097624Y060755
Y061755
Y062755
Y063755
Y064755
X098375Y061255
Y062255
Y063255
Y064255
Y066255
Y067255
Y068255
Y069255
X097624Y068755
Y067755
Y066755
X096874Y067255
Y068255
Y069255
X096124Y068755
Y067755
Y066755
X098375Y070255
Y071255
Y072255
X097624Y071755
Y070755
Y069755
X096874Y070255
Y071255
Y072255
X096124Y071755
Y070755
Y069755
Y077755
Y076755
Y075755
Y074755
Y073755
Y072755
X096874Y073255
Y074255
Y075255
Y076255
Y077255
Y078255
X097624Y077755
Y076755
Y075755
Y074755
Y073755
Y072755
X098375Y073255
Y074255
Y075255
Y076255
Y077255
Y078255
Y079255
X097624Y078755
X096874Y079255
X096124Y078755
X079045Y075705
Y077705
X071443Y077905
Y076905
Y075905
Y074905
Y073905
X076044Y075705
Y076705
Y078705
X071443Y078905
X060840Y070305
Y071305
Y072305
X058840
Y071305
Y070305
Y073305
Y074305
Y075305
Y076305
Y077305
Y078305
X060840
Y077305
Y076305
Y075305
Y074305
Y073305
X068442Y073905
Y074905
Y075905
Y076905
Y077905
Y078905
X060840Y079305
X058840
X024332Y071505
X021831
X018831
Y077505
Y076505
Y075505
Y074505
Y073505
Y072505
X021831
Y073505
Y074505
Y075505
Y076505
Y077505
X023332Y074505
X024332
X021831Y079505
Y078505
X018831
Y079505
X017330Y071605
Y072605
Y073605
Y074605
Y075605
Y076605
Y077605
Y078605
X060840Y082305
Y081305
Y080305
X058840
Y081305
Y082305
Y087705
Y088705
X060840
Y087705
X068442Y079905
Y080905
Y081905
Y082905
X079045Y079705
Y081705
X076044
X074944Y080705
Y081705
X073944
Y080705
X072943
Y081705
X071443Y082905
Y081905
Y080905
Y079905
X098375Y080255
Y081255
Y082255
Y083255
Y084255
X097624Y083755
Y082755
Y081755
Y080755
Y079755
X096874Y080255
Y081255
Y082255
Y083255
Y084255
X096124Y083755
Y082755
Y081755
Y080755
Y079755
Y088755
Y087755
Y086755
Y085755
Y084755
X096874Y085255
Y086255
Y087255
Y088255
Y089255
X097624Y088755
Y087755
Y086755
Y085755
Y084755
X098375Y085255
Y086255
Y087255
Y088255
Y089255
X098450Y099305
X096124Y089755
X096874Y090255
X097624Y089755
X098375Y090255
X097624Y090755
X096124
X058840Y089705
X060840
Y090705
Y091705
Y092705
Y093705
Y094705
Y095705
X058840
Y094705
Y093705
Y092705
Y091705
Y090705
Y098705
Y097705
Y096705
X060840
Y097705
Y098705
X017430Y106905
Y107905
Y108905
X034134Y101105
Y102105
Y103105
X058840Y101705
Y100705
Y099705
X060840
Y100705
Y101705
Y102705
Y103705
Y104705
Y105705
Y106705
Y107705
X058840
Y106705
Y105705
Y104705
Y103705
Y102705
Y108705
X060840
X067642Y101505
X068643
X069643
X098450Y101306
X058840Y109705
Y110705
Y111705
Y112705
Y113705
X060840Y109705
Y110705
Y111705
Y112705
Y113705
Y114705
Y115705
Y116705
Y117705
Y118705
X058840
Y117705
Y116705
Y115705
Y114705
X056640Y116705
Y117705
Y118705
X016230Y121105
Y122105
Y123105
X037435Y121606
Y120605
X038435
Y121606
X039436
Y120605
X041336Y129005
Y128005
Y127005
X060840Y119705
X058840
X056640
X055039Y121405
Y122405
Y123405
Y124405
Y125405
X056640Y124705
Y123705
Y122705
Y121705
Y120705
X058840
Y121705
Y122705
Y123705
Y124705
Y125705
X060840
Y124705
Y123705
Y122705
Y121705
Y120705
Y128705
Y127705
Y126705
X058840
Y127705
Y128705
X056439Y129305
Y128305
Y127305
X055039Y126405
Y127405
Y128405
Y129405
X093848Y136805
X079045Y131105
Y132105
Y133105
X060840Y131705
Y130705
Y129705
X058840
Y130705
Y131705
Y132705
Y133705
Y134705
Y135705
Y136705
X060840
Y135705
Y134705
Y133705
Y132705
X056439Y132305
Y131306
Y130305
Y135305
Y134305
Y133305
X025832Y137705
X027833
X011429Y146505
X019331
X020331
X021331
X070443Y142305
X069443
X068442
X067442
X065442
X064442
X076444
X075444
X074444
X073444
X072443
X071443
X093848Y139805
X050078Y150075
Y151055
X049248
X047397Y150075
X048228Y151055
X047397
T11
X074644Y026505
X077444
X078245
X079045
X081820Y029280
Y030280
X081846Y028305
X082321Y028780
Y029780
Y030780
Y031780
Y032780
Y033780
Y034780
Y035780
X081820Y036280
Y035280
Y034280
Y033280
Y031280
X081696Y038255
Y037255
X082321Y036780
X073744Y040105
X075044
X075444Y038105
X075569Y040655
X076069Y040155
X076569Y040655
X077045Y040105
X077570Y040655
X078044Y040105
X078570Y040655
X079070Y040155
X079570Y040655
X080070Y040155
X095249Y069105
X087247Y085905
X070443Y077805
X078145Y087105
X074644Y089105
X075044Y094305
X077244Y095505
X077845Y095905
X086447Y089505
X085847Y089905
Y087105
X084446Y089305
X081246Y087105
X078445Y089305
X085847Y093305
X086047Y094305
Y095105
Y095905
X086447Y093705
Y092905
Y091305
Y090505
X086647Y094705
Y096305
X091448Y096705
X088647Y096505
X085246Y096705
Y097705
X082646Y098505
X082046Y096705
X077845Y096905
X077244Y096505
X091848Y118905
X094248Y119505
X099250Y124105
X099050Y125705
X098850Y124905
X095249Y121105
X091648Y123305
X085046Y118305
X085446Y116905
X091048Y121705
X090448Y121305
X090248Y122305
X083446Y120905
X083246Y122705
X083046Y124705
X082846Y121705
X082346Y120705
X082046Y122905
X081446Y125305
X081045Y124705
X080645Y125505
X079445Y125905
X079045Y124705
X062241Y120305
X064841Y124505
X063041Y126705
X063341Y128105
X064441Y130905
Y131705
X064642Y127505
X065842Y128105
X066242Y126705
X066642Y127905
X067942Y126705
X067642Y132705
X066242
Y133505
X065442
X064642
X063841
X069043Y128505
Y129705
X069242Y131705
X069443Y130505
Y129105
X071043Y126705
X071443Y127505
X073643Y129505
Y131905
X073844Y128705
X077645Y127705
X072243Y132705
X070843
X069443Y136305
X069043Y134905
Y135705
X079045Y129905
X079645Y128105
X079745Y129105
X081846
X082046Y130105
Y131505
X083046Y131305
X083246Y130105
X083446Y126905
X083846Y128905
X084046Y129705
X084246Y126905
X084846Y128905
Y129705
X085847Y132105
X086247Y131105
X086647Y132105
X086447Y133305
X085646
X084846
X084046
X083446Y132505
X083246Y133305
X082246
X081045Y134705
X093048Y131705
X093448Y130705
X093648Y129905
Y132105
X094248Y130705
X094448Y131705
X094849Y131105
X095649Y130305
X096249Y128705
Y129905
Y132305
X097449
Y130305
Y133105
Y135305
X096649
X096249Y133105
X095449Y135105
X095249Y133105
X094649Y135105
X094248Y132505
X089647Y133905
X089247Y135105
X088847Y132505
X088447Y133105
Y133905
X099450Y128505
Y129305
Y130105
Y130905
Y131705
Y132505
Y133505
X101050Y141305
X094048Y143205
X090848Y136705
X089647
X088847
X087847
X086847
X085847
X081846Y143105
Y139905
X082846Y143105
X083846
X084846
X085847
X086847
X087847
X088847
X089847
X090848
X072243Y138905
X075444
X078845Y143105
X079845
Y139905
X080845
Y143105
X073043Y144705
X069043Y136905
Y137705
X063041Y138905
X066242
X064441Y145705
Y144705
X063441
Y145705
X060241
Y144705
X059240Y145305
Y146105
X056039Y145705
X014030Y137905
X012029Y136705
X011429Y146505
X008228
X056039Y147705
Y146705
X067642Y147705
Y146705
X064441Y147705
Y146705
X063441
Y147705
X060241
Y146705
X059240Y146905
Y147705
X074644Y148705
X073829
X068642Y147705
T12
X036735Y023605
X035735Y026205
X047287Y025155
X046287
X045287
X044737Y030305
X044637Y026605
X044137Y030305
X043786Y026855
Y025955
X043537Y030305
X042736
X041936
X041136
X040536Y030105
X039935Y029905
X039335Y029705
X038936Y030205
X038485Y025355
X049785Y021855
X051839Y026805
X048288Y025155
X065142Y026405
X064341Y026205
X063841Y029305
X063541Y025805
X063041Y029505
X061941Y030005
X061841Y026205
X061741Y028605
X061341Y030005
X060040Y031105
X068343Y031205
X070243Y030505
X070843
Y031105
X071443
X071543Y031805
X080045Y026505
X079645Y028505
X079045
X089047Y026905
X101951Y039705
Y040705
Y041705
X095449Y038705
X094648Y038505
X093848Y038305
X093248Y037105
X092648Y038105
X092248Y037305
X090848Y038305
X090648Y036505
X090448Y037705
X089848Y038305
X089447Y037505
X088547Y037405
X088247Y038305
X087247
X086847Y040505
X086247Y037305
X086047Y038305
X081820Y032280
X081445Y040705
X073044Y040105
X072343
X064542Y032705
X064842Y034805
X065241Y034005
X065642Y033505
X066542Y033905
X071543Y040105
X070743
X070443Y037505
X070043Y040105
X069843Y041705
X068843Y040705
X068643Y039705
X064741Y040705
X064441Y039505
X063942Y037905
X063441Y038905
X062841Y039305
Y040205
X042536Y032505
X043436Y035305
X042936Y038805
X042536Y039405
X037735Y032505
X040136Y035305
X040636Y032505
X040736Y036305
X041036Y033005
X041436Y032505
X041836Y033005
X041936Y037205
X041736Y039405
X041536Y037705
X041136Y038305
X040736Y039405
X040636Y038705
Y037905
Y037105
X040136Y036705
Y037505
Y038305
Y039105
X038835Y041205
X038735Y040605
X030833Y035105
Y034305
X026432Y037405
X026132Y039405
X026032Y037905
X025632Y036905
Y040505
X025232Y038405
X015330Y034405
Y035405
X010228Y031905
X010429Y033105
X009829Y040305
Y045305
X027133Y044905
X030333Y048005
X038135Y047405
Y048605
X030733Y049205
Y049905
X030333Y048705
X038735Y046405
X043637Y046105
X044137Y045505
X045937Y049505
X039536Y048405
X038735Y051505
X038335Y050705
Y049405
X055939Y047705
X056439Y047305
X057440Y047105
X055939Y048505
X055039Y051105
X054039Y050905
Y050305
X051839Y048705
X051638Y050505
X051038Y051505
X062641Y042105
X061841Y048105
X063541Y044805
Y044105
Y043305
X063942Y047305
X064741
X066642Y047505
X067642Y047905
X068042Y043905
X068142Y049405
X063841Y050305
X073344Y041905
X068843Y042105
X068643Y044105
Y042905
X070643Y043705
X072043Y043305
Y046905
X072243Y044105
X073844Y044305
X074844Y044705
Y046305
X075444Y046705
X077445Y046405
X068242Y048705
X079845Y044905
X080545Y047105
X085447Y046105
X101951Y042705
Y043705
Y044705
Y045705
Y046705
Y047705
Y048705
Y049705
Y050705
Y051705
Y052705
Y053705
Y054705
Y055705
Y056705
Y057705
Y058705
Y059705
Y060705
Y061705
X083346Y056305
X084246Y056105
X075744Y054205
X072443Y053305
X075644Y055405
X075744Y054805
X078045Y057905
Y058705
X078245Y057305
X077244Y060705
X065241Y052805
Y053705
X064741Y053305
X064542Y054105
X064441Y052605
X062341
X062041Y054105
Y058705
X062441Y059205
X062741Y058305
X063241Y059305
X070443Y055905
X070643Y058105
X070843Y061405
X066442Y061005
X065642Y061205
X058040Y052505
X057440Y052205
X055439Y052305
X054639Y051905
X052439Y053505
X054239Y055305
X035234Y059205
X035534Y060005
X039236Y056405
X039435Y057105
X039635Y058205
X016130Y062505
X015730Y061905
X014930
X023732Y065405
X023332Y064905
Y065905
X020331Y065405
X019831Y065905
X019631Y064905
X019831Y066905
Y067905
Y068905
X020331Y068405
Y067405
Y066405
X021331Y070205
X022231Y069305
X023332Y068905
Y067905
Y066905
X023732Y066405
Y067405
Y068405
Y069405
X024732Y070205
X026332Y069805
X040436Y069905
Y071705
X041336Y070905
X043537Y071705
X067642Y062505
X067242Y064905
X067042Y063305
X066042Y063505
X065842Y062805
X064441Y064905
X064242Y063805
X063441Y062105
X062541Y063805
X061841Y071305
X062241Y070305
X062841Y066605
X064041Y071305
X065042Y067905
X066842Y071105
Y071805
X067042Y069205
X077645Y064705
X071243Y064105
X070843Y065705
X069543
X068843Y063705
X068242Y071105
X068843Y069705
Y068305
X069443Y071105
X070843Y069905
X072243Y070705
Y067305
X073244Y069305
X073344Y071505
X074144Y071105
Y068305
X075044Y069305
X075844Y069705
X076644Y068305
X078045Y070905
X084446Y064305
Y063305
X078245Y067905
X082046Y071505
X082846Y068905
X085747Y071405
X097449Y065705
X096049
X101951Y062705
Y063705
Y064705
X099650Y069105
X099750Y070305
X101951Y067305
Y068305
Y071105
Y072105
Y073105
Y074105
Y075105
Y076105
Y077105
Y078105
Y079105
Y080105
Y081105
X094249Y075605
X092848Y074305
X086146Y071905
X088247Y073505
X087647Y075605
X086547Y076305
X086247Y073505
X083846Y079405
Y081005
X087047Y078605
X076044Y071905
X077044
X078545
X079645Y074405
X078045Y074705
X077044Y076505
X076044Y073705
X073244
X080645Y079405
X064641Y072305
X070143Y071905
X067642Y077705
X067442Y072705
X066642Y072905
Y074305
X065142Y078205
X064842Y076105
X064641Y074705
Y073305
X064041Y076305
X062041Y078305
X064641Y081105
X065142Y080305
Y079205
X069642Y080505
X070043Y079305
X058040Y080305
X043537Y076705
Y075705
Y074705
Y073705
X040436Y072705
Y073705
Y074705
Y076705
X026332Y076405
X022531Y080105
X026032Y080805
Y079805
X019931Y072005
X020831Y073005
X021331Y080305
X017731Y084205
Y085205
Y086005
X021031Y083205
X021731Y082705
X022432
X024432
X025132Y083005
X026032Y085705
Y085105
Y084505
X024432Y088405
Y089405
X024032Y084905
X022831Y084705
X021931Y087505
X021031Y086505
Y085805
Y085105
X058740Y083305
X062041Y083105
X066442Y083205
X068042Y088105
Y086605
X067242Y088405
X066242Y090105
X065241Y089305
X059640Y087705
X066242Y090905
X074344Y082305
X074644Y083105
X077645Y085905
X077244Y087105
X076844Y085705
X075244Y089505
X074644Y089905
X071443
Y087905
X071343Y089105
X070743Y084605
X070443Y089505
X070143Y088105
X069443Y088905
X068843Y089605
X068643Y090705
X072543Y091705
X075244Y090505
X077244Y091505
X077845
X083846Y082005
X086547Y087105
X085646Y085805
X085147Y087105
X084946Y085805
X083246Y087105
X082946Y085805
X079045Y085705
X083046Y091105
X084846Y091705
X085046Y090905
X090648Y090305
X089647Y088105
X089247Y091505
Y090505
X091248Y091505
X101951Y082105
Y083105
Y084105
Y085105
Y086105
Y087105
Y088105
Y089105
Y090105
Y091105
X094648Y098105
X083646Y092005
X084346Y095705
X084846Y092505
X086647Y095505
X088647
X089247Y092505
X091048Y101605
X086647Y098705
X082046Y097705
X075044Y092605
X077244Y094105
X077445Y092105
X078245Y092705
X078645Y092105
X079045Y092705
X080645Y092005
X080845Y095605
X081646Y100605
X080845Y101605
Y098005
X080045Y098405
X078845Y100705
X077745
X074944Y099705
X074444Y097305
X074244Y099505
X072043Y096505
X066142Y093905
X066642Y093505
X067242Y094105
X067842Y092905
X071843Y100105
X071243Y097305
Y096505
X070643
X070443Y097705
X068442Y100105
X067542Y099505
X064842Y099405
X064741Y098505
X064242Y100705
Y101505
X060141Y093805
X042236Y093405
X051438Y101605
Y100605
Y099605
X050938Y099105
Y100105
Y101105
X050038Y098805
X049138Y099005
X042336Y096905
X038835Y093405
X039836Y092705
Y092105
X041036Y093105
X041636Y096905
X026432Y099305
X023332
X014430Y107705
Y108705
Y109705
Y111705
X037735Y107705
Y103705
X035335Y109505
X030433Y111305
X029833
X029233Y111705
X028633Y111505
X042636Y102205
X041936Y103205
Y104005
Y104805
X042036Y105605
Y102406
X042536Y102805
Y103605
Y104405
Y105205
X043537Y105105
X047637Y107805
X050938Y102105
X049738Y104505
X050638Y105105
X050938Y104105
X051438Y103605
Y104605
X053539Y104305
X055139Y105105
X055839Y105205
Y108306
X054839Y110705
X064041Y102105
X063241Y103705
X063441Y104906
X063841Y105905
X063641Y111505
X062841Y110506
X059541Y111705
X091048Y102305
Y103006
X094249Y103105
X099850Y111905
X098450
X095249Y112305
X094149
X098650Y117305
X095049Y120506
X094449Y121305
X093448
X083646Y118306
X091848Y121406
X091448Y120905
X074044Y118906
X075044Y118705
X076444Y115005
X076644Y118705
X066742Y113105
X065942Y113006
X065642Y113705
X064941Y113006
X064741Y113605
X064341Y112705
X064141Y113705
X062641Y117905
Y118505
X063541Y114805
X064242Y119105
X064842Y118505
Y114405
X065642Y117005
X066042Y119105
X066043Y115605
X066742Y118906
X067043Y117206
X067242Y115506
X068742Y118805
X069243Y115506
X069642Y119005
X068643Y121305
X065642Y120905
X059541Y112705
Y113705
X057640Y112305
X056840
X052839Y116205
X054439Y118705
X059541Y115705
Y114705
Y121705
X052439Y120806
X044237Y117205
X032434Y114705
X038636Y119205
X039236Y119405
X040336Y120405
X036435Y120806
X036035Y121505
X030433Y112305
X030333Y114005
X029833Y112305
X029233
X029033Y113505
X028633Y112305
X028433Y113306
X027833Y113105
X022632Y118505
X024432
X026332Y118605
X027533Y118705
X027733Y117705
Y115705
X028133Y118605
X028333Y117505
X028633Y116105
Y115105
X028733Y118505
X029033Y117406
X029333Y115705
Y114906
X029733Y117505
X030033Y115705
X030233Y117905
X030433Y117005
X030533Y118705
X030733Y114505
X029233Y120705
X028033
X025832
X025032
X024032
X014430Y112705
Y113705
Y114705
Y115705
Y116805
Y117705
Y118705
X017030Y116205
X017330Y116805
X017530Y117406
X017731Y118006
X017930Y118805
X018331Y117905
Y117205
X018430Y119305
X021231Y116105
X018631Y120506
X014430Y120705
Y121705
X018031Y125305
X017630Y125806
X014430Y123705
Y125705
Y127705
Y128705
Y129705
Y130705
Y131705
X017430Y126805
X027333Y123105
X025832Y122705
X024832
X023832
X023332Y123105
X022831Y122705
X022331Y123105
X021831Y122705
X021331Y123105
X020831Y122705
X020431Y123205
X018331Y127805
Y129505
Y130305
X018731Y129005
X019931Y130506
X020531
X021131Y127705
X021331Y130506
X021731Y127705
X022132Y130506
X022331Y127705
X022932Y130506
X023932
X026132Y131505
X034835Y125405
X034234Y125305
X033634
X033034Y126105
X029033Y123105
X032034Y127505
Y126805
X035135Y131805
X035635Y131406
X036135Y131805
X036635Y131406
X037135Y131805
X037635Y131406
X038135Y131805
Y130506
X041636Y123805
Y124605
Y125405
X041336Y126205
X041036Y125005
Y124205
Y123405
X040736Y125806
X038535Y131305
X040236Y126605
X040436Y129205
X042036Y127605
Y127005
X057940Y131305
X060240Y126105
X059740Y122505
X076844Y125705
X075144Y124906
X074244Y125705
X073044Y126105
X072243Y125705
X073244Y127105
X074044Y130905
X084046Y124705
X078245Y125905
X080945Y126705
X082646
X085646Y128906
X086347Y126805
X095249Y124906
Y124105
Y123306
Y122705
Y122105
X095049Y125506
X094648Y124906
X094449Y124105
X094249Y122905
X093648Y124705
Y126105
X093448Y121905
X092748Y125105
X090848Y126105
X090247
X088847
X090048Y127505
X092648Y126505
X094449Y129906
X095249Y129705
X099450Y122705
X099250Y122105
X098450Y123705
X100150Y135905
X097749Y137905
X094149Y138306
X093448Y138105
X093048Y133105
Y132505
X101651Y140606
X091848Y135506
X087447Y134305
X087247Y135305
X085147Y136505
X083646Y135305
X083246Y137605
X082846Y135305
X083246Y138906
X083446Y139906
X080845Y135305
X079845
X079645Y134305
X079245Y136505
Y137505
X078245Y137105
Y134705
X077244Y134305
X076844Y138105
X076044Y132705
X075444
X072443Y133906
X073244Y139706
X076444Y139906
X077244Y139506
X077845Y139906
X078445Y138505
X078645Y139306
X079245Y138505
X071243Y134305
X062241Y139706
X063041
X064842Y139906
X066042Y140905
X066742Y140106
X067342Y140506
X067742Y138906
X068442Y140905
X069042Y140306
X069543Y138705
X070143Y140106
X071243Y138906
X071643Y141105
X057840Y135305
X056840Y141105
X058040Y141705
X059440Y138906
X060240Y139706
X061041Y140306
X051438Y137305
X050238Y138006
X049238Y136105
X043837Y140506
X051638Y138906
X038636Y135105
X038035Y134906
X037435
X037235Y138105
X036835Y134906
X035435Y137905
X033634Y141705
X038938Y141703
X041636Y140506
X031334Y135105
X030533Y134705
X030333Y136406
X023732Y133105
X023132Y135105
X022831Y136305
X022531Y133105
X023032Y141305
Y139306
X024232Y138906
Y141305
X025832Y138505
X021731Y133105
X021131
Y135105
X020031Y133306
X019331Y135605
X015930Y133705
X014430Y132705
Y133906
Y135905
X012429Y137905
X013029Y140005
X013229Y138906
X018230Y141705
X019431Y138505
X020431
X021431Y141505
X011129Y134705
X008728
X008228Y141505
X013630Y144506
X011329Y144906
X008228Y146506
X022331Y150406
X018430Y142505
Y143206
X021431Y144106
X021831Y142605
X024332Y143706
X026132Y142306
X027433Y145706
X026132
X025232
X024432Y145105
X024232Y145706
X021831
X028833Y142306
X031934Y142505
X032634Y142306
X037235Y145706
X036235
X035234
X034234
X033234
X032434
X031534Y148905
X031234Y145706
X030233
X029233
Y148905
X028233Y145706
X039736Y142306
X040236Y142706
X045237Y143905
X046637Y145306
X045837Y149305
X043837Y148905
X039236Y145706
X038235
X056439Y142706
X057140
X058040Y148505
X055239Y147706
X051839Y149106
X050238
X060040Y142105
X060840Y142505
X061741Y142306
X062441
X059240Y144506
X068643Y143905
X069743Y143306
X078045Y146305
X077445
X072943Y145505
X087247Y146305
X086447
X085846
X085147
X084446
X083846
X082646
X081846
X079445
X078745
X091748Y144305
X093148Y144906
X091548Y146106
X090548Y146305
X089848
X089047
T13
X008728Y025705
Y028705
X011729
Y027705
Y025705
Y024705
X008028Y030405
X020831Y020605
X043536Y022305
X042986Y023955
X042486
X041986
X041486
X040986
X040486
X039986
X039485
X038985
X039485Y025355
X039986
X040486
X040986
X041486
X045787Y025555
X046787
X047788
X054739Y021205
X053439Y021905
X051038Y020705
X050338
X049638
X048788Y025555
X049288Y025355
X049788Y025555
X054939Y026705
X057890Y025655
X067142Y025905
X069243Y027005
X070543Y026505
X071043
X071543
X072043
X072544
X073043
X096349Y024205
X090748
X090248Y028605
X090748Y028905
Y025705
Y025205
Y024705
X090752Y026209
Y027209
Y028209
X094248Y026705
Y025705
Y024705
X096346Y027209
Y028709
X096349Y026205
Y025205
X082246Y037705
X082346Y038705
X079745Y037905
X072443
X063241Y032605
X063141Y037905
X063641Y040105
X057540Y033905
X057440Y034605
X057040Y034005
X056539Y033505
X055939Y033605
X054939Y033305
X054339
Y032705
X053839Y033005
X053439Y032605
X053039Y032105
X052839Y032805
X052739Y033405
X052839Y039205
X053039Y040205
X053439Y039205
X054039
X054539Y039705
X044737Y033105
Y033905
Y034405
X044337Y035605
Y036305
X044037Y035105
X043937Y034505
X043837Y035805
X043736Y032505
X043536Y033405
X043136Y033105
X043036Y033805
X042636Y033305
X042210Y033805
X043336Y039405
X043637Y039005
X043837Y037705
Y037105
Y036505
X044037Y038405
X044137Y039305
X044437Y037705
Y037005
X044637Y038405
X044737Y039305
X045237Y040205
X046537Y040105
Y038867
X046637Y039605
X047737Y037405
X047938Y036505
X048137Y037005
X048438Y038005
X048938Y037005
Y037605
Y038405
Y039005
X049338Y039405
X049938Y039005
Y039805
X050138Y038505
X050338Y038005
X050538Y037505
X050738Y037005
X050938Y036505
X010429Y030905
X008028Y031405
X042336Y041605
X042736Y042205
X046037Y041805
X046937
X047938Y045605
X043687Y047155
Y047659
X043637Y044805
X040736Y049605
X048938Y041805
X051138Y042205
X051538Y041605
X052039Y041505
X052539Y041405
X053039Y040705
Y041405
X054339Y040705
X057240Y044405
X056640Y045505
X055739Y044005
X055439Y046305
X055039Y044405
X054539Y044005
X054139Y046005
X053939Y047105
Y047705
X053539Y046705
X052339Y042405
X052239Y048105
X051138Y046205
X050638Y047605
X050338Y046605
X050138Y046105
X049338Y046205
X049138Y045705
X052739Y049305
X053939Y048505
X060040Y048005
X065042Y048405
X064041Y040705
X066542Y045105
X065242Y047805
X061841Y047305
X061444Y045103
X061441Y050405
X061541Y049305
X074244Y047305
X073844Y047905
Y048705
X087847Y042805
Y042405
X086747Y043305
X086647Y045305
X085847Y045205
X085446Y044905
Y047005
X085346Y047805
X084646Y046805
X084246Y047305
X083546Y048105
X082346Y047505
X083246Y048505
X084346Y048405
X090448Y047005
X089047Y049305
X089247Y049705
X089647Y050205
X092248
X091648Y053105
X091848Y051005
X092648Y050805
X092848Y051705
X093748Y052105
X093948Y052805
X094549Y053605
X094849Y054005
X095549Y057105
X095349Y056705
X093948Y056405
X093849Y056005
Y055605
Y055205
X093748Y054405
X092148Y059205
X091348Y054605
X088247Y053305
X088447Y053705
X088647Y051305
X088847Y051705
X090248Y052005
X090648Y053805
X090048Y060305
X088047Y055705
X087847Y055305
X087347Y057205
Y057905
X085146Y060005
X083646Y060305
X082946Y059705
X081446Y057905
X072143Y052205
X072544Y054205
X074044Y053805
X078545Y059405
X076644Y057005
Y056405
X076044Y059505
X064641Y058305
X061541Y052605
X062741Y054105
X062941Y052705
X067742Y053905
X068743Y051605
Y051105
X070543Y053905
X070643Y059905
Y057105
X066292Y057505
X066242Y058705
X066042Y056405
X065842Y055605
X065742Y060205
X065342Y059805
X061641Y058205
X061441Y056805
X052739Y060505
X056440Y052305
X060040Y058305
X059940Y057705
X059540Y057305
X058040Y056305
X057940Y057305
X051538Y059205
X044987Y051455
X047338Y052405
Y052905
Y053405
Y053905
X047537Y051205
X048137
X048638
X050688Y052655
X049138Y060105
X048338Y058005
X047338Y055905
Y055405
Y054905
Y054405
X047237Y059205
Y059705
X046437Y059205
Y059705
Y060205
X041136Y059905
X040536Y055905
X040336Y057705
X040036Y058705
X035935Y058605
X018130Y065205
X024532Y062405
X024732Y063705
X024932Y062905
X025332Y062405
X025732Y062905
X026132Y062405
X026532Y062905
X026933Y062405
X025832Y070205
X018130Y069805
X031484Y062655
X039135Y065305
X039236Y064505
X039536Y064905
X039935Y065005
X040436
X043736Y064805
X046037Y065005
X046537
X047738Y070405
X047637Y069305
X047237Y069205
X047137Y067605
X046637
X046537Y069205
X045037Y067705
X043536Y069705
X039536Y067805
X039836Y064205
X040336
X040936Y064605
X041336Y064105
X041736Y064405
X042136Y064105
X042336Y063605
X042736Y063005
X042836Y063505
X043236Y063105
X043386Y062455
X045537Y063205
Y064105
Y064605
X045637Y062605
X046437Y063205
Y062705
Y062205
Y061705
Y061205
Y060705
X047237
Y061205
Y061705
Y062205
Y062705
Y063205
X046437Y069705
X044537Y067705
X043136Y067805
X042636
X042136
X040736
X039536Y068605
X038735Y067805
Y068605
Y069105
Y069605
Y070105
Y070605
X050888Y064655
X051338Y065905
Y066305
X051939Y065805
X052739Y063505
X056139Y064205
X056340Y064805
X056139Y069005
X051939Y067605
X050238Y068605
Y068105
X050038Y070205
X048538Y069405
Y070205
X048338Y068005
X049138Y063705
Y064205
X050888Y064155
Y063655
Y063155
Y062655
X051538Y062205
X052939
Y062805
X053339Y063205
X052639Y066805
X051838Y068805
Y069205
X050338Y070605
X061441Y064805
X064842Y061305
X064441Y066605
X062641Y069105
X059840Y069305
Y067305
X071043Y065105
X070443Y067705
X069543Y067105
X078245Y060905
X081446Y066205
X081746Y065705
X082046Y063905
X082846Y063705
Y064605
X083446Y062805
X083746Y061905
X084146Y062205
X084846Y065305
X085346Y061305
X085646Y066305
Y067305
X084446Y067705
X089547Y060705
X090348Y064405
X090748Y066105
X090948Y065705
X091348Y063505
X091948Y062905
X092348Y062305
X093448Y063905
X093748Y062605
X093948Y062105
Y061305
X094149Y062605
Y063205
X094348Y063605
X093948Y068105
X091348Y069405
X098950Y071505
X092848Y073505
X094248Y076605
X094649Y077505
X095249Y077605
X098850Y073705
X088247Y072105
X087847Y077305
X088047Y078005
X084046Y071805
X084446Y074305
X084946Y073705
X086847Y074305
X071543Y072705
X075244Y075105
X078045Y079705
X075244Y079105
X079645Y072905
X076144Y079905
X073944
X069642Y074905
X061541Y073105
X061941Y076305
X062041Y077705
X062441Y076305
Y075605
X067442Y075505
X069843Y073905
X063641Y080605
X062341Y080305
X054839Y070905
X051038Y071905
X051338Y074805
X051438Y076205
X052139Y073105
X052439Y073405
X052839Y074805
X053639Y077605
X054339Y077005
Y074805
Y072805
X054939Y078205
X056139Y072705
X057140Y075205
Y075805
X057540Y077005
X054339Y079205
Y078605
X054139Y080205
X052939Y079305
X052539Y078705
X052338Y079305
X059740Y071305
X053139Y071905
X052739
Y073105
X050938Y072305
X050338Y071405
X048538Y070805
Y071805
X047837Y071005
X043536Y070705
X042936Y070805
X042536
X041736Y077605
X044337Y077405
X046637Y076805
Y073205
X047438Y073805
X047537Y073405
X047837Y077405
X048338Y076005
X048538Y077005
Y075605
Y073505
Y073105
X050138Y077405
X050338Y072605
X050738Y077905
X048438Y079105
X047937
X045037Y079205
X048338Y072305
X046437Y070705
X043536Y072705
X046637Y075105
Y075905
X046737Y073705
X047338Y074705
X044537Y079305
X044037
X043536
X042336Y079105
X041536Y079305
X040736Y071005
X038735Y071605
Y072205
Y072605
Y073005
Y073405
Y074505
Y074905
Y075905
X039436Y074205
X039736Y075705
X038735Y071105
X037635Y078105
X038735Y077605
Y077105
Y076605
X040536Y079205
X039136
X038635
X038035Y080505
X037635Y080105
X026132Y073205
X026432Y073605
X026833Y073905
X026532Y071005
X025832
X022732Y078005
X024732Y075505
X025832Y075005
X026332
X026032Y078805
X016330Y072205
X011629Y074405
X011829Y077405
X012381Y075257
X013379Y074755
X013882Y074754
X014882
X015880Y074755
X019431Y077505
X019831Y079005
X017430Y079205
X017330Y079805
X016830
X015880Y078855
X015380Y079455
X014880Y078955
X014380Y079455
X013679
X013379Y078955
X012879Y079455
X012379
X008528Y074405
Y075405
Y075905
Y076405
Y077405
Y080405
Y079405
Y078405
X017730Y082205
X017530Y081705
Y081205
X016130Y083805
X015830Y083405
X015130Y081405
X014230Y083805
X012429Y083305
X011629Y084005
X008528Y081405
X011629Y084605
Y085805
X012029Y087405
Y087905
X012381Y085954
X012881
X013729Y086505
X014730Y086105
X015730Y086305
X015880Y087655
Y088155
X016630Y088205
X016730Y087005
X017230Y087205
X017480Y088155
Y088655
Y089155
Y089655
Y090155
X017730Y087105
X025332Y087705
X026132Y086505
X023033Y082706
X021731Y083405
X019831Y087405
X020031Y086805
X021231Y087505
X022831Y087805
X023033Y086206
X037635Y082405
Y082005
Y080905
X029333Y088705
Y089305
Y089905
X037635Y085505
X037735Y087205
X047937Y083005
X047738Y084005
X044337Y081605
Y082205
X044037Y083805
X043937Y082205
Y081605
X043136Y081205
X042436Y083605
X042136Y081905
X041936Y083605
X041836Y082405
Y081605
X041036Y081805
X040934Y083608
X040636Y081705
X039836Y088805
Y089705
X040636Y089005
X043136Y088905
X044537Y089205
X047237Y087905
X047738
X040636Y082605
X040536Y083105
X040434Y083605
X038235Y081505
X039836Y087505
Y084505
X040436Y087505
X040636Y089605
X041036Y087505
X041436Y089605
X047237Y088905
X041036Y090405
X039836Y090605
X055339Y084205
X054939Y083405
X054839Y083905
X054439Y081305
X054039Y082005
X053939Y081305
X053139Y081405
X052539Y082205
X051738Y082005
X051438Y083805
X051138Y083305
Y082705
X049438Y083305
X048538Y083605
Y084205
X048138
Y088205
X048438Y086405
X049638Y089105
X050038Y089605
X051038Y088605
X051438Y086405
X051538Y088205
X051639Y087205
X051738Y088605
X051839Y086405
X052038Y085205
X055539Y084605
X049638Y090405
X054739Y082905
X050038Y088805
X051238Y085205
X052039Y088105
X052539Y088305
Y089105
X052839Y085205
Y084405
X053239Y088505
X053539Y089305
X054139Y088505
X054939Y087705
X057040Y088805
X065242Y084005
X062541Y081705
X060240Y083605
X058740Y085505
X059940Y086305
X063241Y085505
X063541Y087705
X063741Y088505
X063941Y089305
X065642Y084505
X066642Y087605
X067042Y086405
Y085605
X077545Y082105
X074444Y083705
X074144Y083105
X070543Y083005
X074644Y085805
X074044Y084205
X070443Y082205
X069243Y085605
X069843Y090305
X070043Y086105
Y085605
X073144Y086505
X073444Y090105
X074044
Y084805
X074244Y088305
X074544Y085305
X074744Y088305
X075344Y088705
X078045Y080805
X079245Y089305
X080145Y087105
X080645Y089205
X082046Y087105
X082646Y089505
X084246Y087105
Y085805
X087047Y085105
X087647Y084705
X089748
X099050Y092105
X083646Y093005
X082146Y091105
X083346Y098505
X086647Y097705
X088447Y098905
Y098305
Y097805
X090648Y099105
X080645Y093005
X077744Y090805
X076944Y090705
X075244Y091505
X074644Y090705
X074444Y091705
X074344Y092605
X071744Y094306
X071743Y091705
X070843Y094105
X070043Y091505
X065041Y091905
Y092505
X064942Y093305
X064842Y093805
Y094305
X064441Y092605
X063841Y091705
X063191Y094355
X060240Y094405
X051238Y095505
X053539Y098905
Y099905
X050538Y095905
X050138Y094305
Y092105
X050038Y095905
X049138Y095505
Y094305
Y090905
X048538Y091305
X046737Y093505
Y094105
X046137Y093105
Y092105
X044137Y092305
Y093605
X043937Y091305
X043236Y092705
X041236Y091705
X045737Y098605
X046737
X049938Y096705
X050638Y097105
X038135Y093405
X037335Y093505
Y092605
X037235Y093005
X037135Y092205
X036935Y091805
Y093505
X036535Y093205
Y092805
X035935Y094305
X034934Y094105
X034734Y094505
X031334Y091305
X031133Y098305
X031334Y098905
X031934Y099205
X032134Y096905
X032434Y097605
X032534Y098105
X032834Y098405
X033434Y097205
X034034Y097405
Y098405
X034434
X034535Y097405
X034835Y096905
Y098405
X035135Y097905
X035534Y098405
Y098005
X035935Y098405
X036335Y099805
Y098405
X036735Y098605
X037335Y099705
Y098605
X037935Y099505
X038035Y099005
X038335Y099505
X038735
X040636Y092105
X040536Y092705
X039836Y091305
X031034Y095005
X030934Y093605
Y094505
X030533Y093205
X030333Y092605
X029433Y092005
Y091505
Y091005
X026233Y091305
X029333Y098205
X030833Y099405
X030934Y097205
X026933Y095205
Y095705
Y096205
X025932Y094605
X024732Y093205
X024632Y091905
X024532Y094205
X024432Y095305
Y095905
X022531Y095305
X022431Y094305
X022131Y096005
X021731Y094105
X021131Y099405
X021531Y099005
X021931Y099905
X022131Y096705
X022531Y097605
X022932Y098805
X024432Y096805
X024532Y098405
X026832Y098605
X026883Y097555
X026933Y096805
X018731Y094605
X018231
X018030Y093805
X017730Y094305
X017530Y095805
Y096305
X017480Y093155
Y092655
Y092155
Y091655
Y091155
Y090655
X015130Y093905
X014630
X011729Y098805
X015931Y099505
X016530Y099905
X017530Y098105
Y097305
Y096805
X017830Y098705
Y100005
X019031Y098705
X020731Y099005
X020931Y100005
X016530Y109005
Y109805
X016730Y108505
X014130Y100805
X015030Y101805
Y102305
X015530Y101606
X016030Y101705
X016830
X017830Y104505
X016030Y103305
X015931Y105104
X015431
X015030Y103305
Y102806
X014931Y105104
X014230Y104805
Y104106
X020531Y106105
X019931Y108205
X018531Y105805
X018031Y109405
X018331Y110105
X018531Y109005
X018931Y108405
X020431Y108605
X021331Y108805
X021832Y109505
X021931Y108805
X023632Y108505
X024032
X026132
X018731Y100605
X019231Y101006
Y101505
X020131Y101405
X025432Y101505
X025932Y107605
X025332Y106306
X024732Y105306
Y104805
Y104305
X024632Y102605
Y103105
Y103705
Y107005
X024132Y105306
Y103005
X023832Y103806
X023829Y102506
X023532Y107005
X023132Y103005
X022831Y102506
Y105306
X022732Y107005
X021931
Y104505
Y103405
Y102905
X020831Y106505
X020131Y107005
X019531Y102705
X018531Y107705
X025332Y109605
X031433Y101905
X031834Y101505
X035435Y102305
X035835Y100705
X036135Y101005
X036435Y101305
X037035Y100905
Y101305
X037435
X035534Y102805
X035034Y103505
X034634Y103605
X034235Y103805
X034134Y104405
X033834Y104105
Y104705
Y105105
X033534Y105505
X033434Y104705
Y102605
X033034Y105805
X032034Y104705
X031834Y102605
X029633Y107405
X030533Y101606
X031134Y101205
X033334Y107705
X030734Y105705
X030533Y102806
X030333Y104406
X030133Y106405
X029333Y106205
Y105405
X029133Y103705
Y103205
Y102405
X029033Y107405
X028933Y105805
Y104905
X028833Y104106
X032534Y108605
X047338Y101805
X044837Y107005
X043536Y105705
X041936Y107905
X039335Y107506
Y103205
X039536Y109505
X039836Y108506
X040936Y110605
X041436
X042336Y110205
X043436Y110505
X043937
X044337Y110105
X044737Y110505
X045137Y110105
X045437Y110505
X045937
X046437
X047237
X047737
X055039Y100805
X055239Y108305
X055039Y104005
X053839Y108005
X053639Y107506
X051639Y107705
X051438Y102605
X051238Y108005
X048238Y110505
X048738
X049238
X049738
X050238
X050838
X051438
X051939
X052439
X052939
X053439
X059740Y100705
X060040Y101705
X067242Y108005
X067042Y103506
X066792Y106505
X059640Y103705
X059440Y108205
X060040Y108705
X067642Y109005
Y110006
X070744Y101505
X074844
X075644Y101906
X076644Y107905
X075644
X072644
X068242Y110505
X068442Y108506
X078445Y101906
X079945Y100705
X080445
X081646Y101805
X082546Y100605
X083346Y100705
X084846Y100905
X085346
X086147
X086947Y101306
Y101805
X087747Y101006
X078745Y104005
X078045Y103905
X089847Y101805
X091248Y103705
X089847Y102405
X088447Y105006
X084046Y113506
X084646Y112705
X088647Y116805
X087747Y117206
X085246Y116105
X084146Y115705
X084046Y116606
X082846Y117905
X071243Y112305
X073644Y111306
Y113806
Y114305
X074244Y111306
X074645Y113106
X074844Y111306
X077545Y114205
Y117806
X075844Y115006
X075244Y116705
X075144Y115006
X074744Y116306
Y116805
X073744Y117806
X072043Y118506
X067742Y112905
X069042Y113905
X070343Y114205
Y111306
X070643Y112105
X070443Y116105
Y114706
X070043Y117905
X069243Y116906
Y116205
X063241Y116006
Y116805
X063041Y117405
X052239Y117205
X059640Y116705
X059340Y118205
X056040Y119605
X055939Y118705
X053939Y119605
X052939Y116906
X052339Y116505
Y120006
X051939Y117605
X051538Y117305
X041936Y110605
X042936
X047938Y117105
X047837Y117605
Y118105
Y118605
Y119106
Y119605
Y120105
X044187Y119955
Y119455
Y118955
Y118456
Y117955
X042736Y117105
X044187Y120455
X047837Y120605
X036885Y110956
X039035Y111705
X038885Y114655
X037885Y116055
X037685Y115555
X022132Y113605
X022732
X023032Y114205
X023332Y111305
X023732Y113805
X024032Y114105
X024432
X025532Y113605
Y112105
X026032Y111205
X026132Y113605
X026332Y113005
X027133Y111305
X021031Y112405
Y113005
Y114106
X021231Y113605
X022632Y112806
X022831Y111205
X025832Y112806
X027433Y112105
X025532Y118506
X025132Y116105
X024332Y119605
X021031Y120105
Y119605
Y119106
Y118605
X017030Y111905
X017431
X018031Y111705
X018130Y114105
X018430Y116105
X017830Y116005
X016430Y117505
X016230Y116905
X016030Y116205
X015530
X015430Y117505
X017430Y112905
Y113405
X018831Y112206
X018931Y113506
Y114305
X019331Y112506
X018931Y116105
X015630Y115006
X014430Y126705
X018731Y122005
X023232Y125805
X026132Y124605
X026332Y125605
X026733Y124706
X026832Y125805
X027233Y125006
X027533Y126006
X027933Y128005
X027533Y126606
X027433Y127206
X026933Y126606
X020131Y127705
X028033Y126006
X030233Y123205
X033534Y124505
X033934Y124106
X035435Y124706
X036135Y129805
Y128806
X035635Y129605
X035334Y128806
X033734Y130405
Y128806
Y128305
X029933Y128005
X029333
X028733
X028033Y126606
X038035Y123405
X038135Y122905
X040336Y122806
X040736Y122206
X043637Y123705
X044187Y121955
Y121455
Y120956
X044637Y122405
X046737Y124005
Y124505
Y125006
Y125505
Y126006
X047437Y123305
X047837Y122605
Y122105
Y121606
Y121105
X046837Y129106
X046737Y128005
Y127506
Y127005
Y126505
X046637Y128605
X046237Y127905
X044237Y127105
X044137Y128605
Y130006
X043736Y127105
X040736Y128705
X040636Y130205
X040236Y129805
Y128405
X051538Y122905
X051739Y122405
X052039Y121906
X052339Y123705
Y124305
Y124855
Y125505
Y126205
X053039Y122405
X053639Y121405
X053939Y122405
X055839Y124205
X057640Y127506
X057440Y126405
X055739Y129406
X055639Y128405
Y127305
X054439Y129706
X053839
X053739Y130306
X053039Y129706
X052439
X052339Y128005
Y127405
Y126805
X051838Y129905
X051639Y129106
X051138Y130006
X050138Y130205
X048238Y130505
X060141Y124605
X058040Y124805
Y122705
Y121705
X059840Y120705
X064441Y121705
Y122705
Y125405
X064842Y123705
X066842Y122905
Y121906
X067942Y128305
X064942Y129005
X064641Y130306
X064441Y129805
X064341Y128905
X060240Y129205
X058140Y129605
Y130205
X058040Y128506
X069243Y122305
Y122905
Y123405
Y123905
Y124505
Y125105
X072843Y122705
X073444Y123105
X073644Y122506
X074044Y124106
X075144Y122806
X076044Y129805
Y129106
X073644Y130205
X071393Y130306
Y129505
X081845Y124706
X082446Y125105
X085546Y123305
X087147
X083046Y128905
X081946Y126505
X078845Y129106
X091998Y138305
X092648Y136705
X093849Y136105
Y137506
X097449Y136006
X098550Y135905
X100550Y139805
X098550Y140005
X098049
X093048Y139905
X092348
X091848
X077495Y131105
X076144Y131505
X073544Y134706
Y135505
Y136306
X073644Y137305
X075844Y134706
X076044Y135705
Y136505
Y137506
X076844Y135705
X061991Y134706
Y136006
X064341Y138105
X064441Y137206
X064641Y136405
Y135905
Y135405
Y134905
X064942Y137905
X067842Y134106
X053139Y135405
X057540Y132305
X053739Y130905
Y131705
X051739Y131906
X051238Y133705
X053639Y134106
Y134605
X053689Y135356
X054139Y137506
X056340Y137605
X056940
X057140Y134305
Y133305
X057940Y133105
X060040Y132705
X056340Y138405
X047438Y136005
X043536Y132505
X050338Y132005
X050238Y131505
X048137
Y132305
X048038Y131006
X047638Y131705
X044737Y131306
Y131805
X042536Y132105
X041136Y131705
X042936Y137705
X043536
X044087Y132556
X044237Y137605
X044687Y132556
X046237Y133205
X046337Y137705
X046837Y133205
X047737Y132705
Y137705
X048137Y133105
X048238Y134005
Y135006
X049338Y137705
X050138Y134706
X050338Y136705
X050838Y132506
X039736Y135105
X040236Y131906
Y131205
X036835Y130705
X034634Y131405
X034134Y131906
X033734Y131405
Y130905
X033634Y131906
X031334Y134505
Y137105
X034364Y133635
X035135Y133605
X035435Y137105
X035735Y133605
X037935Y138105
X039136Y137905
X040236
X040336Y132405
X040736Y136705
X040836Y137405
X023732Y135105
X030734Y131105
X030633Y131906
X029533Y131805
X027933
X027333
X021231Y136906
X024532Y136306
X025732Y133205
Y132506
X028133Y135705
X028633
X029533Y136505
X030133Y137905
X030633
X030933Y134005
X028933Y138506
X024932Y139105
X022632Y138905
X021831Y138506
X015230Y138305
X018430Y140505
X009428Y137506
X015330Y142105
Y141305
X014230Y142505
X013529Y142305
Y141105
X011329Y142505
X011029Y141705
X010729Y141305
X008228Y143505
Y147505
X011329Y148005
Y145905
X013229Y147805
Y148505
X013329Y149305
X013830Y147005
X014330
X014415Y144505
X014830Y146205
Y147005
X014930Y144805
X015130Y145505
X015430Y147005
Y147505
Y148505
Y149905
X018430Y144305
Y150205
Y149705
Y149105
Y148605
Y147905
Y147305
Y146705
X018631Y145105
X022332Y150405
X036535Y142405
X035885Y141655
X031834Y145705
X040236Y145305
X040836Y145405
X063841Y141705

X067442Y143905
X065542Y148405
X067542Y145705
Y144705
X068642Y146705
X068743Y145705
Y144705
X072244Y147705
X072443Y146705
X076144Y144705
X076444Y146905
Y147705
X076844Y146305
X080045
X081245
X097449Y143205
X096949
X096449
X093648Y146305
X094449
X095049
X096149
X096749
X100950Y142105
X099650Y143105
X099532Y145387
M30
