G04 FAB 3000 Version 8.1.7 - Gerber/CAM Software*
G04 RS274-X Output*
%FSLAX24Y24*%
%MIA0B0*%
%MOIN*%
%SFA1.000000B1.000000*%

%IPPOS*%
%ADD13C,0.045880*%
%ADD14C,0.045960*%
%ADD15C,0.045890*%
%ADD16C,0.045900*%
%ADD17C,0.045910*%
%ADD18C,0.045950*%
%ADD19C,0.045940*%
%ADD20C,0.052740*%
%ADD21C,0.052730*%
%ADD22C,0.052680*%
%ADD23C,0.052720*%
%ADD24C,0.052660*%
%ADD25C,0.052690*%
%ADD26C,0.063750*%
%ADD27C,0.063800*%
%ADD28C,0.063810*%
%ADD29C,0.063730*%
%ADD30C,0.063740*%
%ADD31C,0.063790*%
%ADD32C,0.063760*%
%ADD33C,0.085020*%
%ADD34C,0.085010*%
%ADD35C,0.106280*%
%ADD36C,0.106220*%
%ADD37R,0.060000X0.060000*%
%ADD38R,0.060070X0.060000*%
%ADD39R,0.060010X0.060000*%
%ADD40R,0.060060X0.060010*%
%ADD41R,0.074970X0.075100*%
%ADD42R,0.075040X0.075100*%
%ADD43C,0.170029*%
%ADD44C,0.170020*%
%ADD45C,0.127560*%
%ADD46C,0.127540*%
%ADD47C,0.340115*%
%ADD48C,0.340060*%
%ADD49R,0.075030X0.075000*%
%ADD50R,0.075030X0.075100*%
%ADD51R,0.075020X0.074900*%
%ADD52R,0.075030X0.074900*%
%ADD53C,0.212560*%
%ADD54C,0.272060*%
%ADD55R,0.054050X0.054040*%
%ADD56R,0.054050X0.053980*%
%ADD57R,0.054030X0.053970*%
%ADD58R,0.053990X0.053980*%
%ADD59R,0.053970X0.054040*%
%ADD60R,0.053980X0.053980*%
%ADD61R,0.054040X0.053970*%
%ADD62R,0.053970X0.053980*%
%ADD63R,0.054040X0.053980*%
%ADD64R,0.053980X0.053970*%
%ADD65R,0.054020X0.054000*%
%ADD66R,0.053990X0.054100*%
%ADD67R,0.053970X0.054000*%
%ADD68R,0.054050X0.054100*%
%ADD69R,0.054040X0.054000*%
%ADD70R,0.054030X0.054000*%
%ADD71R,0.054040X0.053900*%
%ADD72R,0.053970X0.054100*%
%ADD73R,0.053970X0.053900*%
%ADD74R,0.053980X0.054000*%
%ADD75R,0.053980X0.054100*%
%ADD76R,0.054050X0.053900*%
%ADD77R,0.149970X0.150100*%
%ADD78R,0.075030X0.050020*%
%ADD80R,0.075040X0.049970*%
%ADD82R,0.075040X0.050010*%
%ADD83R,0.075030X0.050010*%
%ADD85R,0.074980X0.050020*%
%ADD91R,0.074978X0.049970*%
%ADD92R,0.074978X0.050010*%
%ADD96R,0.075030X0.049960*%
%ADD112R,0.074980X0.049980*%
%ADD113R,0.075032X0.049980*%
%ADD118R,0.075030X0.050100*%
%ADD121R,0.075020X0.050000*%
%ADD122R,0.075040X0.050000*%
%ADD125R,0.074980X0.050000*%
%ADD126R,0.075030X0.050000*%
%ADD128R,0.075030X0.049900*%
%ADD130R,0.075040X0.049900*%
%ADD131R,0.075040X0.050100*%
%ADD134R,0.074970X0.049900*%
%ADD136R,0.074970X0.050000*%
%ADD139R,0.074990X0.050000*%
%ADD140R,0.074990X0.050100*%
%ADD142R,0.075050X0.050000*%
%ADD143R,0.075040X0.090000*%
%ADD144R,0.075030X0.090000*%
%ADD145R,0.075030X0.090010*%
%ADD151R,0.075030X0.089950*%
%ADD153R,0.075020X0.090000*%
%ADD155R,0.060000X0.049900*%
%ADD156R,0.060000X0.050100*%
%ADD157R,0.060000X0.050000*%
%ADD162R,0.100040X0.150000*%
%ADD163R,0.099990X0.150000*%
%ADD164R,0.150020X0.100000*%
%ADD165R,0.150070X0.100000*%
%ADD279R,0.100000X0.060000*%
%ADD280R,0.080020X0.025020*%
%ADD281R,0.080020X0.025010*%
%ADD282R,0.080020X0.024950*%
%ADD283R,0.080020X0.025000*%
%ADD284R,0.080010X0.025020*%
%ADD285R,0.080010X0.025000*%
%ADD286R,0.080010X0.024950*%
%ADD287R,0.080010X0.025010*%
%ADD288R,0.080030X0.025010*%
%ADD289R,0.080030X0.024950*%
%ADD290R,0.080030X0.025020*%
%ADD291R,0.079970X0.025010*%
%ADD292R,0.079970X0.024950*%
%ADD293R,0.079970X0.025020*%
%ADD294R,0.080020X0.024960*%
%ADD295R,0.080030X0.025000*%
%ADD296R,0.080030X0.024960*%
%ADD297R,0.080020X0.024940*%
%ADD298R,0.080030X0.024940*%
%ADD299R,0.080010X0.024960*%
%ADD300R,0.080020X0.024900*%
%ADD301R,0.080030X0.024900*%
%ADD302R,0.080030X0.025060*%
%ADD303R,0.080020X0.025060*%
%ADD304R,0.080020X0.025100*%
%ADD305R,0.080030X0.025100*%
%ADD306R,0.080010X0.024900*%
%ADD307R,0.080010X0.025100*%
%ADD308R,0.025010X0.080010*%
%ADD309R,0.025010X0.080030*%
%ADD310R,0.025000X0.080030*%
%ADD311R,0.025000X0.080010*%
%ADD312R,0.025020X0.080010*%
%ADD313R,0.025020X0.080030*%
%ADD314R,0.025010X0.080020*%
%ADD315R,0.025020X0.080020*%
%ADD316R,0.025000X0.080020*%
%ADD317R,0.024960X0.080020*%
%ADD318R,0.024960X0.080010*%
%ADD319R,0.025010X0.079970*%
%ADD320R,0.025020X0.079970*%
%ADD321R,0.025000X0.079970*%
%ADD322R,0.024950X0.079970*%
%ADD323R,0.024960X0.079970*%
%ADD324R,0.024940X0.079970*%
%ADD325R,0.025020X0.079960*%
%ADD326R,0.025000X0.079960*%
%ADD327R,0.025010X0.079960*%
%ADD328R,0.024940X0.080030*%
%ADD329R,0.025020X0.080040*%
%ADD330R,0.025010X0.080040*%
%ADD331R,0.025000X0.080040*%
%ADD332R,0.024960X0.080040*%
%ADD333R,0.024940X0.080040*%
%ADD334R,0.024950X0.080020*%
%ADD335R,0.025010X0.080000*%
%ADD336R,0.025020X0.080000*%
%ADD337R,0.024940X0.080000*%
%ADD338R,0.025010X0.079900*%
%ADD339R,0.025000X0.079900*%
%ADD340R,0.025020X0.079900*%
%ADD341R,0.024940X0.079900*%
%ADD342R,0.024960X0.079900*%
%ADD343R,0.025000X0.080000*%
%ADD344R,0.024960X0.080000*%
%ADD345R,0.024950X0.080000*%
%ADD346R,0.025020X0.080100*%
%ADD347R,0.025010X0.080100*%
%ADD348R,0.025000X0.080100*%
%ADD349R,0.024960X0.080100*%
%ADD350R,0.024950X0.080100*%
%ADD351R,0.040040X0.050030*%
%ADD352R,0.039990X0.050010*%
%ADD353R,0.039990X0.050030*%
%ADD354R,0.040030X0.050010*%
%ADD355R,0.039980X0.050030*%
%ADD356R,0.039990X0.049970*%
%ADD357R,0.040040X0.050020*%
%ADD358R,0.040040X0.049900*%
%ADD359R,0.039980X0.050100*%
%ADD360R,0.040030X0.050000*%
%ADD361R,0.039990X0.050000*%
%ADD362R,0.040040X0.050000*%
%ADD363R,0.039980X0.050000*%
%ADD364R,0.105040X0.025020*%
%ADD365R,0.105040X0.025010*%
%ADD366R,0.105040X0.025000*%
%ADD367R,0.105040X0.024960*%
%ADD368R,0.105030X0.025020*%
%ADD369R,0.105035X0.024950*%
%ADD370R,0.105030X0.025010*%
%ADD371R,0.105030X0.025000*%
%ADD372R,0.105030X0.024960*%
%ADD373R,0.105020X0.025010*%
%ADD374R,0.105020X0.025020*%
%ADD375R,0.105020X0.024960*%
%ADD376R,0.105020X0.025000*%
%ADD377R,0.104990X0.025010*%
%ADD378R,0.104990X0.025020*%
%ADD379R,0.104990X0.024950*%
%ADD380R,0.104990X0.025000*%
%ADD381R,0.105040X0.024940*%
%ADD382R,0.105030X0.024940*%
%ADD383R,0.105040X0.025100*%
%ADD384R,0.105040X0.024900*%
%ADD385R,0.104990X0.025100*%
%ADD386R,0.105030X0.024900*%
%ADD387R,0.105030X0.025100*%
%ADD388R,0.105020X0.025100*%
%ADD389R,0.105020X0.024900*%
%ADD390R,0.105050X0.025100*%
%ADD391R,0.105050X0.025000*%
%ADD392R,0.105050X0.024900*%
%ADD393R,0.104980X0.025100*%
%ADD394R,0.104980X0.025000*%
%ADD395R,0.104980X0.024900*%
%ADD396R,0.104990X0.024900*%
%ADD397R,0.104970X0.025000*%
%ADD398R,0.104970X0.024900*%
%ADD399R,0.104970X0.025100*%
%ADD400R,0.025010X0.105040*%
%ADD401R,0.025020X0.105040*%
%ADD402R,0.025000X0.105040*%
%ADD403R,0.024960X0.105040*%
%ADD404R,0.025010X0.104980*%
%ADD405R,0.025010X0.104970*%
%ADD406R,0.025000X0.104970*%
%ADD407R,0.025000X0.104980*%
%ADD408R,0.024960X0.104980*%
%ADD409R,0.024960X0.104970*%
%ADD410R,0.025020X0.104970*%
%ADD411R,0.025020X0.104980*%
%ADD412R,0.025010X0.105030*%
%ADD413R,0.025020X0.105030*%
%ADD414R,0.024960X0.105030*%
%ADD415R,0.025000X0.105030*%
%ADD416R,0.025010X0.104990*%
%ADD417R,0.025000X0.104990*%
%ADD418R,0.024960X0.104990*%
%ADD419R,0.025020X0.104990*%
%ADD420R,0.075000X0.049970*%
%ADD421R,0.075000X0.050010*%
%ADD422R,0.075000X0.050020*%
%ADD423R,0.075000X0.050030*%
%ADD424R,0.075000X0.049960*%
%ADD425R,0.050030X0.075040*%
%ADD426R,0.050030X0.074980*%
%ADD427R,0.050030X0.075020*%
%ADD428R,0.050030X0.074970*%
%ADD429R,0.050020X0.075030*%
%ADD430R,0.050020X0.075040*%
%ADD431R,0.049970X0.074980*%
%ADD432R,0.049970X0.075040*%
%ADD433R,0.050020X0.075000*%
%ADD434R,0.050020X0.075100*%
%ADD435R,0.050020X0.074900*%
%ADD436R,0.050030X0.074900*%
%ADD437R,0.050030X0.075000*%
%ADD438R,0.049950X0.074900*%
%ADD439R,0.049950X0.075000*%
%ADD440R,0.049970X0.074900*%
%ADD441R,0.049970X0.075000*%
%ADD442R,0.050010X0.074900*%
%ADD443R,0.050010X0.075000*%
%ADD444R,0.050010X0.075100*%
%ADD445R,0.050030X0.075100*%
%ADD446R,0.049980X0.075000*%
%ADD447R,0.049960X0.075000*%
%ADD448R,0.049960X0.074900*%
%ADD449R,0.049980X0.074900*%
%ADD450R,0.049980X0.075100*%
%ADD451R,0.049970X0.075100*%
%ADD452R,0.049960X0.075100*%
%ADD453R,0.074980X0.090010*%
%ADD454R,0.074990X0.090000*%
%ADD455R,0.075030X0.090100*%
%ADD456R,0.075040X0.090100*%
%ADD457R,0.074980X0.090000*%
%ADD458R,0.090000X0.075000*%
%ADD459R,0.090000X0.074900*%
%ADD460R,0.090010X0.074900*%
%ADD461R,0.090000X0.075100*%
%ADD462R,0.110020X0.060010*%
%ADD463R,0.110020X0.060000*%
%ADD464R,0.110030X0.060000*%
%ADD465R,0.060020X0.110000*%
%ADD466R,0.060020X0.110100*%
%ADD467R,0.060000X0.110000*%
%ADD468R,0.075032X0.125000*%
%ADD469R,0.074970X0.125000*%
%ADD470R,0.125001X0.075000*%
%ADD471R,0.125060X0.075000*%
%ADD472R,0.125050X0.075000*%
%ADD473R,0.125090X0.075000*%
%ADD474R,0.125060X0.074900*%
%ADD475R,0.094030X0.125000*%
%ADD476R,0.125060X0.093900*%
%ADD477R,0.125050X0.093900*%
%ADD478R,0.145010X0.050000*%
%ADD479R,0.145020X0.050000*%
%ADD480R,0.145070X0.050000*%
%ADD481R,0.050030X0.145030*%
%ADD482R,0.050030X0.145020*%
%ADD483R,0.050020X0.144970*%
%ADD484R,0.050020X0.145030*%
%ADD485R,0.050020X0.144960*%
%ADD486R,0.050020X0.145010*%
%ADD487R,0.050030X0.144960*%
%ADD488R,0.050030X0.145100*%
%ADD489R,0.050030X0.144900*%
%ADD490R,0.050010X0.145100*%
%ADD491R,0.048990X0.070100*%
%ADD492R,0.049040X0.070100*%
%ADD493R,0.049000X0.070100*%
%ADD494R,0.049050X0.070100*%
%ADD495R,0.049060X0.070100*%
%ADD496R,0.048990X0.069900*%
%ADD497R,0.049060X0.069900*%
%ADD498R,0.049040X0.069900*%
%ADD499R,0.049000X0.069900*%
%ADD500R,0.049090X0.069900*%
%ADD501R,0.048900X0.069900*%
%ADD502R,0.048900X0.070000*%
%ADD503R,0.049090X0.070000*%
%ADD504R,0.049000X0.070000*%
%ADD505R,0.049040X0.070000*%
%ADD506R,0.048990X0.070000*%
%ADD507R,0.049060X0.070000*%
%ADD508R,0.070040X0.049000*%
%ADD509R,0.070040X0.049100*%
%ADD510R,0.015020X0.030000*%
%ADD511R,0.015030X0.030000*%
%ADD512R,0.014970X0.030000*%
%ADD513R,0.015000X0.030000*%
%ADD514R,0.030010X0.014900*%
%ADD515R,0.030000X0.014900*%
%ADD516R,0.030000X0.015000*%
%ADD517R,0.030050X0.014900*%
%ADD518R,0.030000X0.015100*%
%LNA4000D_RevB_top_soldermask_0*%
%LPD*%
G54D20*
X9529Y86505D03*
G54D22*
X10529D03*
G36*
X6909Y154530D02*
G01Y153530D01*
X6897D01*
Y154530D01*
G37*
G36*
X6903Y154536D02*
G01X7903D01*
Y154525D01*
X6903D01*
G37*
G54D470*
X9935Y142024D03*
Y143764D03*
G54D433*
X9928Y140674D03*
G36*
X8229Y139891D02*
G01X7840D01*
X7746Y139986D01*
X8323D01*
G37*
G36*
X8653Y140315D02*
G01X7417D01*
X7370Y140362D01*
X8700D01*
G37*
G36*
X8865Y140527D02*
G01X7205D01*
X7181Y140550D01*
X8888D01*
G37*
G36*
X8969Y140631D02*
G01X7100D01*
X7086Y140646D01*
X8983D01*
G37*
G36*
X8229Y139891D02*
G01X7840D01*
X7746Y139986D01*
X8323D01*
G37*
G36*
X8653Y140315D02*
G01X7417D01*
X7370Y140362D01*
X8700D01*
G37*
G36*
X8865Y140527D02*
G01X7205D01*
X7181Y140550D01*
X8888D01*
G37*
G36*
X8969Y140631D02*
G01X7100D01*
X7086Y140646D01*
X8983D01*
G37*
G36*
X8269Y139930D02*
G01X7800D01*
X7706Y140025D01*
X8363D01*
G37*
G36*
X8693Y140355D02*
G01X7377D01*
X7329Y140402D01*
X8740D01*
G37*
G36*
X8905Y140566D02*
G01X7165D01*
X7141Y140589D01*
X8928D01*
G37*
G36*
X9011Y140673D02*
G01X7059D01*
X7047Y140684D01*
X9022D01*
G37*
G36*
X9060Y140723D02*
G01X7009D01*
X6997Y140734D01*
X9072D01*
G37*
G54D477*
X41636Y141855D03*
G54D476*
X43837D03*
G54D445*
X29333Y141675D03*
G54D450*
X30333D03*
G54D434*
X31334D03*
G54D389*
X32414Y141703D03*
G54D386*
X34855D03*
G54D384*
X37515D03*
X39955D03*
G54D494*
X27638Y132675D03*
Y134735D03*
G54D493*
X27628Y128875D03*
Y130935D03*
G54D475*
X27883Y140906D03*
G54D75*
X27833Y137705D03*
G54D495*
X28628Y134735D03*
Y132675D03*
G54D345*
X28833Y121836D03*
Y110376D03*
G54D33*
X28733Y63155D03*
Y41155D03*
G54D26*
Y19155D03*
G54D155*
X54039Y128205D03*
X53039D03*
G54D18*
X41336Y128005D03*
G54D511*
X28933Y132474D03*
Y134936D03*
G36*
X28917Y134410D02*
G01Y134761D01*
X28929D01*
Y134410D01*
G37*
G36*
X28904Y134755D02*
G01Y134410D01*
X28892D01*
Y134766D01*
G37*
G36*
X28962Y134755D02*
G01X28904D01*
X28892Y134766D01*
X28974D01*
G37*
G36*
X28898Y132656D02*
G01X28962D01*
X28974Y132645D01*
X28898D01*
G37*
G36*
X28962Y132656D02*
G01Y132995D01*
X28974Y133006D01*
Y132645D01*
G37*
G36*
X28962Y132995D02*
G01X28904D01*
X28892Y133006D01*
X28974D01*
G37*
G36*
X28904Y132995D02*
G01Y132650D01*
X28892D01*
Y133006D01*
G37*
G36*
X28917Y132650D02*
G01Y133001D01*
X28929D01*
Y132650D01*
G37*
G36*
X28898Y134416D02*
G01X28962D01*
X28974Y134405D01*
X28898D01*
G37*
G36*
X28962Y134416D02*
G01Y134755D01*
X28974Y134766D01*
Y134405D01*
G37*
G54D491*
X29238Y132675D03*
Y134735D03*
X29228Y128875D03*
Y130935D03*
G54D445*
X29333Y140335D03*
G54D376*
X32414Y138704D03*
G54D389*
Y139203D03*
G54D388*
Y139703D03*
G54D376*
Y140204D03*
Y140702D03*
Y141204D03*
G54D27*
X32134Y133405D03*
G54D365*
X91728Y24705D03*
Y25205D03*
G54D366*
Y25705D03*
G54D367*
Y26205D03*
G54D364*
Y26705D03*
G54D365*
Y27205D03*
Y27705D03*
G54D366*
Y28205D03*
G54D367*
Y28705D03*
G54D364*
Y24205D03*
G54D26*
X91168Y151545D03*
X91718Y150425D03*
Y147625D03*
X91168Y148745D03*
G54D504*
X98855Y138936D03*
G54D499*
Y136875D03*
G54D470*
X98442Y145386D03*
Y143646D03*
G54D77*
X99650Y108855D03*
G54D27*
X99250Y134905D03*
Y126905D03*
G54D44*
X97710Y150925D03*
Y148125D03*
G36*
X97319Y152583D02*
G01X97679D01*
X97726Y152536D01*
X97319D01*
G37*
G36*
X97119Y152371D02*
G01X97891D01*
X97914Y152348D01*
X97119D01*
G37*
G36*
X97019Y152267D02*
G01X97995D01*
X98009Y152252D01*
X97019D01*
G37*
G36*
X97319Y152583D02*
G01X97679D01*
X97726Y152536D01*
X97319D01*
G37*
G36*
X97119Y152371D02*
G01X97891D01*
X97914Y152348D01*
X97119D01*
G37*
G36*
X97019Y152267D02*
G01X97995D01*
X98009Y152252D01*
X97019D01*
G37*
G36*
X97389Y152630D02*
G01X97632D01*
X97726Y152535D01*
X97295D01*
G37*
G36*
X96979Y152224D02*
G01X98037D01*
X98048Y152213D01*
X96979D01*
G37*
G36*
X96929Y152174D02*
G01X98087D01*
X98098Y152163D01*
X96929D01*
G37*
G36*
X97079Y152330D02*
G01X97931D01*
X97954Y152307D01*
X97079D01*
G37*
G36*
X97279Y152542D02*
G01X97719D01*
X97766Y152495D01*
X97279D01*
G37*
G36*
X97679Y152920D02*
G01X97343D01*
X97296Y152967D01*
X97726D01*
G37*
G36*
X97891Y153131D02*
G01X97131D01*
X97107Y153154D01*
X97914D01*
G37*
G36*
X97995Y153236D02*
G01X97026D01*
X97012Y153251D01*
X98009D01*
G37*
G36*
X97679Y152920D02*
G01X97343D01*
X97296Y152967D01*
X97726D01*
G37*
G36*
X97891Y153131D02*
G01X97131D01*
X97107Y153154D01*
X97914D01*
G37*
G36*
X97995Y153236D02*
G01X97026D01*
X97012Y153251D01*
X98009D01*
G37*
G36*
X98037Y153277D02*
G01X96985D01*
X96973Y153288D01*
X98048D01*
G37*
G36*
X98087Y153327D02*
G01X96935D01*
X96924Y153338D01*
X98098D01*
G37*
G36*
X97931Y153171D02*
G01X97091D01*
X97067Y153194D01*
X97954D01*
G37*
G36*
X97719Y152959D02*
G01X97303D01*
X97256Y153006D01*
X97766D01*
G37*
G36*
X97679Y152871D02*
G01X97389D01*
X97295Y152966D01*
X97679D01*
G37*
G54D511*
X96649Y120536D03*
Y118075D03*
G54D491*
X96344Y120335D03*
Y118275D03*
G54D348*
X96249Y134130D03*
G54D343*
Y127681D03*
G36*
X96633Y118250D02*
G01Y118600D01*
X96645D01*
Y118250D01*
G37*
G36*
X96620Y118595D02*
G01Y118250D01*
X96608D01*
Y118606D01*
G37*
G36*
X96614Y118255D02*
G01X96678D01*
X96690Y118244D01*
X96614D01*
G37*
G36*
X96678Y118255D02*
G01Y118595D01*
X96690Y118606D01*
Y118244D01*
G37*
G36*
X96678Y118595D02*
G01X96620D01*
X96608Y118606D01*
X96690D01*
G37*
G36*
X96614Y120015D02*
G01X96678D01*
X96690Y120004D01*
X96614D01*
G37*
G36*
X96678Y120015D02*
G01Y120355D01*
X96690Y120366D01*
Y120004D01*
G37*
G36*
X96678Y120355D02*
G01X96620D01*
X96608Y120366D01*
X96690D01*
G37*
G36*
X96620Y120355D02*
G01Y120010D01*
X96608D01*
Y120366D01*
G37*
G36*
X96633Y120010D02*
G01Y120361D01*
X96645D01*
Y120010D01*
G37*
G54D511*
X96949Y139136D03*
Y136676D03*
G54D505*
X97254Y138936D03*
G54D498*
Y136875D03*
G54D347*
X97249Y134130D03*
G36*
X96933Y138610D02*
G01Y138961D01*
X96945D01*
Y138610D01*
G37*
G36*
X96920Y138955D02*
G01Y138610D01*
X96908D01*
Y138966D01*
G37*
G36*
X96978Y138955D02*
G01X96920D01*
X96908Y138966D01*
X96990D01*
G37*
G36*
X96914Y138616D02*
G01X96978D01*
X96990Y138605D01*
X96914D01*
G37*
G36*
X96978Y138616D02*
G01Y138955D01*
X96990Y138966D01*
Y138605D01*
G37*
G36*
X96914Y136856D02*
G01X96978D01*
X96990Y136845D01*
X96914D01*
G37*
G36*
X96978Y136856D02*
G01Y137195D01*
X96990Y137206D01*
Y136845D01*
G37*
G36*
X96978Y137195D02*
G01X96920D01*
X96908Y137206D01*
X96990D01*
G37*
G36*
X96920Y137195D02*
G01Y136850D01*
X96908D01*
Y137206D01*
G37*
G36*
X96933Y136850D02*
G01Y137201D01*
X96945D01*
Y136850D01*
G37*
G54D346*
X97749Y134130D03*
G36*
X7825Y103883D02*
G01Y103166D01*
X7731D01*
Y103978D01*
G37*
G36*
X7402Y104307D02*
G01Y102765D01*
X7354D01*
Y104354D01*
G37*
G36*
X7190Y104519D02*
G01Y102566D01*
X7166D01*
Y104542D01*
G37*
G36*
X7085Y104623D02*
G01Y102466D01*
X7071D01*
Y104638D01*
G37*
G36*
X7825Y103883D02*
G01Y103166D01*
X7731D01*
Y103978D01*
G37*
G36*
X7361Y104347D02*
G01Y102726D01*
X7314D01*
Y104394D01*
G37*
G36*
X7150Y104558D02*
G01Y102526D01*
X7126D01*
Y104581D01*
G37*
G36*
X6994Y104715D02*
G01Y102376D01*
X6982D01*
Y104726D01*
G37*
G36*
X7044Y104665D02*
G01Y102426D01*
X7032D01*
Y104676D01*
G37*
G36*
X7785Y103923D02*
G01Y103126D01*
X7691D01*
Y104018D01*
G37*
G36*
X7085Y104623D02*
G01Y102466D01*
X7071D01*
Y104638D01*
G37*
G36*
X7190Y104519D02*
G01Y102566D01*
X7166D01*
Y104542D01*
G37*
G36*
X7402Y104307D02*
G01Y102765D01*
X7354D01*
Y104354D01*
G37*
G36*
X8229Y103213D02*
G01Y103883D01*
X8323Y103978D01*
Y103118D01*
G37*
G36*
X8653Y102788D02*
G01Y104307D01*
X8700Y104354D01*
Y102741D01*
G37*
G36*
X8865Y102577D02*
G01Y104519D01*
X8888Y104542D01*
Y102554D01*
G37*
G36*
X8969Y102473D02*
G01Y104623D01*
X8983Y104638D01*
Y102458D01*
G37*
G36*
X9060Y102381D02*
G01Y104715D01*
X9072Y104726D01*
Y102370D01*
G37*
G36*
X9011Y102431D02*
G01Y104665D01*
X9022Y104676D01*
Y102420D01*
G37*
G36*
X8905Y102537D02*
G01Y104558D01*
X8928Y104581D01*
Y102514D01*
G37*
G36*
X8693Y102749D02*
G01Y104347D01*
X8740Y104394D01*
Y102702D01*
G37*
G36*
X8269Y103173D02*
G01Y103923D01*
X8363Y104018D01*
Y103078D01*
G37*
G36*
X8969Y102473D02*
G01Y104623D01*
X8983Y104638D01*
Y102458D01*
G37*
G36*
X8865Y102577D02*
G01Y104519D01*
X8888Y104542D01*
Y102554D01*
G37*
G36*
X8653Y102788D02*
G01Y104307D01*
X8700Y104354D01*
Y102741D01*
G37*
G36*
X8229Y103213D02*
G01Y103883D01*
X8323Y103978D01*
Y103118D01*
G37*
G36*
X7840Y139891D02*
G01Y139157D01*
X7746D01*
Y139986D01*
G37*
G36*
X7417Y140315D02*
G01Y138758D01*
X7370D01*
Y140362D01*
G37*
G36*
X7205Y140527D02*
G01Y138557D01*
X7181D01*
Y140550D01*
G37*
G36*
X7100Y140631D02*
G01Y138458D01*
X7086D01*
Y140646D01*
G37*
G36*
X7840Y139891D02*
G01Y139157D01*
X7746D01*
Y139986D01*
G37*
G36*
X7377Y140355D02*
G01Y138717D01*
X7329D01*
Y140402D01*
G37*
G36*
X7009Y140723D02*
G01Y138366D01*
X6997D01*
Y140734D01*
G37*
G36*
X7059Y140673D02*
G01Y138417D01*
X7047D01*
Y140684D01*
G37*
G36*
X7165Y140566D02*
G01Y138518D01*
X7141D01*
Y140589D01*
G37*
G36*
X7800Y139930D02*
G01Y139117D01*
X7706D01*
Y140025D01*
G37*
G36*
X7100Y140631D02*
G01Y138458D01*
X7086D01*
Y140646D01*
G37*
G36*
X7205Y140527D02*
G01Y138557D01*
X7181D01*
Y140550D01*
G37*
G36*
X7417Y140315D02*
G01Y138758D01*
X7370D01*
Y140362D01*
G37*
G54D435*
X9928Y139335D03*
G36*
X8229Y139204D02*
G01Y139891D01*
X8323Y139986D01*
Y139109D01*
G37*
G36*
X8653Y138781D02*
G01Y140315D01*
X8700Y140362D01*
Y138734D01*
G37*
G36*
X8865Y138568D02*
G01Y140527D01*
X8888Y140550D01*
Y138545D01*
G37*
G36*
X8969Y138465D02*
G01Y140631D01*
X8983Y140646D01*
Y138450D01*
G37*
G36*
X9060Y138372D02*
G01Y140723D01*
X9072Y140734D01*
Y138361D01*
G37*
G36*
X9011Y138422D02*
G01Y140673D01*
X9022Y140684D01*
Y138411D01*
G37*
G36*
X8905Y138529D02*
G01Y140566D01*
X8928Y140589D01*
Y138506D01*
G37*
G36*
X8693Y138740D02*
G01Y140355D01*
X8740Y140402D01*
Y138693D01*
G37*
G36*
X8269Y139164D02*
G01Y139930D01*
X8363Y140025D01*
Y139069D01*
G37*
G36*
X8969Y138465D02*
G01Y140631D01*
X8983Y140646D01*
Y138450D01*
G37*
G36*
X8865Y138568D02*
G01Y140527D01*
X8888Y140550D01*
Y138545D01*
G37*
G36*
X8653Y138781D02*
G01Y140315D01*
X8700Y140362D01*
Y138734D01*
G37*
G36*
X8229Y139204D02*
G01Y139891D01*
X8323Y139986D01*
Y139109D01*
G37*
G36*
X45882Y41067D02*
G01Y40815D01*
X45835D01*
Y41115D01*
G37*
G36*
X45670Y41280D02*
G01Y40615D01*
X45646D01*
Y41303D01*
G37*
G36*
X45474Y41475D02*
G01Y40425D01*
X45462D01*
Y41487D01*
G37*
G36*
X45524Y41425D02*
G01Y40475D01*
X45512D01*
Y41437D01*
G37*
G36*
X45630Y41319D02*
G01Y40575D01*
X45606D01*
Y41343D01*
G37*
G36*
X45842Y41108D02*
G01Y40775D01*
X45795D01*
Y41155D01*
G37*
G36*
X45565Y41384D02*
G01Y40515D01*
X45551D01*
Y41398D01*
G37*
G36*
X45670Y41280D02*
G01Y40615D01*
X45646D01*
Y41303D01*
G37*
G36*
X45882Y41067D02*
G01Y40815D01*
X45835D01*
Y41115D01*
G37*
G36*
X45565Y41384D02*
G01Y40515D01*
X45551D01*
Y41398D01*
G37*
G54D483*
X55739Y40625D03*
G36*
X46116Y40838D02*
G01Y41067D01*
X46163Y41115D01*
Y40791D01*
G37*
G36*
X46474Y40481D02*
G01Y41425D01*
X46486Y41437D01*
Y40469D01*
G37*
G36*
X46524Y40431D02*
G01Y41475D01*
X46536Y41487D01*
Y40419D01*
G37*
G36*
X46368Y40587D02*
G01Y41319D01*
X46392Y41343D01*
Y40563D01*
G37*
G36*
X46157Y40799D02*
G01Y41108D01*
X46204Y41155D01*
Y40752D01*
G37*
G36*
X46433Y40522D02*
G01Y41384D01*
X46448Y41398D01*
Y40508D01*
G37*
G36*
X46328Y40627D02*
G01Y41280D01*
X46352Y41303D01*
Y40604D01*
G37*
G36*
X46116Y40838D02*
G01Y41067D01*
X46163Y41115D01*
Y40791D01*
G37*
G36*
X46433Y40522D02*
G01Y41384D01*
X46448Y41398D01*
Y40508D01*
G37*
G36*
X46328Y40627D02*
G01Y41280D01*
X46352Y41303D01*
Y40604D01*
G37*
G36*
X97343Y152920D02*
G01Y152560D01*
X97296D01*
Y152967D01*
G37*
G36*
X97131Y153131D02*
G01Y152360D01*
X97107D01*
Y153154D01*
G37*
G36*
X97026Y153236D02*
G01Y152260D01*
X97012D01*
Y153251D01*
G37*
G36*
X97303Y152959D02*
G01Y152518D01*
X97256D01*
Y153006D01*
G37*
G36*
X97091Y153171D02*
G01Y152318D01*
X97067D01*
Y153194D01*
G37*
G36*
X96985Y153277D02*
G01Y152218D01*
X96973D01*
Y153288D01*
G37*
G36*
X96935Y153327D02*
G01Y152169D01*
X96924D01*
Y153338D01*
G37*
G36*
X97389Y152871D02*
G01Y152630D01*
X97295Y152535D01*
Y152966D01*
G37*
G36*
X97026Y153236D02*
G01Y152260D01*
X97012D01*
Y153251D01*
G37*
G36*
X97131Y153131D02*
G01Y152360D01*
X97107D01*
Y153154D01*
G37*
G36*
X97343Y152920D02*
G01Y152560D01*
X97296D01*
Y152967D01*
G37*
G36*
X97679Y152583D02*
G01Y152920D01*
X97726Y152967D01*
Y152536D01*
G37*
G36*
X97891Y152371D02*
G01Y153131D01*
X97914Y153154D01*
Y152348D01*
G37*
G36*
X97719Y152542D02*
G01Y152959D01*
X97766Y153006D01*
Y152495D01*
G37*
G36*
X97931Y152330D02*
G01Y153171D01*
X97954Y153194D01*
Y152307D01*
G37*
G36*
X98087Y152174D02*
G01Y153327D01*
X98098Y153338D01*
Y152163D01*
G37*
G36*
X98037Y152224D02*
G01Y153277D01*
X98048Y153288D01*
Y152213D01*
G37*
G36*
X97632Y152630D02*
G01Y152918D01*
X97726D01*
Y152535D01*
G37*
G36*
X97995Y152267D02*
G01Y153236D01*
X98009Y153251D01*
Y152252D01*
G37*
G36*
X97891Y152371D02*
G01Y153131D01*
X97914Y153154D01*
Y152348D01*
G37*
G36*
X97679Y152583D02*
G01Y152920D01*
X97726Y152967D01*
Y152536D01*
G37*
G36*
X97995Y152267D02*
G01Y153236D01*
X98009Y153251D01*
Y152252D01*
G37*
G36*
X11447Y22687D02*
G01Y22405D01*
X11400D01*
Y22734D01*
G37*
G36*
X11447Y22687D02*
G01Y22405D01*
X11400D01*
Y22734D01*
G37*
G36*
X11407Y22727D02*
G01Y22365D01*
X11359D01*
Y22774D01*
G37*
G54D387*
X12009Y138803D03*
G54D371*
Y139304D03*
G54D386*
Y139803D03*
G54D371*
Y140304D03*
Y140804D03*
G54D387*
Y141303D03*
G54D371*
Y141804D03*
G36*
X11704Y22687D02*
G01X11447D01*
X11400Y22734D01*
X11752D01*
G37*
G36*
X11704Y22687D02*
G01X11447D01*
X11400Y22734D01*
X11752D01*
G37*
G36*
X11704Y22429D02*
G01Y22687D01*
X11752Y22734D01*
Y22382D01*
G37*
G36*
X11423Y22429D02*
G01X11704D01*
X11752Y22382D01*
X11423D01*
G37*
G36*
X11745Y22727D02*
G01X11407D01*
X11359Y22774D01*
X11792D01*
G37*
G36*
X11383Y22388D02*
G01X11745D01*
X11792Y22341D01*
X11383D01*
G37*
G36*
X11423Y22429D02*
G01X11704D01*
X11752Y22382D01*
X11423D01*
G37*
G36*
X11704Y22429D02*
G01Y22687D01*
X11752Y22734D01*
Y22382D01*
G37*
G36*
X38976Y31287D02*
G01Y31011D01*
X38929D01*
Y31334D01*
G37*
G36*
X38764Y31499D02*
G01Y30811D01*
X38741D01*
Y31523D01*
G37*
G36*
X38936Y31327D02*
G01Y30971D01*
X38889D01*
Y31374D01*
G37*
G36*
X38724Y31539D02*
G01Y30771D01*
X38701D01*
Y31563D01*
G37*
G36*
X38618Y31645D02*
G01Y30671D01*
X38606D01*
Y31657D01*
G37*
G36*
X38568Y31695D02*
G01Y30621D01*
X38556D01*
Y31707D01*
G37*
G36*
X38659Y31604D02*
G01Y30711D01*
X38645D01*
Y31618D01*
G37*
G36*
X38764Y31499D02*
G01Y30811D01*
X38741D01*
Y31523D01*
G37*
G36*
X38976Y31287D02*
G01Y31011D01*
X38929D01*
Y31334D01*
G37*
G36*
X38659Y31604D02*
G01Y30711D01*
X38645D01*
Y31618D01*
G37*
G54D16*
X98375Y80255D03*
G54D287*
X76114Y93405D03*
G54D319*
X76844Y88175D03*
G54D308*
X77045Y39035D03*
G54D314*
Y27575D03*
G54D16*
X98375Y47255D03*
Y46255D03*
Y45255D03*
Y40255D03*
Y41255D03*
Y42255D03*
Y43255D03*
Y44255D03*
Y48255D03*
X97624Y42755D03*
Y43755D03*
Y44755D03*
Y45755D03*
Y46755D03*
Y47755D03*
Y40755D03*
Y41755D03*
Y48755D03*
Y49755D03*
G54D45*
X97249Y39005D03*
G54D15*
X96874Y42255D03*
Y41255D03*
Y40255D03*
Y43255D03*
Y44255D03*
Y45255D03*
Y46255D03*
Y47255D03*
Y48255D03*
G54D58*
X96124Y40755D03*
G54D14*
Y41755D03*
Y47755D03*
Y46755D03*
Y45755D03*
Y44755D03*
Y43755D03*
Y42755D03*
Y48755D03*
Y49755D03*
Y50755D03*
G54D319*
X79845Y88175D03*
G54D311*
X80045Y39035D03*
G54D316*
Y27575D03*
G54D16*
X60840Y48305D03*
G54D486*
X55739Y42785D03*
G54D59*
X52639Y45605D03*
G54D16*
X58840Y47305D03*
Y46305D03*
Y45305D03*
Y44305D03*
Y43305D03*
Y42305D03*
Y41305D03*
G54D18*
X52639Y47605D03*
Y46605D03*
G54D16*
X58840Y48305D03*
Y55305D03*
Y54305D03*
Y53305D03*
Y52305D03*
Y51305D03*
Y50305D03*
Y49305D03*
Y56305D03*
Y57305D03*
G54D365*
X62421Y57803D03*
G54D370*
X64862D03*
G54D14*
X73244Y56305D03*
G54D17*
X79245Y57305D03*
G54D16*
X80645Y56305D03*
G54D153*
X80375Y85705D03*
G54D320*
X80345Y88175D03*
G54D319*
X80846D03*
G54D60*
X80645Y67305D03*
G54D22*
X80945Y83605D03*
Y77605D03*
G54D16*
X80645Y66305D03*
Y65305D03*
Y58305D03*
Y59305D03*
Y60305D03*
Y57305D03*
Y61305D03*
Y62305D03*
Y63305D03*
Y64305D03*
G54D17*
X86647Y49305D03*
Y50305D03*
Y51305D03*
Y52305D03*
Y53305D03*
Y54305D03*
Y48305D03*
Y55305D03*
Y56305D03*
Y57305D03*
G54D37*
X83946Y77605D03*
G54D22*
Y83605D03*
G54D17*
X86647Y67305D03*
Y61305D03*
Y62305D03*
Y58305D03*
Y59305D03*
Y60305D03*
Y66305D03*
Y65305D03*
Y64305D03*
Y63305D03*
G54D15*
X96874Y56255D03*
Y55255D03*
Y49255D03*
Y50255D03*
Y51255D03*
Y52255D03*
Y53255D03*
Y54255D03*
Y57255D03*
G54D16*
X98375Y56255D03*
Y55255D03*
Y54255D03*
Y53255D03*
Y52255D03*
Y51255D03*
Y50255D03*
Y49255D03*
Y57255D03*
X97624Y57755D03*
Y58755D03*
Y59755D03*
Y53755D03*
Y52755D03*
Y51755D03*
Y50755D03*
Y56755D03*
Y55755D03*
Y54755D03*
Y60755D03*
G54D14*
X96124Y56755D03*
Y57755D03*
Y58755D03*
Y59755D03*
Y53755D03*
Y52755D03*
Y51755D03*
Y55755D03*
Y54755D03*
Y60755D03*
Y61755D03*
G54D305*
X25554Y102917D03*
G54D16*
X58840Y65305D03*
Y64305D03*
Y63305D03*
Y62305D03*
Y61305D03*
Y60305D03*
Y59305D03*
Y58305D03*
Y66305D03*
X60840Y62305D03*
Y63305D03*
Y64305D03*
Y65305D03*
Y66305D03*
Y60305D03*
Y59305D03*
Y58305D03*
Y61305D03*
Y67305D03*
Y68305D03*
G54D60*
X73244Y67305D03*
G54D14*
Y64305D03*
Y63305D03*
Y62305D03*
Y61305D03*
Y57305D03*
Y58305D03*
Y59305D03*
Y60305D03*
Y65305D03*
Y66305D03*
G54D15*
X96874Y61255D03*
Y62255D03*
Y63255D03*
Y64255D03*
Y66255D03*
Y60255D03*
Y59255D03*
Y58255D03*
G54D16*
X98375Y66255D03*
Y64255D03*
Y63255D03*
Y62255D03*
Y61255D03*
Y60255D03*
Y59255D03*
Y58255D03*
Y79255D03*
Y78255D03*
Y77255D03*
Y76255D03*
Y67255D03*
Y68255D03*
Y69255D03*
Y70255D03*
Y71255D03*
Y72255D03*
Y73255D03*
Y74255D03*
Y75255D03*
X97624Y64755D03*
Y63755D03*
Y62755D03*
Y61755D03*
Y69755D03*
Y68755D03*
Y67755D03*
Y66755D03*
Y70755D03*
Y78755D03*
Y71755D03*
Y77755D03*
Y76755D03*
Y75755D03*
Y74755D03*
Y73755D03*
Y72755D03*
Y79755D03*
G54D15*
X96874Y74255D03*
Y73255D03*
Y72255D03*
Y71255D03*
Y70255D03*
Y69255D03*
Y68255D03*
Y67255D03*
Y75255D03*
G54D14*
X96124Y69755D03*
Y70755D03*
Y71755D03*
Y64755D03*
Y63755D03*
Y62755D03*
Y68755D03*
Y67755D03*
Y66755D03*
Y72755D03*
G54D18*
X76044Y76705D03*
Y75705D03*
G54D16*
X71443Y73905D03*
Y74905D03*
Y75905D03*
Y76905D03*
Y77905D03*
X60840Y72305D03*
Y71305D03*
Y70305D03*
Y69305D03*
Y75305D03*
Y74305D03*
Y73305D03*
G54D15*
X68442Y73905D03*
Y74905D03*
G54D430*
X52839Y69175D03*
G54D429*
Y67835D03*
G54D16*
X58840Y74305D03*
Y73305D03*
Y67305D03*
Y68305D03*
Y69305D03*
Y70305D03*
Y71305D03*
Y72305D03*
Y75305D03*
Y76305D03*
Y77305D03*
G54D283*
X64817Y115402D03*
G54D304*
Y115903D03*
G54D300*
Y116403D03*
G54D283*
Y116903D03*
Y117404D03*
G54D30*
X64812Y150225D03*
G54D14*
X64441Y142305D03*
X96124Y73755D03*
Y74755D03*
Y75755D03*
Y76755D03*
Y77755D03*
Y80755D03*
Y79755D03*
Y78755D03*
Y81755D03*
G54D443*
X96049Y145374D03*
Y144036D03*
G54D14*
X96124Y90755D03*
Y82755D03*
Y83755D03*
Y89755D03*
Y88755D03*
Y87755D03*
Y86755D03*
Y85755D03*
Y84755D03*
G54D16*
X97624Y90755D03*
Y81755D03*
Y82755D03*
Y83755D03*
Y80755D03*
Y89755D03*
Y88755D03*
Y87755D03*
Y86755D03*
Y85755D03*
Y84755D03*
G54D13*
X98450Y99305D03*
G54D16*
X98375Y90255D03*
Y89255D03*
Y88255D03*
Y84255D03*
Y83255D03*
Y82255D03*
Y81255D03*
Y85255D03*
Y86255D03*
Y87255D03*
G54D357*
X62826Y84840D03*
G54D356*
X63226Y83970D03*
X62426D03*
G54D16*
X60840Y82305D03*
Y81305D03*
Y80305D03*
Y79305D03*
Y77305D03*
Y78305D03*
Y76305D03*
Y94705D03*
Y93705D03*
Y92705D03*
Y91705D03*
Y90705D03*
Y89705D03*
Y88705D03*
Y87705D03*
Y95705D03*
G54D48*
X54639Y94305D03*
G54D16*
X58840Y98705D03*
Y90705D03*
Y91705D03*
Y92705D03*
Y93705D03*
Y94705D03*
Y95705D03*
Y97705D03*
Y96705D03*
X60840Y103705D03*
Y102705D03*
Y101705D03*
Y100705D03*
Y99705D03*
Y98705D03*
Y97705D03*
Y96705D03*
Y104705D03*
G54D459*
X55039Y101735D03*
G54D458*
Y103076D03*
G54D16*
X58840Y103705D03*
Y104705D03*
Y105705D03*
Y106705D03*
Y107705D03*
Y101705D03*
Y100705D03*
Y99705D03*
Y102705D03*
Y108705D03*
Y109705D03*
G54D433*
X52839Y115276D03*
G54D435*
Y113935D03*
G54D434*
Y112745D03*
G54D433*
Y111406D03*
G54D16*
X58840Y113705D03*
Y112705D03*
Y111705D03*
Y110705D03*
Y116705D03*
Y115705D03*
Y114705D03*
X56640Y116705D03*
X58840Y127705D03*
Y126705D03*
Y125705D03*
Y124705D03*
Y123705D03*
Y122705D03*
Y117705D03*
Y119705D03*
Y118705D03*
Y120705D03*
Y121705D03*
X60840Y112705D03*
Y111705D03*
Y110705D03*
Y109705D03*
Y108705D03*
Y107705D03*
Y106705D03*
Y105705D03*
Y113705D03*
Y114705D03*
Y115705D03*
Y126705D03*
G54D508*
X80215Y137210D03*
G54D27*
X36075Y150225D03*
G54D339*
X33634Y126180D03*
G54D33*
X33734Y63155D03*
Y41155D03*
G54D26*
Y19155D03*
G54D20*
X24232Y50905D03*
G54D375*
X14859Y88655D03*
G54D61*
X17330Y78605D03*
G54D17*
Y77605D03*
Y76605D03*
Y75605D03*
Y74605D03*
Y73605D03*
Y71605D03*
Y72605D03*
G54D34*
X23732Y41155D03*
G54D26*
Y19155D03*
G54D428*
X37435Y25745D03*
G54D427*
Y24405D03*
G54D22*
X34234Y22905D03*
Y23905D03*
Y24905D03*
Y25905D03*
Y26905D03*
Y27905D03*
Y28905D03*
Y29905D03*
Y30905D03*
G54D21*
X33234Y25405D03*
Y26405D03*
Y27405D03*
Y28405D03*
Y29405D03*
Y23405D03*
Y22405D03*
Y24405D03*
Y30405D03*
G54D22*
X29233Y28905D03*
Y27905D03*
Y26905D03*
Y25905D03*
Y24905D03*
Y22905D03*
Y23905D03*
Y29905D03*
Y30905D03*
G54D21*
X28233Y25405D03*
Y26405D03*
Y27405D03*
Y28405D03*
Y29405D03*
Y22405D03*
Y23405D03*
Y24405D03*
Y30405D03*
G54D20*
X24232Y29905D03*
Y28905D03*
Y27905D03*
Y26905D03*
Y25905D03*
Y22905D03*
Y23905D03*
Y24905D03*
Y30905D03*
G54D22*
X23232Y30405D03*
Y24405D03*
Y25405D03*
Y26405D03*
Y27405D03*
Y28405D03*
Y29405D03*
Y23405D03*
Y22405D03*
G54D20*
X19231Y27905D03*
Y26905D03*
Y25905D03*
Y24905D03*
Y23905D03*
Y22905D03*
Y28905D03*
Y29905D03*
Y30905D03*
G54D22*
X18230Y30405D03*
Y24405D03*
Y25405D03*
Y26405D03*
Y27405D03*
Y28405D03*
Y23405D03*
Y22405D03*
Y29405D03*
G54D21*
X14230Y29905D03*
Y28905D03*
Y27905D03*
Y26905D03*
Y25905D03*
Y24905D03*
Y23905D03*
Y22905D03*
Y30905D03*
G54D27*
X13729Y19155D03*
G54D20*
X13229Y23405D03*
Y22405D03*
Y24405D03*
Y25405D03*
Y26405D03*
Y27405D03*
Y28405D03*
Y29405D03*
Y30405D03*
G54D22*
X34234Y38905D03*
Y37905D03*
Y31905D03*
Y32905D03*
Y33905D03*
Y34905D03*
Y35905D03*
Y36905D03*
Y39905D03*
G54D21*
X33234Y37405D03*
Y38405D03*
Y39405D03*
Y35405D03*
Y34405D03*
Y33405D03*
Y32405D03*
Y31405D03*
Y36405D03*
Y42405D03*
G54D22*
X29233Y38905D03*
Y37905D03*
Y36905D03*
Y31905D03*
Y32905D03*
Y33905D03*
Y34905D03*
Y35905D03*
Y39905D03*
G54D21*
X28233Y37405D03*
Y38405D03*
Y39405D03*
Y35405D03*
Y34405D03*
Y33405D03*
Y32405D03*
Y31405D03*
Y36405D03*
Y42405D03*
G54D20*
X24232Y38905D03*
Y37905D03*
Y36905D03*
Y31905D03*
Y32905D03*
Y33905D03*
Y34905D03*
Y35905D03*
Y39905D03*
Y47905D03*
Y46905D03*
Y45905D03*
Y44905D03*
Y43905D03*
Y42905D03*
Y48905D03*
Y49905D03*
G54D22*
X23232Y37405D03*
Y38405D03*
Y39405D03*
Y35405D03*
Y34405D03*
Y33405D03*
Y32405D03*
Y31405D03*
Y36405D03*
Y48405D03*
Y42405D03*
Y43405D03*
Y44405D03*
Y45405D03*
Y46405D03*
Y47405D03*
Y50405D03*
Y49405D03*
G54D20*
X19231Y38905D03*
Y37905D03*
Y36905D03*
Y31905D03*
Y32905D03*
Y33905D03*
Y34905D03*
Y35905D03*
Y39905D03*
G54D22*
X18230Y37405D03*
Y38405D03*
Y39405D03*
Y35405D03*
Y34405D03*
Y33405D03*
Y32405D03*
Y31405D03*
Y36405D03*
Y42405D03*
G54D21*
X14230Y38905D03*
Y37905D03*
Y36905D03*
Y35905D03*
Y34905D03*
Y33905D03*
Y32905D03*
Y31905D03*
Y39905D03*
G54D20*
X13229Y38405D03*
Y37405D03*
Y36405D03*
Y35405D03*
Y34405D03*
Y33405D03*
Y32405D03*
Y31405D03*
Y39405D03*
G54D33*
X13730Y41155D03*
G54D20*
X13229Y49405D03*
Y48405D03*
Y47405D03*
Y46405D03*
Y45405D03*
Y44405D03*
Y43405D03*
Y42405D03*
Y50405D03*
G54D21*
X14230Y49905D03*
Y48905D03*
Y42905D03*
Y43905D03*
Y44905D03*
Y45905D03*
Y46905D03*
Y47905D03*
Y50905D03*
G54D22*
X18230Y47405D03*
Y46405D03*
Y45405D03*
Y44405D03*
Y43405D03*
Y50405D03*
Y49405D03*
Y48405D03*
Y51405D03*
G54D487*
X18130Y68585D03*
G54D482*
Y66425D03*
G54D22*
X18230Y52405D03*
Y53405D03*
Y54405D03*
Y55405D03*
Y56405D03*
Y57405D03*
Y58405D03*
Y59405D03*
G54D20*
X19231Y49905D03*
Y48905D03*
Y42905D03*
Y43905D03*
Y44905D03*
Y45905D03*
Y46905D03*
Y47905D03*
Y50905D03*
G54D462*
X20181Y81605D03*
G54D153*
X20001Y83205D03*
G54D39*
X19231Y59905D03*
G54D20*
Y51905D03*
Y52905D03*
Y53905D03*
Y58905D03*
Y57905D03*
Y56905D03*
Y55905D03*
Y54905D03*
G54D22*
X23232Y52405D03*
Y53405D03*
Y51405D03*
Y54405D03*
Y55405D03*
Y56405D03*
Y57405D03*
Y58405D03*
Y59405D03*
G54D34*
X23732Y63155D03*
G54D375*
X24802Y64955D03*
G54D374*
Y65455D03*
G54D37*
X24232Y59905D03*
G54D20*
Y53905D03*
Y52905D03*
Y51905D03*
Y58905D03*
Y57905D03*
Y56905D03*
Y55905D03*
Y54905D03*
G54D21*
X28233Y47405D03*
Y46405D03*
Y45405D03*
Y44405D03*
Y43405D03*
Y50405D03*
Y49405D03*
Y48405D03*
Y51405D03*
Y52405D03*
Y53405D03*
Y54405D03*
Y55405D03*
Y56405D03*
Y57405D03*
Y58405D03*
Y59405D03*
G54D22*
X29233Y49905D03*
Y48905D03*
Y42905D03*
Y43905D03*
Y44905D03*
Y45905D03*
Y46905D03*
Y47905D03*
Y50905D03*
G54D38*
Y59905D03*
G54D22*
Y51905D03*
Y52905D03*
Y53905D03*
Y58905D03*
Y57905D03*
Y56905D03*
Y55905D03*
Y54905D03*
G54D21*
X33234Y47405D03*
Y46405D03*
Y45405D03*
Y44405D03*
Y43405D03*
Y50405D03*
Y49405D03*
Y48405D03*
Y51405D03*
G54D283*
X32909Y126906D03*
G54D300*
Y127405D03*
G54D283*
Y127906D03*
G54D27*
X32134Y125405D03*
G54D26*
X32334Y109605D03*
G54D21*
X33234Y52405D03*
Y53405D03*
Y54405D03*
Y55405D03*
Y56405D03*
Y57405D03*
Y58405D03*
Y59405D03*
G54D22*
X34234Y49905D03*
Y48905D03*
Y47905D03*
Y46905D03*
Y45905D03*
Y44905D03*
Y43905D03*
Y42905D03*
Y50905D03*
G54D37*
X34235Y59905D03*
G54D22*
X34234Y51905D03*
Y52905D03*
Y53905D03*
Y58905D03*
Y57905D03*
Y56905D03*
Y55905D03*
Y54905D03*
G54D40*
X10529Y89505D03*
G54D20*
X9529D03*
G54D22*
X10529Y88505D03*
Y87505D03*
G54D20*
X9529D03*
Y88505D03*
G36*
X7738Y103173D02*
G01X8269D01*
X8363Y103078D01*
X7738D01*
G37*
G36*
X7338Y102749D02*
G01X8693D01*
X8740Y102702D01*
X7338D01*
G37*
G36*
X6988Y102381D02*
G01X9060D01*
X9072Y102370D01*
X6988D01*
G37*
G36*
X7038Y102431D02*
G01X9011D01*
X9022Y102420D01*
X7038D01*
G37*
G36*
X7138Y102537D02*
G01X8905D01*
X8928Y102514D01*
X7138D01*
G37*
G36*
X7078Y102473D02*
G01X8969D01*
X8983Y102458D01*
X7078D01*
G37*
G36*
X7178Y102577D02*
G01X8865D01*
X8888Y102554D01*
X7178D01*
G37*
G36*
X7378Y102788D02*
G01X8653D01*
X8700Y102741D01*
X7378D01*
G37*
G36*
X7778Y103213D02*
G01X8229D01*
X8323Y103118D01*
X7778D01*
G37*
G36*
X7078Y102473D02*
G01X8969D01*
X8983Y102458D01*
X7078D01*
G37*
G36*
X7178Y102577D02*
G01X8865D01*
X8888Y102554D01*
X7178D01*
G37*
G36*
X7378Y102788D02*
G01X8653D01*
X8700Y102741D01*
X7378D01*
G37*
G36*
X7778Y103213D02*
G01X8229D01*
X8323Y103118D01*
X7778D01*
G37*
G54D142*
X68572Y132706D03*
G54D128*
X68773Y126705D03*
G54D26*
X68622Y151345D03*
X69163Y150225D03*
G54D21*
X73644Y106005D03*
G54D22*
X74644D03*
G54D20*
X75644D03*
G54D22*
X80645D03*
X79645D03*
G54D21*
X78645D03*
G54D22*
X77645D03*
G54D21*
X76644D03*
G54D20*
X72643D03*
G54D24*
X71643D03*
G54D22*
X80145Y108605D03*
G54D20*
X79145D03*
G54D22*
X74144D03*
G54D21*
X73143D03*
G54D22*
X72143D03*
G54D20*
X71143D03*
G54D22*
X75144D03*
G54D20*
X76144D03*
G54D22*
X77144D03*
G54D20*
X78145D03*
G36*
X8905Y104558D02*
G01X7150D01*
X7126Y104581D01*
X8928D01*
G37*
G36*
X9060Y104715D02*
G01X6994D01*
X6982Y104726D01*
X9072D01*
G37*
G36*
X9011Y104665D02*
G01X7044D01*
X7032Y104676D01*
X9022D01*
G37*
G36*
X8693Y104347D02*
G01X7361D01*
X7314Y104394D01*
X8740D01*
G37*
G36*
X8269Y103923D02*
G01X7785D01*
X7691Y104018D01*
X8363D01*
G37*
G36*
X8969Y104623D02*
G01X7085D01*
X7071Y104638D01*
X8983D01*
G37*
G36*
X8865Y104519D02*
G01X7190D01*
X7166Y104542D01*
X8888D01*
G37*
G36*
X8653Y104307D02*
G01X7402D01*
X7354Y104354D01*
X8700D01*
G37*
G36*
X8229Y103883D02*
G01X7825D01*
X7731Y103978D01*
X8323D01*
G37*
G36*
X8969Y104623D02*
G01X7085D01*
X7071Y104638D01*
X8983D01*
G37*
G36*
X8865Y104519D02*
G01X7190D01*
X7166Y104542D01*
X8888D01*
G37*
G36*
X8653Y104307D02*
G01X7402D01*
X7354Y104354D01*
X8700D01*
G37*
G36*
X8229Y103883D02*
G01X7825D01*
X7731Y103978D01*
X8323D01*
G37*
G54D26*
X10008Y126695D03*
Y127785D03*
Y112896D03*
Y113985D03*
Y116155D03*
Y115065D03*
G54D366*
X86617Y114656D03*
G54D383*
Y115155D03*
G54D366*
Y115656D03*
G54D384*
Y116155D03*
G54D366*
Y116656D03*
Y117156D03*
G54D383*
Y112655D03*
G54D366*
Y113156D03*
G54D384*
Y113655D03*
G54D366*
Y114156D03*
G54D340*
X86246Y134330D03*
G54D346*
Y127880D03*
G54D37*
X86146Y109606D03*
G54D26*
X86267Y150425D03*
Y147625D03*
G54D25*
X86147Y108605D03*
G54D445*
X28233Y147975D03*
Y146635D03*
G54D454*
X81716Y85705D03*
G54D331*
X81846Y99635D03*
G54D329*
X82346D03*
G54D321*
X81846Y88175D03*
G54D320*
X82346D03*
G54D22*
X82646Y105005D03*
Y106005D03*
G54D21*
X81646D03*
Y105005D03*
G54D20*
X82146Y108605D03*
Y109605D03*
G54D279*
X95249Y142606D03*
G54D57*
X68442Y82905D03*
G54D25*
X68642Y106005D03*
Y105005D03*
G54D16*
X68643Y101505D03*
X67642D03*
G54D15*
X68442Y80905D03*
Y81905D03*
Y77905D03*
Y76905D03*
Y75905D03*
Y79905D03*
Y78905D03*
G54D122*
X61170Y147706D03*
Y146706D03*
Y145706D03*
Y144706D03*
G54D126*
X62511D03*
Y145706D03*
Y146706D03*
Y147706D03*
G54D52*
X60451Y150225D03*
G54D27*
X61541D03*
G54D26*
X62631D03*
G54D27*
X63721D03*
G54D30*
X64261Y151345D03*
G54D28*
X63171D03*
G54D26*
X62081D03*
G54D28*
X60991D03*
G54D476*
X43837Y144355D03*
G54D360*
X75729Y146870D03*
G54D43*
X75164Y150725D03*
G54D15*
X96874Y83255D03*
Y82255D03*
Y81255D03*
Y80255D03*
Y79255D03*
Y78255D03*
Y77255D03*
Y76255D03*
Y84255D03*
Y85255D03*
Y86255D03*
Y87255D03*
Y88255D03*
Y89255D03*
Y90255D03*
G54D45*
X97249Y92005D03*
G54D506*
X96644Y138936D03*
G54D496*
Y136875D03*
G54D492*
X96954Y118275D03*
Y120335D03*
G54D472*
X96956Y140124D03*
Y141864D03*
G54D437*
X97049Y145374D03*
Y144036D03*
G54D347*
X96749Y134130D03*
G54D335*
Y127681D03*
G54D46*
X97149Y110605D03*
Y108855D03*
Y106355D03*
G36*
X102676Y18374D02*
G01X101676D01*
Y18386D01*
X102676D01*
G37*
G36*
X102681Y154530D02*
G01Y153530D01*
X102670D01*
Y154530D01*
G37*
G36*
X102676Y154525D02*
G01X101676D01*
Y154536D01*
X102676D01*
G37*
G36*
X102670Y18380D02*
G01Y19380D01*
X102681D01*
Y18380D01*
G37*
G54D16*
X58840Y33305D03*
Y34305D03*
Y35305D03*
Y36305D03*
Y37305D03*
Y38305D03*
Y39305D03*
Y40305D03*
G54D48*
X54639Y36905D03*
G54D128*
X57270Y138505D03*
G54D134*
X58610D03*
G54D71*
X58840Y136705D03*
G54D16*
Y131705D03*
Y130705D03*
Y129705D03*
Y128705D03*
Y132705D03*
Y133705D03*
Y134705D03*
Y135705D03*
G54D308*
X65343Y28428D03*
G54D312*
X64842D03*
X64342D03*
G54D311*
X63843D03*
G54D308*
X63342D03*
G54D288*
X69312Y30805D03*
Y31305D03*
G54D289*
Y31805D03*
G54D290*
Y32305D03*
G54D57*
X64542Y31105D03*
G54D15*
X63541D03*
G54D288*
X69312Y28805D03*
G54D289*
Y29305D03*
G54D290*
Y29805D03*
G54D288*
Y30305D03*
G54D16*
X80645Y55305D03*
Y50305D03*
Y49305D03*
Y48305D03*
Y51305D03*
Y52305D03*
Y53305D03*
Y54305D03*
G54D292*
X80775Y31805D03*
G54D291*
Y31305D03*
Y30805D03*
Y30305D03*
G54D293*
Y29805D03*
G54D292*
Y29305D03*
G54D291*
Y28805D03*
Y28305D03*
G54D293*
Y32305D03*
G54D291*
Y38305D03*
Y37805D03*
G54D293*
Y37305D03*
G54D292*
Y36805D03*
G54D291*
Y32805D03*
Y33305D03*
Y33805D03*
G54D292*
Y34305D03*
G54D293*
Y34805D03*
G54D291*
Y35305D03*
Y35805D03*
Y36305D03*
G54D482*
X63841Y34125D03*
G54D481*
Y36285D03*
G54D16*
X60840Y36305D03*
Y35305D03*
Y34305D03*
Y33305D03*
Y39305D03*
Y38305D03*
Y37305D03*
G54D308*
X70043Y39035D03*
G54D288*
X69312Y32805D03*
Y33305D03*
Y38305D03*
Y37805D03*
G54D290*
Y37305D03*
G54D289*
Y36805D03*
G54D288*
Y36305D03*
Y35805D03*
Y35305D03*
G54D290*
Y34805D03*
G54D289*
Y34305D03*
G54D288*
Y33805D03*
G54D290*
X37905Y67605D03*
G54D288*
Y68105D03*
G54D295*
Y68605D03*
G54D288*
Y69105D03*
G54D296*
Y69605D03*
G54D290*
Y70105D03*
G54D288*
Y70605D03*
G54D295*
Y71105D03*
G54D288*
Y71605D03*
G54D338*
X38135Y126180D03*
G54D290*
X37905Y77605D03*
G54D296*
Y77105D03*
G54D288*
Y76605D03*
G54D295*
Y76105D03*
G54D296*
Y72105D03*
G54D290*
Y72605D03*
G54D288*
Y73105D03*
G54D295*
Y73605D03*
G54D288*
Y74105D03*
G54D296*
Y74605D03*
G54D290*
Y75105D03*
G54D288*
Y75605D03*
G54D323*
X48638Y66875D03*
G54D319*
X48138D03*
G54D294*
X49368Y69605D03*
G54D281*
Y69105D03*
G54D283*
Y68605D03*
G54D281*
Y68105D03*
G54D280*
Y67605D03*
G54D26*
X50138Y66105D03*
G54D280*
X49368Y70105D03*
G54D281*
Y70605D03*
G54D283*
Y71105D03*
G54D281*
Y71605D03*
G54D294*
Y72105D03*
G54D280*
Y72605D03*
G54D320*
X83346Y88175D03*
G54D323*
X83846D03*
G54D321*
X84346D03*
G54D319*
X84846D03*
G54D321*
X85346D03*
G54D319*
X85847D03*
X86347D03*
G54D320*
X86846D03*
G54D296*
X87577Y89905D03*
G54D288*
Y89405D03*
G54D290*
Y88905D03*
G54D30*
X88347Y87405D03*
G54D20*
X91048Y88305D03*
G54D295*
X87577Y90405D03*
G54D288*
Y90905D03*
G54D290*
Y91405D03*
Y96405D03*
G54D288*
Y95905D03*
G54D20*
X91048Y94305D03*
G54D288*
X87577Y91905D03*
G54D296*
Y92405D03*
G54D295*
Y92905D03*
G54D288*
Y93405D03*
G54D290*
Y93905D03*
G54D288*
Y94405D03*
G54D296*
Y94905D03*
G54D295*
Y95405D03*
G54D426*
X73444Y88775D03*
G54D428*
Y87435D03*
G54D373*
X73123Y84405D03*
G54D375*
Y84905D03*
G54D376*
Y85405D03*
G54D373*
Y85905D03*
G54D374*
Y83905D03*
G54D373*
Y83405D03*
G54D376*
Y82905D03*
G54D16*
X71443D03*
Y81905D03*
Y80905D03*
Y79905D03*
Y78905D03*
G54D60*
X72944Y81705D03*
G54D64*
Y80705D03*
G54D17*
X73944D03*
Y81705D03*
G54D330*
X76844Y99635D03*
X77345D03*
X77845D03*
G54D333*
X78345D03*
G54D329*
X78845D03*
X79345D03*
G54D330*
X79845D03*
G54D329*
X80345D03*
G54D330*
X80846D03*
G54D20*
X72643Y105005D03*
G54D21*
X73644D03*
G54D22*
X74644D03*
G54D20*
X75644D03*
G54D22*
X80645D03*
X79645D03*
G54D21*
X78645D03*
G54D22*
X77645D03*
G54D21*
X76644D03*
G54D24*
X71643D03*
G54D283*
X52469Y98605D03*
G54D281*
Y99105D03*
G54D294*
Y99605D03*
G54D303*
Y100105D03*
G54D283*
Y100606D03*
Y101105D03*
Y101606D03*
G54D300*
Y102105D03*
G54D304*
Y102605D03*
G54D283*
Y108605D03*
Y108106D03*
G54D304*
Y107605D03*
G54D300*
Y107105D03*
G54D283*
Y103106D03*
Y103605D03*
Y104106D03*
G54D300*
Y104605D03*
G54D304*
Y105105D03*
G54D283*
Y105606D03*
Y106105D03*
Y106606D03*
G54D316*
X41736Y97875D03*
G54D315*
X42236D03*
G54D305*
X41006Y102605D03*
G54D302*
Y100105D03*
G54D295*
Y100606D03*
Y101105D03*
Y101606D03*
G54D301*
Y102105D03*
G54D26*
X40236Y97105D03*
G54D296*
X41006Y99605D03*
G54D288*
Y99105D03*
G54D295*
Y98605D03*
Y104106D03*
Y103605D03*
Y103106D03*
G54D336*
X26332Y121836D03*
Y110376D03*
G54D134*
X73374Y112305D03*
G54D130*
X74714D03*
G54D338*
X75145Y117628D03*
G54D340*
X74645D03*
Y114178D03*
G54D338*
X75145D03*
G54D285*
X73920Y114904D03*
Y115402D03*
G54D307*
Y115903D03*
G54D22*
X75144Y109605D03*
X74144D03*
G54D20*
X71143D03*
G54D22*
X72143D03*
G54D21*
X73143D03*
G54D285*
X73920Y116903D03*
G54D306*
Y116403D03*
G54D342*
X75645Y117628D03*
Y114178D03*
G54D338*
X76645Y117628D03*
G54D339*
X76145D03*
Y114178D03*
G54D338*
X76645D03*
G54D20*
X79145Y109605D03*
X78145D03*
G54D22*
X77144D03*
G54D20*
X76144D03*
G54D22*
X80145D03*
G54D295*
X77371Y114904D03*
Y115402D03*
G54D305*
Y115903D03*
G54D301*
Y116403D03*
G54D295*
Y116903D03*
X31564Y114106D03*
Y113605D03*
Y113106D03*
G54D305*
Y112605D03*
G54D301*
Y112105D03*
G54D295*
Y111606D03*
Y111105D03*
G54D301*
Y114605D03*
G54D305*
Y115105D03*
G54D295*
Y121105D03*
Y120606D03*
G54D305*
Y120105D03*
G54D301*
Y119605D03*
G54D295*
Y115606D03*
Y116105D03*
Y116606D03*
G54D301*
Y117105D03*
G54D305*
Y117605D03*
G54D295*
Y118106D03*
Y118605D03*
Y119106D03*
G54D335*
X20831Y110376D03*
G54D306*
X20101Y114605D03*
G54D307*
Y115105D03*
Y112605D03*
G54D306*
Y112105D03*
G54D285*
Y111606D03*
Y111105D03*
G54D30*
X19331Y109605D03*
G54D285*
X20101Y113106D03*
Y113605D03*
Y114106D03*
G54D338*
X38635Y126180D03*
G54D283*
X39361Y127906D03*
G54D300*
Y127405D03*
G54D283*
Y126906D03*
G54D285*
X39436Y122556D03*
G54D306*
Y123055D03*
G54D16*
X38435Y121605D03*
Y120605D03*
G54D18*
X39436D03*
Y121605D03*
X41336Y127005D03*
G54D285*
X39436Y124056D03*
G54D307*
Y123555D03*
G54D283*
X98475Y133406D03*
Y132906D03*
G54D300*
Y132405D03*
G54D304*
Y128905D03*
G54D283*
Y129406D03*
G54D300*
Y129905D03*
G54D283*
Y130406D03*
Y130906D03*
G54D304*
Y131405D03*
G54D283*
Y131906D03*
G54D511*
X98550Y139136D03*
Y136676D03*
G54D505*
X98244Y138936D03*
G54D498*
Y136875D03*
G54D433*
X98249Y142174D03*
G54D435*
Y140835D03*
G36*
X98579Y136856D02*
G01Y137195D01*
X98590Y137206D01*
Y136845D01*
G37*
G36*
X98515Y136856D02*
G01X98579D01*
X98590Y136845D01*
X98515D01*
G37*
G36*
X98534Y138610D02*
G01Y138961D01*
X98545D01*
Y138610D01*
G37*
G36*
X98520Y138955D02*
G01Y138610D01*
X98509D01*
Y138966D01*
G37*
G36*
X98579Y138955D02*
G01X98520D01*
X98509Y138966D01*
X98590D01*
G37*
G36*
X98579Y138616D02*
G01Y138955D01*
X98590Y138966D01*
Y138605D01*
G37*
G36*
X98515Y138616D02*
G01X98579D01*
X98590Y138605D01*
X98515D01*
G37*
G36*
X98579Y137195D02*
G01X98520D01*
X98509Y137206D01*
X98590D01*
G37*
G36*
X98520Y137195D02*
G01Y136850D01*
X98509D01*
Y137206D01*
G37*
G36*
X98534Y136850D02*
G01Y137201D01*
X98545D01*
Y136850D01*
G37*
G54D283*
X32909Y128406D03*
G54D304*
Y131405D03*
G54D283*
Y130906D03*
Y130406D03*
G54D300*
Y129905D03*
G54D283*
Y129406D03*
G54D304*
Y128905D03*
G54D283*
Y131906D03*
G54D295*
X17400Y128005D03*
G54D447*
X90848Y137636D03*
G54D437*
X89848D03*
X88847D03*
G54D446*
X87847D03*
G54D437*
X86847D03*
G54D339*
X86747Y134330D03*
G54D295*
X87472Y133605D03*
G54D28*
X88247Y135105D03*
G54D295*
X87472Y130606D03*
Y131105D03*
Y131606D03*
G54D301*
Y132105D03*
G54D305*
Y132605D03*
G54D295*
Y133106D03*
G54D283*
X62617Y26203D03*
G54D280*
Y25703D03*
G54D284*
X66068D03*
G54D285*
Y26203D03*
G54D309*
X63342Y24978D03*
G54D310*
X63843D03*
G54D313*
X64342D03*
X64842D03*
G54D309*
X65343D03*
G54D288*
X69312Y28305D03*
G54D284*
X66068Y27703D03*
G54D287*
Y27203D03*
G54D280*
X62617Y27703D03*
G54D281*
Y27203D03*
G54D282*
Y26703D03*
G54D286*
X66068D03*
G54D314*
X70043Y27575D03*
G54D14*
X73244Y55305D03*
Y52305D03*
Y51305D03*
Y50305D03*
Y49305D03*
Y48305D03*
Y53305D03*
Y54305D03*
G54D308*
X77545Y39035D03*
X78044D03*
G54D314*
X77545Y27575D03*
X78044D03*
G54D315*
X78545D03*
G54D316*
X79045D03*
G54D314*
X79545D03*
G54D308*
Y39035D03*
G54D311*
X79045D03*
G54D312*
X78545D03*
G54D17*
X79245Y56305D03*
Y55305D03*
Y49305D03*
Y50305D03*
Y51305D03*
Y52305D03*
Y53305D03*
Y54305D03*
Y48305D03*
G54D308*
X71043Y39035D03*
X71543D03*
X72043D03*
G54D312*
X72543D03*
G54D311*
X73043D03*
G54D312*
X73544D03*
G54D315*
Y27575D03*
G54D316*
X73043D03*
G54D315*
X72543D03*
G54D314*
X72043D03*
X71543D03*
X71043D03*
G54D308*
X74044Y39035D03*
G54D317*
X75044Y27575D03*
G54D315*
X74544D03*
G54D314*
X74044D03*
G54D316*
X75544D03*
G54D314*
X76044D03*
G54D316*
X76544D03*
G54D311*
Y39035D03*
G54D308*
X76044D03*
G54D311*
X75544D03*
G54D318*
X75044D03*
G54D312*
X74544D03*
G54D319*
X38635Y78335D03*
X39136D03*
G54D320*
X39636D03*
G54D319*
X40136D03*
G54D321*
X40636D03*
G54D319*
X41136D03*
G54D320*
X41636D03*
G54D319*
X42136D03*
Y66875D03*
X38635D03*
X39136D03*
G54D320*
X39636D03*
G54D319*
X40136D03*
G54D321*
X40636D03*
G54D319*
X41136D03*
G54D320*
X41636D03*
G54D453*
X46137Y58005D03*
G54D145*
X47478D03*
G36*
X46116Y41067D02*
G01X45882D01*
X45835Y41115D01*
X46163D01*
G37*
G36*
X46328Y41280D02*
G01X45670D01*
X45646Y41303D01*
X46352D01*
G37*
G36*
X46433Y41384D02*
G01X45565D01*
X45551Y41398D01*
X46448D01*
G37*
G36*
X46116Y41067D02*
G01X45882D01*
X45835Y41115D01*
X46163D01*
G37*
G36*
X46328Y41280D02*
G01X45670D01*
X45646Y41303D01*
X46352D01*
G37*
G36*
X46433Y41384D02*
G01X45565D01*
X45551Y41398D01*
X46448D01*
G37*
G36*
X46157Y41108D02*
G01X45842D01*
X45795Y41155D01*
X46204D01*
G37*
G36*
X46368Y41319D02*
G01X45630D01*
X45606Y41343D01*
X46392D01*
G37*
G36*
X46524Y41475D02*
G01X45474D01*
X45462Y41487D01*
X46536D01*
G37*
G36*
X46474Y41425D02*
G01X45524D01*
X45512Y41437D01*
X46486D01*
G37*
G54D83*
X23502Y92405D03*
G54D78*
Y93405D03*
G54D96*
X23762Y78805D03*
G54D368*
X23512Y96803D03*
G54D382*
Y97303D03*
G54D370*
Y97803D03*
Y98303D03*
G54D368*
Y96303D03*
G54D370*
Y95803D03*
Y95303D03*
G54D355*
X23617Y81070D03*
G54D17*
X79245Y63305D03*
Y64305D03*
Y65305D03*
Y66305D03*
Y60305D03*
Y59305D03*
Y58305D03*
Y62305D03*
Y61305D03*
Y67305D03*
G54D432*
X79045Y84575D03*
G54D431*
Y83235D03*
G54D319*
X77345Y88175D03*
X77845D03*
G54D19*
X79045Y75705D03*
Y77705D03*
Y79705D03*
Y81705D03*
G54D320*
X79345Y88175D03*
X78845D03*
G54D324*
X78345D03*
G54D309*
X70744Y99028D03*
G54D328*
X71244D03*
G54D313*
X71744D03*
X72244D03*
Y95578D03*
X71744D03*
G54D328*
X71244D03*
G54D290*
X72970Y96803D03*
Y96303D03*
G54D298*
Y97303D03*
G54D288*
Y97803D03*
Y98303D03*
G54D309*
X70744Y95578D03*
G54D284*
X76114Y93905D03*
G54D287*
Y94405D03*
G54D299*
Y94905D03*
G54D285*
Y95405D03*
G54D287*
Y95905D03*
G54D284*
Y98905D03*
G54D287*
Y98405D03*
G54D285*
Y97905D03*
G54D299*
Y97405D03*
G54D287*
Y96905D03*
G54D284*
Y96405D03*
G54D329*
X83346Y99635D03*
G54D332*
X83846D03*
G54D331*
X84346D03*
G54D330*
X84846D03*
G54D331*
X85346D03*
G54D330*
X85847D03*
X86347D03*
G54D30*
X88347Y100405D03*
G54D288*
X87577Y96905D03*
G54D296*
Y97405D03*
G54D295*
Y97905D03*
G54D288*
Y98405D03*
G54D290*
Y98905D03*
G54D329*
X86846Y99635D03*
G54D26*
X81545Y26805D03*
Y39805D03*
G54D23*
X81145Y109605D03*
Y108605D03*
G54D306*
X81020Y132105D03*
G54D285*
Y131606D03*
Y131105D03*
Y130606D03*
G54D307*
Y130105D03*
G54D306*
Y129605D03*
G54D285*
Y129106D03*
Y128605D03*
Y133605D03*
Y133106D03*
G54D307*
Y132605D03*
G54D319*
X81345Y88175D03*
G54D330*
Y99635D03*
G54D369*
X50268Y85555D03*
G54D439*
X46837Y115276D03*
G54D438*
Y113935D03*
G54D439*
Y112776D03*
G54D438*
Y111435D03*
G54D336*
X46737Y109336D03*
X47237D03*
G54D343*
X47737D03*
G54D319*
X47638Y78335D03*
Y66875D03*
X47137D03*
G54D321*
X46637D03*
G54D319*
X47137Y78335D03*
G54D321*
X46637D03*
G54D316*
X47737Y97875D03*
G54D315*
X47237D03*
X46737D03*
G54D351*
X22116Y81070D03*
G54D352*
X21716Y81940D03*
G54D280*
X21807Y86303D03*
G54D281*
Y85803D03*
Y85303D03*
G54D14*
X21831Y79505D03*
Y78505D03*
G54D280*
X21807Y84303D03*
G54D297*
Y84803D03*
G54D335*
X22328Y101692D03*
G54D337*
X21828D03*
G54D85*
X22161Y93405D03*
G54D92*
Y92405D03*
G54D319*
X22532Y83578D03*
G54D327*
Y87028D03*
G54D354*
X23217Y81940D03*
G54D353*
X22817Y81070D03*
G54D319*
X23533Y83578D03*
G54D321*
X23033D03*
G54D327*
X23533Y87028D03*
G54D326*
X23033D03*
G54D335*
X23329Y101692D03*
G54D336*
X22829D03*
G54D319*
X43636Y66875D03*
G54D322*
X43136D03*
G54D282*
X43159Y83604D03*
G54D281*
Y83104D03*
G54D283*
Y82604D03*
G54D280*
Y82104D03*
Y81604D03*
G54D319*
X44137Y66875D03*
Y78335D03*
X43636D03*
G54D322*
X43136D03*
G54D295*
X25554Y103418D03*
Y103917D03*
Y104418D03*
G54D301*
Y104917D03*
G54D305*
Y105417D03*
G54D341*
X21828Y106142D03*
G54D338*
X22328D03*
G54D340*
X22829D03*
G54D338*
X23329D03*
G54D340*
X23829D03*
G54D338*
X24329D03*
X24829D03*
G54D335*
X21831Y110376D03*
G54D343*
X22332D03*
G54D336*
X22832D03*
G54D344*
X23332D03*
G54D343*
X25833D03*
G54D335*
X25332D03*
G54D343*
X24832D03*
G54D335*
X24332D03*
X23832D03*
G54D17*
X34134Y102105D03*
Y101105D03*
G54D68*
Y103105D03*
G54D338*
X35635Y126180D03*
G54D340*
X35134D03*
G54D339*
X34635D03*
G54D338*
X34134D03*
G54D70*
X37435Y121606D03*
Y120606D03*
G54D295*
X37235Y122556D03*
G54D301*
Y123055D03*
G54D305*
Y123555D03*
G54D295*
Y124056D03*
G54D342*
X37635Y126180D03*
G54D339*
X37135D03*
G54D340*
X36635D03*
X36135D03*
G54D492*
X29838Y127235D03*
Y125175D03*
G54D336*
X30834Y110376D03*
G54D335*
X30333D03*
G54D336*
X30834Y121836D03*
G54D335*
X30333D03*
G54D71*
X16230Y121105D03*
G54D16*
Y122105D03*
Y123105D03*
G54D338*
X16931Y100778D03*
X16431D03*
Y104228D03*
X16931D03*
G54D295*
X17400Y127506D03*
X17657Y103503D03*
Y103004D03*
G54D305*
Y102503D03*
G54D295*
Y101504D03*
G54D301*
Y102003D03*
G54D67*
X17430Y106906D03*
G54D18*
Y107905D03*
Y108905D03*
G54D348*
X18131Y126775D03*
G54D306*
X20101Y117105D03*
G54D307*
Y117605D03*
G54D285*
Y118106D03*
Y118605D03*
Y119106D03*
G54D306*
Y119605D03*
G54D307*
Y120105D03*
G54D285*
Y120606D03*
Y121105D03*
Y116606D03*
Y116105D03*
Y115606D03*
G54D335*
X20831Y121836D03*
G54D346*
X19131Y126775D03*
G54D347*
X19631D03*
G54D346*
X20131D03*
G54D347*
X20631D03*
G54D335*
X25332Y121836D03*
G54D343*
X25833D03*
X24832D03*
G54D335*
X24332D03*
X23832D03*
G54D344*
X23332D03*
G54D336*
X22832D03*
G54D343*
X22332D03*
G54D335*
X21831D03*
G54D348*
X24132Y126775D03*
G54D347*
X23632D03*
G54D346*
X23132D03*
G54D283*
X24862Y127506D03*
Y128005D03*
Y128506D03*
G54D300*
Y129005D03*
G54D304*
Y129505D03*
G54D348*
X21631Y126775D03*
G54D347*
X22131D03*
X22632D03*
G54D437*
X81846Y145374D03*
Y144036D03*
Y142174D03*
G54D436*
Y140835D03*
G54D26*
X81906Y147625D03*
G54D30*
X82456Y148745D03*
Y151545D03*
G54D42*
X81906Y150425D03*
G54D336*
X95749Y127681D03*
G54D300*
X92023Y129905D03*
G54D283*
Y129406D03*
G54D304*
Y128905D03*
G54D283*
Y128406D03*
G54D343*
X92748Y127681D03*
G54D335*
X93248D03*
G54D345*
X93748D03*
G54D336*
X94248D03*
X94749D03*
G54D343*
X95249D03*
G54D283*
X92023Y130406D03*
G54D348*
X92748Y134130D03*
G54D347*
X93248D03*
G54D350*
X93748D03*
G54D346*
X94248D03*
X94749D03*
G54D348*
X95249D03*
G54D346*
X95749D03*
G54D283*
X92023Y130906D03*
G54D304*
Y131405D03*
G54D283*
Y131906D03*
Y133406D03*
Y132906D03*
G54D300*
Y132405D03*
G54D346*
X36635Y132630D03*
X36135D03*
G54D347*
X35635D03*
G54D346*
X35134D03*
G54D348*
X34635D03*
G54D347*
X34134D03*
G54D348*
X33634D03*
G54D464*
X12379Y143506D03*
G54D363*
X12014Y145270D03*
G54D361*
X12414Y146140D03*
G54D295*
X12429Y148956D03*
Y148456D03*
Y147956D03*
Y147456D03*
G54D358*
X12814Y137070D03*
G54D359*
X13214Y137940D03*
G54D362*
X12814Y145270D03*
G36*
X39429Y30823D02*
G01Y31499D01*
X39452Y31523D01*
Y30799D01*
G37*
G36*
X39533Y30718D02*
G01Y31604D01*
X39548Y31618D01*
Y30704D01*
G37*
G36*
X39217Y31035D02*
G01Y31287D01*
X39264Y31334D01*
Y30988D01*
G37*
G36*
X39429Y30823D02*
G01Y31499D01*
X39452Y31523D01*
Y30799D01*
G37*
G36*
X39533Y30718D02*
G01Y31604D01*
X39548Y31618D01*
Y30704D01*
G37*
G36*
X39625Y30627D02*
G01Y31695D01*
X39636Y31707D01*
Y30615D01*
G37*
G36*
X39575Y30677D02*
G01Y31645D01*
X39586Y31657D01*
Y30665D01*
G37*
G36*
X39469Y30783D02*
G01Y31539D01*
X39493Y31563D01*
Y30759D01*
G37*
G36*
X39257Y30995D02*
G01Y31327D01*
X39304Y31374D01*
Y30948D01*
G37*
G36*
X39217Y31035D02*
G01Y31287D01*
X39264Y31334D01*
Y30988D01*
G37*
G36*
X39846Y31831D02*
G01X39966D01*
Y30931D01*
X39846D01*
Y31831D01*
G37*
G36*
X40101D02*
G01X40222D01*
Y30931D01*
X40101D01*
Y31831D01*
G37*
G36*
X40358D02*
G01X40478D01*
Y30931D01*
X40358D01*
Y31831D01*
G37*
G36*
X42406D02*
G01X42526D01*
Y30931D01*
X42406D01*
Y31831D01*
G37*
G36*
X42150D02*
G01X42270D01*
Y30931D01*
X42150D01*
Y31831D01*
G37*
G36*
X41894D02*
G01X42014D01*
Y30931D01*
X41894D01*
Y31831D01*
G37*
G36*
X41638D02*
G01X41758D01*
Y30931D01*
X41638D01*
Y31831D01*
G37*
G36*
X40614D02*
G01X40734D01*
Y30931D01*
X40614D01*
Y31831D01*
G37*
G36*
X40870D02*
G01X40990D01*
Y30931D01*
X40870D01*
Y31831D01*
G37*
G36*
X41126D02*
G01X41246D01*
Y30931D01*
X41126D01*
Y31831D01*
G37*
G36*
X41382D02*
G01X41502D01*
Y30931D01*
X41382D01*
Y31831D01*
G37*
G36*
X40610Y40911D02*
G01X40730D01*
Y40011D01*
X40610D01*
Y40911D01*
G37*
G36*
X42402D02*
G01X42522D01*
Y40011D01*
X42402D01*
Y40911D01*
G37*
G36*
X42146D02*
G01X42266D01*
Y40011D01*
X42146D01*
Y40911D01*
G37*
G36*
X41890D02*
G01X42010D01*
Y40011D01*
X41890D01*
Y40911D01*
G37*
G36*
X41634D02*
G01X41754D01*
Y40011D01*
X41634D01*
Y40911D01*
G37*
G36*
X41378D02*
G01X41498D01*
Y40011D01*
X41378D01*
Y40911D01*
G37*
G36*
X41122D02*
G01X41242D01*
Y40011D01*
X41122D01*
Y40911D01*
G37*
G36*
X40866D02*
G01X40986D01*
Y40011D01*
X40866D01*
Y40911D01*
G37*
G36*
X38546Y36107D02*
G01X39446D01*
Y35987D01*
X38546D01*
Y36107D01*
G37*
G36*
Y32267D02*
G01X39446D01*
Y32147D01*
X38546D01*
Y32267D01*
G37*
G36*
Y32523D02*
G01X39446D01*
Y32403D01*
X38546D01*
Y32523D01*
G37*
G36*
Y32779D02*
G01X39446D01*
Y32659D01*
X38546D01*
Y32779D01*
G37*
G36*
Y33035D02*
G01X39446D01*
Y32915D01*
X38546D01*
Y33035D01*
G37*
G36*
Y33291D02*
G01X39446D01*
Y33171D01*
X38546D01*
Y33291D01*
G37*
G36*
Y33547D02*
G01X39446D01*
Y33427D01*
X38546D01*
Y33547D01*
G37*
G36*
X39257Y31327D02*
G01X38936D01*
X38889Y31374D01*
X39304D01*
G37*
G36*
X39469Y31539D02*
G01X38724D01*
X38701Y31563D01*
X39493D01*
G37*
G36*
X39575Y31645D02*
G01X38618D01*
X38606Y31657D01*
X39586D01*
G37*
G36*
X39625Y31695D02*
G01X38568D01*
X38556Y31707D01*
X39636D01*
G37*
G36*
X39533Y31604D02*
G01X38659D01*
X38645Y31618D01*
X39548D01*
G37*
G36*
X39429Y31499D02*
G01X38764D01*
X38741Y31523D01*
X39452D01*
G37*
G36*
X39217Y31287D02*
G01X38976D01*
X38929Y31334D01*
X39264D01*
G37*
G36*
X39533Y31604D02*
G01X38659D01*
X38645Y31618D01*
X39548D01*
G37*
G36*
X39429Y31499D02*
G01X38764D01*
X38741Y31523D01*
X39452D01*
G37*
G36*
X39217Y31287D02*
G01X38976D01*
X38929Y31334D01*
X39264D01*
G37*
G36*
X38546Y33803D02*
G01X39446D01*
Y33683D01*
X38546D01*
Y33803D01*
G37*
G36*
Y34059D02*
G01X39446D01*
Y33939D01*
X38546D01*
Y34059D01*
G37*
G36*
Y35595D02*
G01X39446D01*
Y35475D01*
X38546D01*
Y35595D01*
G37*
G36*
Y35851D02*
G01X39446D01*
Y35731D01*
X38546D01*
Y35851D01*
G37*
G36*
Y35339D02*
G01X39446D01*
Y35219D01*
X38546D01*
Y35339D01*
G37*
G36*
Y35083D02*
G01X39446D01*
Y34963D01*
X38546D01*
Y35083D01*
G37*
G36*
Y34827D02*
G01X39446D01*
Y34707D01*
X38546D01*
Y34827D01*
G37*
G36*
Y34571D02*
G01X39446D01*
Y34451D01*
X38546D01*
Y34571D01*
G37*
G36*
Y34315D02*
G01X39446D01*
Y34195D01*
X38546D01*
Y34315D01*
G37*
G36*
X45227Y38415D02*
G01X46127D01*
Y38295D01*
X45227D01*
Y38415D01*
G37*
G36*
Y38159D02*
G01X46127D01*
Y38039D01*
X45227D01*
Y38159D01*
G37*
G36*
Y37903D02*
G01X46127D01*
Y37783D01*
X45227D01*
Y37903D01*
G37*
G36*
Y37647D02*
G01X46127D01*
Y37527D01*
X45227D01*
Y37647D01*
G37*
G36*
Y36111D02*
G01X46127D01*
Y35991D01*
X45227D01*
Y36111D01*
G37*
G36*
Y36367D02*
G01X46127D01*
Y36247D01*
X45227D01*
Y36367D01*
G37*
G36*
Y36623D02*
G01X46127D01*
Y36503D01*
X45227D01*
Y36623D01*
G37*
G36*
Y36879D02*
G01X46127D01*
Y36759D01*
X45227D01*
Y36879D01*
G37*
G36*
Y37135D02*
G01X46127D01*
Y37015D01*
X45227D01*
Y37135D01*
G37*
G36*
Y37391D02*
G01X46127D01*
Y37271D01*
X45227D01*
Y37391D01*
G37*
G36*
Y39695D02*
G01X46127D01*
Y39575D01*
X45227D01*
Y39695D01*
G37*
G36*
Y39439D02*
G01X46127D01*
Y39319D01*
X45227D01*
Y39439D01*
G37*
G36*
Y39183D02*
G01X46127D01*
Y39063D01*
X45227D01*
Y39183D01*
G37*
G36*
Y38927D02*
G01X46127D01*
Y38807D01*
X45227D01*
Y38927D01*
G37*
G36*
Y38671D02*
G01X46127D01*
Y38551D01*
X45227D01*
Y38671D01*
G37*
G36*
X44707Y40911D02*
G01X44827D01*
Y40011D01*
X44707D01*
Y40911D01*
G37*
G36*
X45858Y40838D02*
G01X46116D01*
X46163Y40791D01*
X45858D01*
G37*
G36*
X45658Y40627D02*
G01X46328D01*
X46352Y40604D01*
X45658D01*
G37*
G36*
X45558Y40522D02*
G01X46433D01*
X46448Y40508D01*
X45558D01*
G37*
G36*
X45858Y40838D02*
G01X46116D01*
X46163Y40791D01*
X45858D01*
G37*
G36*
X45658Y40627D02*
G01X46328D01*
X46352Y40604D01*
X45658D01*
G37*
G36*
X45818Y40799D02*
G01X46157D01*
X46204Y40752D01*
X45818D01*
G37*
G36*
X45618Y40587D02*
G01X46368D01*
X46392Y40563D01*
X45618D01*
G37*
G36*
X45468Y40431D02*
G01X46524D01*
X46536Y40419D01*
X45468D01*
G37*
G36*
X45518Y40481D02*
G01X46474D01*
X46486Y40469D01*
X45518D01*
G37*
G36*
X45558Y40522D02*
G01X46433D01*
X46448Y40508D01*
X45558D01*
G37*
G36*
X38546Y36363D02*
G01X39446D01*
Y36243D01*
X38546D01*
Y36363D01*
G37*
G36*
Y38411D02*
G01X39446D01*
Y38291D01*
X38546D01*
Y38411D01*
G37*
G36*
Y38155D02*
G01X39446D01*
Y38035D01*
X38546D01*
Y38155D01*
G37*
G36*
Y37899D02*
G01X39446D01*
Y37779D01*
X38546D01*
Y37899D01*
G37*
G36*
Y37643D02*
G01X39446D01*
Y37523D01*
X38546D01*
Y37643D01*
G37*
G36*
Y37387D02*
G01X39446D01*
Y37267D01*
X38546D01*
Y37387D01*
G37*
G36*
Y37131D02*
G01X39446D01*
Y37011D01*
X38546D01*
Y37131D01*
G37*
G36*
Y36875D02*
G01X39446D01*
Y36755D01*
X38546D01*
Y36875D01*
G37*
G36*
Y36619D02*
G01X39446D01*
Y36499D01*
X38546D01*
Y36619D01*
G37*
G36*
Y38667D02*
G01X39446D01*
Y38547D01*
X38546D01*
Y38667D01*
G37*
G36*
X39842Y40911D02*
G01X39962D01*
Y40011D01*
X39842D01*
Y40911D01*
G37*
G36*
X40098D02*
G01X40218D01*
Y40011D01*
X40098D01*
Y40911D01*
G37*
G36*
X40354D02*
G01X40474D01*
Y40011D01*
X40354D01*
Y40911D01*
G37*
G36*
X38546Y39691D02*
G01X39446D01*
Y39571D01*
X38546D01*
Y39691D01*
G37*
G36*
Y39435D02*
G01X39446D01*
Y39315D01*
X38546D01*
Y39435D01*
G37*
G36*
Y39179D02*
G01X39446D01*
Y39059D01*
X38546D01*
Y39179D01*
G37*
G36*
Y38923D02*
G01X39446D01*
Y38803D01*
X38546D01*
Y38923D01*
G37*
G36*
X11916Y22898D02*
G01X11235D01*
X11211Y22922D01*
X11940D01*
G37*
G36*
X11223Y22217D02*
G01X11916D01*
X11940Y22193D01*
X11223D01*
G37*
G36*
X12021Y23003D02*
G01X11130D01*
X11116Y23017D01*
X12035D01*
G37*
G36*
X11123Y22112D02*
G01X12021D01*
X12035Y22098D01*
X11123D01*
G37*
G36*
X11916Y22898D02*
G01X11235D01*
X11211Y22922D01*
X11940D01*
G37*
G36*
X11223Y22217D02*
G01X11916D01*
X11940Y22193D01*
X11223D01*
G37*
G36*
X12021Y23003D02*
G01X11130D01*
X11116Y23017D01*
X12035D01*
G37*
G36*
X11123Y22112D02*
G01X12021D01*
X12035Y22098D01*
X11123D01*
G37*
G36*
X11956Y22938D02*
G01X11195D01*
X11171Y22962D01*
X11980D01*
G37*
G36*
X11183Y22177D02*
G01X11956D01*
X11980Y22154D01*
X11183D01*
G37*
G36*
X12062Y23044D02*
G01X11089D01*
X11077Y23056D01*
X12074D01*
G37*
G36*
X11083Y22071D02*
G01X12062D01*
X12074Y22059D01*
X11083D01*
G37*
G36*
X12112Y23094D02*
G01X11039D01*
X11027Y23106D01*
X12124D01*
G37*
G36*
X11033Y22021D02*
G01X12112D01*
X12124Y22009D01*
X11033D01*
G37*
G54D368*
X11449Y30403D03*
G54D370*
Y30903D03*
G54D369*
Y31403D03*
G54D371*
Y31903D03*
G54D368*
Y32403D03*
Y32903D03*
G54D47*
X10229Y36905D03*
G54D370*
X11449Y33403D03*
G54D367*
X62421Y43603D03*
G54D366*
Y44103D03*
G54D365*
Y44603D03*
G54D364*
Y45103D03*
G54D365*
Y45603D03*
G54D16*
X60840Y41305D03*
Y42305D03*
Y40305D03*
Y47305D03*
Y46305D03*
Y45305D03*
Y44305D03*
Y43305D03*
G54D366*
X62421Y46603D03*
G54D367*
Y46103D03*
G54D372*
X64862Y43603D03*
G54D371*
Y44103D03*
G54D370*
Y44603D03*
G54D368*
Y45103D03*
G54D370*
Y45603D03*
G54D372*
Y46103D03*
G54D371*
Y46603D03*
G54D437*
X44837Y115276D03*
G54D436*
Y113935D03*
G54D437*
Y112776D03*
G54D436*
Y111435D03*
G54D320*
X44637Y78335D03*
G54D314*
X44737Y97875D03*
G54D335*
Y109336D03*
G54D16*
X60840Y53305D03*
G54D369*
X62421Y54803D03*
G54D365*
Y55303D03*
Y55803D03*
G54D364*
Y56303D03*
G54D365*
Y56803D03*
G54D369*
Y57303D03*
X64862D03*
G54D370*
Y56803D03*
G54D368*
Y56303D03*
G54D370*
Y55803D03*
Y55303D03*
G54D369*
Y54803D03*
G54D16*
X60840Y57305D03*
Y54305D03*
Y55305D03*
Y56305D03*
G54D370*
X64862Y49003D03*
G54D365*
X62421Y50503D03*
Y50003D03*
G54D369*
Y49503D03*
G54D365*
Y49003D03*
G54D16*
X60840Y49305D03*
Y50305D03*
G54D369*
X64862Y49503D03*
G54D370*
Y50003D03*
Y50503D03*
G54D369*
Y52003D03*
X62421D03*
G54D365*
Y51503D03*
G54D364*
Y51003D03*
G54D16*
X60840Y51305D03*
Y52305D03*
G54D368*
X64862Y51003D03*
G54D370*
Y51503D03*
G54D367*
X48207Y46155D03*
G54D364*
Y46655D03*
G54D365*
Y47155D03*
G54D366*
Y47655D03*
G54D365*
Y48155D03*
Y50655D03*
G54D366*
Y50155D03*
G54D365*
Y49655D03*
G54D364*
Y49155D03*
G54D367*
Y48655D03*
G54D364*
X44667Y60755D03*
G54D366*
Y61255D03*
G54D365*
Y61755D03*
Y62255D03*
G54D367*
Y62755D03*
G54D364*
Y63255D03*
G54D366*
Y63755D03*
G54D365*
Y64255D03*
Y64755D03*
G54D366*
Y56955D03*
G54D365*
Y59255D03*
G54D320*
X44637Y66875D03*
G54D367*
X44667Y60255D03*
G54D365*
Y59755D03*
G54D367*
Y46155D03*
G54D364*
Y46655D03*
G54D365*
Y47155D03*
G54D366*
Y47655D03*
G54D365*
Y48155D03*
G54D367*
Y48655D03*
G54D364*
Y49155D03*
G54D365*
Y49655D03*
G54D366*
Y50155D03*
G54D365*
Y50655D03*
G54D366*
Y54455D03*
G54D367*
Y54955D03*
G54D365*
Y53955D03*
G54D367*
Y52455D03*
G54D364*
Y52955D03*
G54D365*
Y53455D03*
Y56455D03*
Y55955D03*
G54D364*
Y55455D03*
G54D163*
X21351Y151406D03*
G54D479*
X21311Y139706D03*
G54D436*
X21331Y148035D03*
G54D437*
Y149374D03*
G36*
X20712Y153736D02*
G01X21651D01*
X21662Y153725D01*
X20700D01*
G37*
G36*
X21656D02*
G01X20706D01*
Y153736D01*
X21656D01*
G37*
G54D15*
X21331Y146505D03*
G54D343*
Y110376D03*
Y121836D03*
G54D349*
X21131Y126775D03*
G54D342*
Y134235D03*
G54D364*
X48207Y55455D03*
G54D367*
Y54955D03*
G54D366*
Y54455D03*
G54D367*
Y52455D03*
G54D364*
Y52955D03*
G54D365*
Y53455D03*
Y53955D03*
Y55955D03*
Y56455D03*
G54D366*
Y56955D03*
G54D16*
X23332Y74505D03*
G54D14*
X21831Y77505D03*
Y71505D03*
Y72505D03*
Y73505D03*
Y74505D03*
Y75505D03*
Y76505D03*
G54D28*
X23332D03*
G54D376*
X24802Y69455D03*
G54D373*
Y68955D03*
Y68455D03*
G54D29*
X25332Y76505D03*
G54D16*
X24332Y74505D03*
Y71505D03*
G54D373*
X24802Y65955D03*
Y66455D03*
G54D376*
Y66955D03*
G54D375*
Y67455D03*
G54D374*
Y67955D03*
G54D370*
X21261Y66455D03*
G54D368*
Y65455D03*
G54D372*
Y64955D03*
G54D351*
X21316Y81070D03*
G54D370*
X21261Y65955D03*
G54D371*
Y69455D03*
G54D370*
Y68955D03*
Y68455D03*
G54D368*
Y67955D03*
G54D372*
Y67455D03*
G54D371*
Y66955D03*
G54D378*
X21051Y98203D03*
Y97703D03*
G54D377*
Y97203D03*
G54D379*
Y96703D03*
G54D378*
Y95203D03*
Y95703D03*
G54D380*
Y96203D03*
G54D301*
X21103Y102417D03*
G54D305*
Y102917D03*
G54D295*
Y103418D03*
Y103917D03*
Y104418D03*
G54D301*
Y104917D03*
G54D305*
Y105417D03*
G54D281*
X49368Y73105D03*
G54D283*
Y73605D03*
G54D281*
Y74105D03*
G54D294*
Y74605D03*
G54D280*
Y75105D03*
Y77605D03*
G54D294*
Y77105D03*
G54D281*
Y76605D03*
G54D283*
Y76105D03*
G54D281*
Y75605D03*
G54D319*
X48138Y78335D03*
G54D323*
X48638D03*
G54D365*
X50268Y84555D03*
Y85055D03*
G54D26*
X50138Y79105D03*
G54D365*
X50268Y82555D03*
G54D369*
Y83055D03*
G54D364*
Y83555D03*
G54D365*
Y84055D03*
G54D366*
X75564Y85405D03*
G54D367*
Y84905D03*
G54D58*
X76044Y81705D03*
G54D18*
Y78705D03*
G54D14*
X74944Y80705D03*
Y81705D03*
G54D366*
X75564Y82905D03*
G54D365*
Y83405D03*
G54D364*
Y83905D03*
G54D365*
Y84405D03*
Y85905D03*
G54D285*
X76114Y92905D03*
G54D299*
Y89905D03*
G54D287*
Y89405D03*
G54D284*
Y88905D03*
G54D299*
Y92405D03*
G54D287*
Y91905D03*
G54D284*
Y91405D03*
G54D287*
Y90905D03*
G54D285*
Y90405D03*
G54D379*
X53809Y88055D03*
G54D377*
Y87555D03*
Y87055D03*
Y84055D03*
G54D378*
Y83555D03*
G54D379*
Y83055D03*
G54D377*
Y82555D03*
Y84555D03*
Y85055D03*
G54D379*
Y85555D03*
G54D378*
Y86055D03*
G54D377*
Y86555D03*
G54D16*
X58840Y89705D03*
Y78305D03*
Y81305D03*
Y80305D03*
Y79305D03*
Y87705D03*
Y88705D03*
G54D63*
Y82305D03*
G54D437*
X49838Y115276D03*
G54D436*
Y111435D03*
G54D437*
Y112776D03*
G54D436*
Y113935D03*
G54D364*
X50268Y86055D03*
G54D365*
Y86555D03*
Y87055D03*
Y87555D03*
G54D369*
Y88055D03*
G54D310*
X40434Y84329D03*
G54D321*
Y80879D03*
G54D320*
X40934D03*
G54D313*
Y84329D03*
G54D310*
X41434D03*
G54D321*
Y80879D03*
G54D319*
X41934D03*
G54D309*
Y84329D03*
G54D462*
X18480Y81605D03*
G54D143*
X18661Y83205D03*
G54D15*
X18831Y71505D03*
Y77505D03*
Y76505D03*
Y75505D03*
Y74505D03*
Y73505D03*
Y72505D03*
Y78505D03*
G54D26*
X18731Y19155D03*
G54D33*
Y41155D03*
Y63155D03*
G54D62*
X18831Y79505D03*
G54D373*
X14859Y93155D03*
G54D376*
Y89155D03*
G54D373*
Y89655D03*
G54D374*
Y90155D03*
G54D373*
Y90655D03*
G54D375*
Y91155D03*
G54D376*
Y91655D03*
G54D373*
Y92155D03*
G54D374*
Y92655D03*
G54D340*
X15431Y104228D03*
G54D338*
X14931D03*
Y100778D03*
G54D340*
X15431D03*
G54D304*
X14205Y102503D03*
G54D283*
Y103004D03*
Y103503D03*
G54D300*
Y102003D03*
G54D283*
Y101504D03*
G54D478*
X19151Y139706D03*
G54D456*
X18961Y137305D03*
G54D340*
X18630Y134235D03*
G54D346*
Y126775D03*
G36*
X18906Y154525D02*
G01X17905D01*
Y154536D01*
X18906D01*
G37*
G54D280*
X39708Y81604D03*
Y82104D03*
G54D283*
Y82604D03*
G54D281*
Y83104D03*
G54D282*
Y83604D03*
G54D365*
X38765Y87155D03*
G54D367*
Y88655D03*
G54D365*
Y88155D03*
G54D364*
Y87655D03*
G54D366*
Y89155D03*
G54D365*
Y89655D03*
G54D364*
Y90155D03*
Y92655D03*
G54D365*
Y92155D03*
G54D366*
Y91655D03*
G54D367*
Y91155D03*
G54D365*
Y90655D03*
X48207Y62255D03*
Y61755D03*
G54D366*
Y61255D03*
G54D364*
Y60755D03*
G54D367*
Y60255D03*
G54D365*
Y59755D03*
Y59255D03*
G54D367*
Y62755D03*
G54D364*
Y63255D03*
G54D366*
Y63755D03*
G54D365*
Y64255D03*
Y64755D03*
G54D371*
X51208Y94155D03*
G54D370*
Y89655D03*
G54D315*
X51739Y97875D03*
G54D316*
X51238D03*
G54D314*
X50738D03*
G54D315*
X50238D03*
G54D368*
X51208Y90155D03*
G54D370*
Y90655D03*
G54D372*
Y91155D03*
G54D371*
Y91655D03*
G54D370*
Y92155D03*
G54D368*
Y92655D03*
G54D370*
Y93155D03*
G54D372*
Y93655D03*
G54D96*
X25102Y78805D03*
G54D321*
X24033Y83578D03*
G54D298*
X25258Y84803D03*
G54D288*
Y85303D03*
Y85803D03*
G54D290*
Y86303D03*
Y84303D03*
G54D320*
X24533Y83578D03*
G54D325*
Y87028D03*
G54D326*
X24033D03*
G54D151*
X25502Y99305D03*
X24162D03*
G54D365*
X25952Y98303D03*
Y97803D03*
G54D381*
Y97303D03*
G54D301*
X25554Y102417D03*
G54D335*
X24829Y101692D03*
X24329D03*
G54D336*
X23829D03*
G54D364*
X25952Y96303D03*
G54D365*
Y95803D03*
Y95303D03*
G54D364*
Y96803D03*
G54D365*
X18401Y90655D03*
G54D367*
Y91155D03*
G54D366*
Y91655D03*
G54D365*
Y92155D03*
G54D364*
Y92655D03*
Y87655D03*
G54D365*
Y88155D03*
G54D367*
Y88655D03*
G54D366*
Y89155D03*
G54D364*
Y90155D03*
G54D365*
Y89655D03*
G54D369*
X18611Y96703D03*
G54D370*
Y97203D03*
G54D368*
Y95703D03*
Y95203D03*
G54D365*
X18401Y93155D03*
G54D371*
X18611Y96203D03*
G54D368*
Y98203D03*
Y97703D03*
G54D20*
X84146Y108605D03*
Y109605D03*
G54D22*
X85146D03*
Y108605D03*
G54D319*
X45137Y78335D03*
G54D320*
X45637D03*
G54D319*
X46137D03*
X45137Y66875D03*
G54D320*
X45637D03*
G54D319*
X46137D03*
G54D335*
X48238Y109336D03*
G54D343*
X48738D03*
G54D335*
X49238D03*
G54D344*
X49738D03*
G54D314*
X48238Y97875D03*
G54D316*
X48738D03*
G54D314*
X49238D03*
G54D317*
X49738D03*
G54D437*
X48838Y115276D03*
G54D436*
Y113935D03*
G54D437*
Y112776D03*
G54D436*
Y111435D03*
G54D387*
X48808Y120455D03*
G54D386*
Y117455D03*
G54D387*
Y117955D03*
G54D371*
Y118456D03*
Y118954D03*
Y119456D03*
G54D386*
Y119955D03*
G54D371*
Y121956D03*
Y121454D03*
Y120956D03*
G54D16*
X60840Y120705D03*
Y121705D03*
Y122705D03*
Y123705D03*
Y116705D03*
Y117705D03*
Y118705D03*
Y119705D03*
Y125705D03*
Y124705D03*
G54D383*
X63521Y121954D03*
G54D366*
Y125454D03*
Y124954D03*
G54D383*
Y124454D03*
G54D384*
Y123954D03*
G54D366*
Y123455D03*
Y122954D03*
Y122454D03*
G54D348*
X67043Y118128D03*
Y114678D03*
G54D396*
X84476Y120855D03*
G54D385*
Y121355D03*
G54D380*
Y121856D03*
Y122355D03*
Y119356D03*
G54D385*
Y118855D03*
G54D380*
Y119855D03*
Y120356D03*
G54D396*
Y123355D03*
G54D380*
Y122856D03*
G54D514*
X85216Y125305D03*
G54D509*
X85416Y125000D03*
G54D508*
Y125611D03*
G54D348*
X85746Y127880D03*
G54D347*
X85247D03*
X84746D03*
X84246D03*
X83746D03*
G54D348*
X83246D03*
G36*
X85736Y125335D02*
G01X85397D01*
X85385Y125346D01*
X85748D01*
G37*
G36*
X85736Y125276D02*
G01Y125335D01*
X85748Y125346D01*
Y125265D01*
G37*
G36*
X85391Y125276D02*
G01X85736D01*
X85748Y125265D01*
X85391D01*
G37*
G36*
X85397Y125335D02*
G01Y125271D01*
X85385D01*
Y125346D01*
G37*
G36*
X85391Y125301D02*
G01X85742D01*
Y125290D01*
X85391D01*
G37*
G54D384*
X88017Y123355D03*
G54D366*
Y122856D03*
Y122355D03*
Y121856D03*
G54D383*
Y118855D03*
G54D366*
Y119356D03*
Y119855D03*
Y120356D03*
G54D384*
Y120855D03*
G54D383*
Y121355D03*
G54D515*
X87677Y125305D03*
G54D508*
X87477Y125611D03*
G54D509*
Y125000D03*
G54D305*
X87472Y130105D03*
G54D301*
Y129605D03*
G54D295*
Y129106D03*
Y128605D03*
G54D28*
X88247Y127105D03*
G36*
X87152Y125301D02*
G01X87502D01*
Y125290D01*
X87152D01*
G37*
G36*
X87158Y125335D02*
G01Y125271D01*
X87146D01*
Y125346D01*
G37*
G36*
X87496Y125335D02*
G01X87158D01*
X87146Y125346D01*
X87508D01*
G37*
G36*
X87496Y125276D02*
G01Y125335D01*
X87508Y125346D01*
Y125265D01*
G37*
G36*
X87152Y125276D02*
G01X87496D01*
X87508Y125265D01*
X87152D01*
G37*
G54D348*
X86747Y127880D03*
G54D516*
X80015Y136906D03*
G54D508*
X80215Y136601D03*
G36*
X80190Y136901D02*
G01X80541D01*
Y136890D01*
X80190D01*
G37*
G36*
X80196Y136935D02*
G01Y136870D01*
X80184D01*
Y136946D01*
G37*
G36*
X80535Y136935D02*
G01X80196D01*
X80184Y136946D01*
X80546D01*
G37*
G36*
X80190Y136876D02*
G01X80535D01*
X80546Y136865D01*
X80190D01*
G37*
G36*
X80535Y136876D02*
G01Y136935D01*
X80546Y136946D01*
Y136865D01*
G37*
G54D19*
X79045Y132105D03*
Y133105D03*
G54D73*
Y131105D03*
G54D315*
X70543Y27575D03*
G54D312*
Y39035D03*
G54D394*
X70563Y125454D03*
Y124954D03*
G54D393*
Y124454D03*
G54D395*
Y123954D03*
G54D394*
Y123455D03*
Y122954D03*
Y122454D03*
G54D393*
Y121954D03*
G54D20*
X70643Y106005D03*
Y105005D03*
G54D387*
X70463Y135003D03*
G54D371*
Y135504D03*
Y136002D03*
Y136504D03*
G54D386*
Y137003D03*
G54D387*
Y137503D03*
G54D371*
Y138004D03*
Y131804D03*
Y131303D03*
G54D386*
Y129803D03*
G54D371*
Y129304D03*
Y128803D03*
G54D28*
X70803Y151345D03*
G54D16*
X70443Y142305D03*
G54D387*
X70463Y130303D03*
G54D371*
Y130804D03*
G54D347*
X67543Y118128D03*
Y114678D03*
G54D295*
X68269Y115402D03*
G54D305*
Y115903D03*
G54D301*
Y116403D03*
G54D295*
Y116903D03*
Y117404D03*
G54D391*
X68122Y122954D03*
Y122454D03*
G54D390*
Y121954D03*
G54D366*
X68022Y128803D03*
Y129304D03*
G54D384*
Y129803D03*
G54D383*
Y130303D03*
G54D366*
Y130804D03*
G54D391*
X68122Y125454D03*
Y124954D03*
G54D390*
Y124454D03*
G54D392*
Y123954D03*
G54D391*
Y123455D03*
G54D366*
X68022Y131804D03*
Y131303D03*
G54D383*
X65962Y121954D03*
G54D347*
X66543Y118128D03*
Y114678D03*
X66043D03*
G54D346*
X65543D03*
Y118128D03*
G54D347*
X66043D03*
G54D371*
X65862Y131804D03*
Y131303D03*
Y130804D03*
G54D387*
Y130303D03*
G54D366*
X65962Y122454D03*
Y122954D03*
Y123455D03*
G54D384*
Y123954D03*
G54D383*
Y124454D03*
G54D366*
Y124954D03*
Y125454D03*
G54D371*
X65862Y128803D03*
Y129304D03*
G54D386*
Y129803D03*
G54D16*
X60840Y132705D03*
Y133705D03*
Y134705D03*
Y135705D03*
Y131705D03*
Y130705D03*
Y129705D03*
Y128705D03*
Y127705D03*
Y136705D03*
G54D366*
X63421Y138004D03*
G54D383*
Y137503D03*
G54D384*
Y137003D03*
G54D366*
Y136504D03*
Y136002D03*
Y135504D03*
G54D383*
Y135003D03*
G54D366*
Y131804D03*
Y131303D03*
Y130804D03*
G54D383*
Y130303D03*
G54D384*
Y129803D03*
G54D366*
Y129304D03*
Y128803D03*
G54D155*
X55440Y132005D03*
X54439D03*
G54D388*
X49218Y131705D03*
X52759D03*
G54D373*
X47668Y93155D03*
G54D375*
Y93655D03*
G54D376*
Y94155D03*
G54D374*
Y90155D03*
G54D373*
Y89655D03*
G54D374*
Y92655D03*
G54D373*
Y92155D03*
G54D376*
Y91655D03*
G54D375*
Y91155D03*
G54D373*
Y90655D03*
G54D433*
X47837Y115276D03*
G54D435*
Y111435D03*
G54D433*
Y112776D03*
G54D435*
Y113935D03*
G54D391*
X47867Y126856D03*
Y127355D03*
G54D390*
Y123855D03*
G54D391*
Y124356D03*
Y124855D03*
Y125356D03*
G54D392*
Y125855D03*
G54D390*
Y126355D03*
G54D391*
Y127856D03*
G54D398*
X43216Y128603D03*
G54D397*
Y129103D03*
Y129604D03*
G54D283*
X39361Y130406D03*
G54D300*
Y129905D03*
G54D283*
Y129406D03*
G54D304*
Y128905D03*
G54D283*
Y128406D03*
G54D72*
X41336Y129005D03*
G54D397*
X43216Y130103D03*
G54D442*
X41836Y130535D03*
G54D399*
X43216Y130603D03*
G54D366*
X39955Y141204D03*
Y140702D03*
Y140204D03*
G54D383*
Y139703D03*
G54D384*
Y139203D03*
G54D366*
Y138704D03*
G54D384*
X45657Y128603D03*
G54D366*
Y129103D03*
Y129604D03*
Y130103D03*
G54D383*
Y130603D03*
G54D384*
Y131103D03*
G54D366*
Y131603D03*
G54D387*
X45307Y133255D03*
G54D140*
X45407Y138705D03*
G54D386*
X45307Y137755D03*
G54D371*
Y137256D03*
Y136754D03*
Y136256D03*
G54D387*
Y135755D03*
G54D386*
Y135255D03*
G54D371*
Y134756D03*
Y134254D03*
Y133756D03*
G54D156*
X54439Y132805D03*
G54D157*
Y133606D03*
X55440D03*
G54D156*
Y132805D03*
G54D376*
X52759Y132206D03*
G54D16*
X56439Y132305D03*
Y133305D03*
G54D376*
X49218Y132206D03*
Y132705D03*
Y133206D03*
G54D389*
Y133705D03*
X52759D03*
G54D376*
Y133206D03*
Y132705D03*
G54D157*
X54439Y134406D03*
X55440D03*
G54D436*
X47637Y133935D03*
X46637D03*
G54D16*
X56439Y134305D03*
G54D388*
X49218Y134205D03*
X52759D03*
G54D139*
X65372Y147706D03*
Y146706D03*
Y145706D03*
Y144706D03*
G54D121*
X66712D03*
Y145706D03*
Y146706D03*
Y147706D03*
G54D27*
X65352Y151345D03*
G54D28*
X65902Y150225D03*
G54D26*
X66982D03*
X68072D03*
X67532Y151345D03*
X66442D03*
G54D387*
X65862Y135003D03*
G54D371*
Y135504D03*
Y136002D03*
Y136504D03*
G54D386*
Y137003D03*
G54D387*
Y137503D03*
G54D371*
Y138004D03*
G54D76*
X65442Y142305D03*
G54D383*
X68022Y135003D03*
G54D15*
X68442Y142305D03*
G54D73*
X67442D03*
G54D366*
X68022Y135504D03*
Y136002D03*
Y136504D03*
G54D384*
Y137003D03*
G54D383*
Y137503D03*
G54D366*
Y138004D03*
G54D384*
X72623Y137003D03*
G54D366*
Y136504D03*
Y131303D03*
Y131804D03*
Y130804D03*
G54D383*
Y130303D03*
G54D384*
Y129803D03*
G54D366*
Y129304D03*
Y128803D03*
G54D383*
Y135003D03*
G54D366*
Y135504D03*
Y136002D03*
G54D387*
X75064Y135003D03*
G54D371*
Y135504D03*
Y136002D03*
Y136504D03*
G54D386*
Y137003D03*
G54D371*
Y131804D03*
Y131303D03*
Y130804D03*
G54D387*
Y130303D03*
G54D386*
Y129803D03*
G54D371*
Y129304D03*
Y128803D03*
G54D16*
X71443Y142305D03*
G54D19*
X75444D03*
G54D15*
X74444D03*
X73444D03*
G54D14*
X72443D03*
G54D383*
X72623Y137503D03*
G54D366*
Y138004D03*
G54D371*
X75064D03*
G54D387*
Y137503D03*
G54D468*
X71501Y144898D03*
G54D121*
X73974Y144706D03*
G54D126*
X75314D03*
G54D468*
X71501Y146498D03*
G54D126*
X71313Y147906D03*
G54D121*
X73974Y145706D03*
G54D126*
X75314D03*
G54D26*
X71893Y151345D03*
G54D31*
X72433Y150225D03*
G54D26*
X71343D03*
G54D361*
X75329Y147740D03*
G54D362*
X74929Y146870D03*
G54D361*
X74229D03*
G54D362*
X73829Y147740D03*
G54D363*
X73429Y146870D03*
G54D157*
X54439Y135206D03*
X55440D03*
G54D437*
X47637Y135276D03*
X46637D03*
G54D386*
X52819Y136403D03*
G54D376*
X52759Y134706D03*
X49218D03*
G54D74*
X56440Y135306D03*
G54D371*
X52819Y136902D03*
X55259D03*
G54D386*
Y136403D03*
G54D130*
X48608Y138505D03*
G54D128*
X47268D03*
G54D371*
X52819Y137404D03*
Y137902D03*
G54D387*
Y138403D03*
X55259D03*
G54D371*
Y137902D03*
Y137404D03*
G54D386*
Y138903D03*
G54D387*
Y139403D03*
X52819D03*
G54D386*
Y138903D03*
G54D400*
X41986Y22935D03*
X38486D03*
X38985D03*
G54D401*
X39485D03*
G54D400*
X39986D03*
G54D402*
X40486D03*
G54D401*
X40986D03*
G54D403*
X41486D03*
G54D405*
X38486Y26475D03*
X38985D03*
G54D410*
X39485D03*
G54D405*
X39986D03*
G54D406*
X40486D03*
G54D410*
X40986D03*
G54D409*
X41486D03*
G54D405*
X41986D03*
G36*
X38652Y30718D02*
G01X39533D01*
X39548Y30704D01*
X38652D01*
G37*
G36*
X38912Y30995D02*
G01X39257D01*
X39304Y30948D01*
X38912D01*
G37*
G36*
X38713Y30783D02*
G01X39469D01*
X39493Y30759D01*
X38713D01*
G37*
G36*
X38612Y30677D02*
G01X39575D01*
X39586Y30665D01*
X38612D01*
G37*
G36*
X38562Y30627D02*
G01X39625D01*
X39636Y30615D01*
X38562D01*
G37*
G36*
X38752Y30823D02*
G01X39429D01*
X39452Y30799D01*
X38752D01*
G37*
G36*
X38952Y31035D02*
G01X39217D01*
X39264Y30988D01*
X38952D01*
G37*
G36*
X38652Y30718D02*
G01X39533D01*
X39548Y30704D01*
X38652D01*
G37*
G36*
X38752Y30823D02*
G01X39429D01*
X39452Y30799D01*
X38752D01*
G37*
G36*
X38952Y31035D02*
G01X39217D01*
X39264Y30988D01*
X38952D01*
G37*
G54D405*
X42486Y26475D03*
G54D400*
Y22935D03*
G54D320*
X42636Y66875D03*
Y78335D03*
G54D309*
X42434Y84329D03*
G54D319*
Y80879D03*
G54D364*
X42306Y90155D03*
G54D365*
Y89655D03*
G54D366*
Y89155D03*
G54D367*
Y88655D03*
G54D365*
Y88155D03*
G54D364*
Y87655D03*
G54D365*
Y87155D03*
Y90655D03*
G54D367*
Y91155D03*
G54D366*
Y91655D03*
G54D365*
Y92155D03*
G54D364*
Y92655D03*
G54D405*
X42986Y26475D03*
G36*
X43431Y31831D02*
G01X43550D01*
Y30931D01*
X43431D01*
Y31831D01*
G37*
G36*
X43174D02*
G01X43294D01*
Y30931D01*
X43174D01*
Y31831D01*
G37*
G36*
X42918D02*
G01X43038D01*
Y30931D01*
X42918D01*
Y31831D01*
G37*
G36*
X42662D02*
G01X42782D01*
Y30931D01*
X42662D01*
Y31831D01*
G37*
G36*
X43427Y40911D02*
G01X43547D01*
Y40011D01*
X43427D01*
Y40911D01*
G37*
G36*
X43171D02*
G01X43291D01*
Y40011D01*
X43171D01*
Y40911D01*
G37*
G36*
X42915D02*
G01X43035D01*
Y40011D01*
X42915D01*
Y40911D01*
G37*
G36*
X42659D02*
G01X42778D01*
Y40011D01*
X42659D01*
Y40911D01*
G37*
G54D400*
X42986Y22935D03*
G54D426*
X44237Y23535D03*
G54D425*
Y24875D03*
G36*
X44199Y31831D02*
G01X44319D01*
Y30931D01*
X44199D01*
Y31831D01*
G37*
G36*
X43943D02*
G01X44063D01*
Y30931D01*
X43943D01*
Y31831D01*
G37*
G36*
X43687D02*
G01X43806D01*
Y30931D01*
X43687D01*
Y31831D01*
G37*
G36*
X44455D02*
G01X44575D01*
Y30931D01*
X44455D01*
Y31831D01*
G37*
G36*
X44451Y40911D02*
G01X44571D01*
Y40011D01*
X44451D01*
Y40911D01*
G37*
G36*
X44195D02*
G01X44315D01*
Y40011D01*
X44195D01*
Y40911D01*
G37*
G36*
X43939D02*
G01X44059D01*
Y40011D01*
X43939D01*
Y40911D01*
G37*
G36*
X43683D02*
G01X43803D01*
Y40011D01*
X43683D01*
Y40911D01*
G37*
G36*
X45227Y33295D02*
G01X46127D01*
Y33175D01*
X45227D01*
Y33295D01*
G37*
G36*
Y33039D02*
G01X46127D01*
Y32919D01*
X45227D01*
Y33039D01*
G37*
G36*
Y32783D02*
G01X46127D01*
Y32663D01*
X45227D01*
Y32783D01*
G37*
G36*
Y32527D02*
G01X46127D01*
Y32407D01*
X45227D01*
Y32527D01*
G37*
G36*
Y32271D02*
G01X46127D01*
Y32151D01*
X45227D01*
Y32271D01*
G37*
G36*
X44711Y31831D02*
G01X44831D01*
Y30931D01*
X44711D01*
Y31831D01*
G37*
G36*
X45227Y33551D02*
G01X46127D01*
Y33431D01*
X45227D01*
Y33551D01*
G37*
G36*
Y33807D02*
G01X46127D01*
Y33687D01*
X45227D01*
Y33807D01*
G37*
G36*
Y34063D02*
G01X46127D01*
Y33943D01*
X45227D01*
Y34063D01*
G37*
G36*
Y34319D02*
G01X46127D01*
Y34199D01*
X45227D01*
Y34319D01*
G37*
G36*
Y34575D02*
G01X46127D01*
Y34455D01*
X45227D01*
Y34575D01*
G37*
G36*
Y34831D02*
G01X46127D01*
Y34711D01*
X45227D01*
Y34831D01*
G37*
G36*
Y35087D02*
G01X46127D01*
Y34967D01*
X45227D01*
Y35087D01*
G37*
G36*
Y35343D02*
G01X46127D01*
Y35223D01*
X45227D01*
Y35343D01*
G37*
G36*
Y35599D02*
G01X46127D01*
Y35479D01*
X45227D01*
Y35599D01*
G37*
G36*
Y35855D02*
G01X46127D01*
Y35735D01*
X45227D01*
Y35855D01*
G37*
G54D14*
X56740Y22705D03*
Y21205D03*
Y19705D03*
G54D55*
X57740Y21205D03*
Y22705D03*
G54D56*
Y19705D03*
G54D404*
X57890Y24435D03*
G54D405*
Y27975D03*
G54D406*
X57390D03*
G54D407*
Y24435D03*
G54D408*
X56890D03*
G54D409*
Y27975D03*
G54D405*
X54389D03*
G54D404*
Y24435D03*
X53889D03*
G54D405*
Y27975D03*
G54D410*
X53389D03*
G54D411*
Y24435D03*
G54D407*
X54889D03*
G54D406*
Y27975D03*
G54D411*
X56390Y24435D03*
G54D410*
Y27975D03*
G54D13*
X55739Y22705D03*
Y21205D03*
Y19705D03*
G54D404*
X55890Y24435D03*
G54D405*
Y27975D03*
G54D410*
X55389D03*
G54D411*
Y24435D03*
G54D410*
X45287Y26475D03*
G54D406*
X45787D03*
G54D410*
X46287D03*
G54D401*
X45287Y22935D03*
G54D402*
X45787D03*
G54D401*
X46287D03*
G54D402*
X46787D03*
G54D400*
X47288D03*
G54D405*
Y26475D03*
G54D406*
X46787D03*
G54D400*
X47787Y22935D03*
G54D401*
X48287D03*
G54D400*
X48788D03*
G54D402*
X49288D03*
G54D401*
X49788D03*
G54D410*
Y26475D03*
G54D406*
X49288D03*
G54D405*
X48788D03*
G54D410*
X48287D03*
G54D405*
X47787D03*
G54D21*
X14230Y54905D03*
Y55905D03*
Y56905D03*
Y57905D03*
Y58905D03*
Y53905D03*
Y52905D03*
Y51905D03*
G54D37*
Y59905D03*
G54D410*
X14382Y84825D03*
G54D405*
X13882D03*
G54D412*
Y82385D03*
G54D416*
Y80425D03*
G54D419*
X14382D03*
G54D413*
Y82385D03*
Y76225D03*
G54D410*
Y73785D03*
G54D405*
X13882D03*
G54D412*
Y76225D03*
Y77985D03*
G54D413*
X14382D03*
G54D373*
X14859Y88155D03*
G54D374*
Y87655D03*
G54D26*
X14700Y72235D03*
G54D406*
X15382Y84825D03*
G54D409*
X14882D03*
G54D414*
Y82385D03*
G54D418*
Y80425D03*
G54D414*
Y77985D03*
Y76225D03*
G54D409*
Y73785D03*
G54D406*
X15382D03*
G54D415*
Y76225D03*
Y77985D03*
Y82385D03*
G54D417*
Y80425D03*
G54D405*
X13381Y84825D03*
G54D20*
X13229Y58405D03*
Y57405D03*
Y56405D03*
Y55405D03*
Y54405D03*
Y53405D03*
Y52405D03*
Y51405D03*
Y59405D03*
G54D33*
X13730Y63155D03*
G54D405*
X13381Y73785D03*
G54D412*
Y76225D03*
Y77985D03*
Y82385D03*
G54D416*
Y80425D03*
G54D358*
X13614Y137070D03*
G54D362*
Y145270D03*
G36*
X12021Y22112D02*
G01Y23003D01*
X12035Y23017D01*
Y22098D01*
G37*
G36*
X11916Y22217D02*
G01Y22898D01*
X11940Y22922D01*
Y22193D01*
G37*
G36*
X12021Y22112D02*
G01Y23003D01*
X12035Y23017D01*
Y22098D01*
G37*
G36*
X11745Y22388D02*
G01Y22727D01*
X11792Y22774D01*
Y22341D01*
G37*
G36*
X11956Y22177D02*
G01Y22938D01*
X11980Y22962D01*
Y22154D01*
G37*
G36*
X12062Y22071D02*
G01Y23044D01*
X12074Y23056D01*
Y22059D01*
G37*
G36*
X12112Y22021D02*
G01Y23094D01*
X12124Y23106D01*
Y22009D01*
G37*
G36*
X11916Y22217D02*
G01Y22898D01*
X11940Y22922D01*
Y22193D01*
G37*
G54D405*
X12881Y84825D03*
X12381D03*
G54D412*
Y82385D03*
G54D416*
Y80425D03*
G54D412*
X12881Y82385D03*
G54D26*
X12729Y72235D03*
Y64575D03*
G54D405*
X12381Y73785D03*
G54D412*
Y76225D03*
Y77985D03*
X12881D03*
Y76225D03*
G54D405*
Y73785D03*
G54D416*
Y80425D03*
G54D422*
X99680Y48705D03*
G54D421*
Y47705D03*
G54D420*
Y46705D03*
Y45705D03*
Y41705D03*
Y40705D03*
G54D423*
Y49705D03*
G54D54*
X100650Y94305D03*
Y150505D03*
G54D420*
X101021Y46705D03*
Y45705D03*
Y40705D03*
Y41705D03*
G54D54*
X100650Y36905D03*
G54D421*
X101021Y47705D03*
G54D422*
Y48705D03*
G54D423*
Y49705D03*
G54D420*
Y50705D03*
Y51705D03*
G54D421*
Y52705D03*
G54D422*
Y53705D03*
G54D423*
Y54705D03*
G54D420*
Y55705D03*
G54D423*
X99680Y59705D03*
G54D422*
Y58705D03*
G54D421*
Y57705D03*
G54D420*
Y56705D03*
Y55705D03*
G54D423*
Y54705D03*
G54D422*
Y53705D03*
G54D421*
Y52705D03*
G54D420*
Y51705D03*
Y50705D03*
Y60705D03*
G54D20*
X9529Y85505D03*
Y84505D03*
G54D113*
X9358Y74405D03*
G54D80*
Y75405D03*
G54D78*
Y76405D03*
G54D82*
Y77405D03*
G54D78*
Y78405D03*
G54D113*
Y79405D03*
G54D80*
Y80405D03*
G54D78*
Y81405D03*
G54D85*
X10699Y78405D03*
G54D112*
Y79405D03*
G54D91*
Y80405D03*
G54D85*
Y81405D03*
G54D26*
X10759Y72235D03*
G54D22*
X10529Y84505D03*
Y85505D03*
G54D112*
X10699Y74405D03*
G54D91*
Y75405D03*
G54D85*
Y76405D03*
G54D92*
Y77405D03*
G54D423*
X99680Y72105D03*
G54D422*
Y71105D03*
G54D423*
Y64705D03*
G54D422*
Y63705D03*
G54D421*
Y62705D03*
G54D420*
Y61705D03*
G54D422*
Y73105D03*
G54D420*
Y85105D03*
G54D422*
Y86105D03*
G54D423*
Y87105D03*
G54D422*
Y88105D03*
G54D424*
Y89105D03*
G54D422*
Y78105D03*
G54D423*
Y77105D03*
G54D420*
Y75105D03*
G54D424*
Y74105D03*
Y79105D03*
G54D420*
Y80105D03*
G54D422*
Y81105D03*
G54D423*
Y82105D03*
G54D422*
Y83105D03*
G54D424*
Y84105D03*
G54D422*
X101021Y63705D03*
G54D421*
Y62705D03*
G54D420*
Y61705D03*
Y60705D03*
G54D423*
Y59705D03*
G54D420*
Y56705D03*
G54D421*
Y57705D03*
G54D422*
Y58705D03*
G54D423*
Y64705D03*
G54D424*
Y79105D03*
G54D422*
Y78105D03*
G54D423*
Y77105D03*
G54D420*
Y75105D03*
G54D424*
Y74105D03*
G54D422*
Y73105D03*
G54D423*
Y72105D03*
G54D422*
Y71105D03*
G54D420*
Y90105D03*
G54D424*
Y89105D03*
G54D420*
Y80105D03*
G54D422*
Y81105D03*
G54D423*
Y82105D03*
G54D422*
Y83105D03*
G54D424*
Y84105D03*
G54D420*
Y85105D03*
G54D422*
Y86105D03*
G54D423*
Y87105D03*
G54D422*
Y88105D03*
G54D118*
X89017Y102805D03*
Y101805D03*
G54D140*
X87677D03*
G54D118*
X86016D03*
X84676D03*
Y102805D03*
X86016D03*
G54D140*
X87677D03*
G54D22*
X85646Y105005D03*
Y106005D03*
G54D21*
X86647D03*
Y105005D03*
G54D20*
X87647D03*
G54D23*
X84646D03*
Y106005D03*
G54D20*
X83646D03*
Y105005D03*
G54D39*
X87647Y106004D03*
G54D21*
X70143Y109605D03*
Y108605D03*
G54D22*
X69643Y105005D03*
Y106005D03*
G54D66*
Y101505D03*
G54D290*
X69519Y96303D03*
G54D288*
Y98303D03*
Y97803D03*
G54D298*
Y97303D03*
G54D290*
Y96803D03*
G54D309*
X70244Y95578D03*
Y99028D03*
G54D469*
X69761Y144898D03*
Y146498D03*
G54D122*
X69973Y147906D03*
G54D14*
X69443Y142305D03*
G54D28*
X70253Y150225D03*
G54D29*
X69713Y151345D03*
G54D130*
X70113Y126705D03*
G54D125*
X69913Y132706D03*
G54D26*
X11129Y114525D03*
Y112345D03*
Y113435D03*
Y115615D03*
G54D43*
X10609Y119445D03*
Y109605D03*
G54D47*
X10229Y94305D03*
G54D50*
X11129Y116705D03*
G54D468*
X11087Y135698D03*
G54D26*
X11129Y126145D03*
Y127235D03*
Y128325D03*
Y129415D03*
G54D43*
X10609Y133245D03*
Y123405D03*
G54D48*
X10129Y150506D03*
G54D49*
X11129Y130506D03*
G54D131*
X11499Y137505D03*
G54D442*
X41836Y131875D03*
G54D386*
X41766Y135255D03*
G54D371*
Y134756D03*
Y134254D03*
Y133756D03*
G54D387*
Y133255D03*
G54D397*
X43216Y131603D03*
G54D398*
Y131103D03*
G54D371*
X41766Y136754D03*
Y136256D03*
G54D387*
Y135755D03*
G54D371*
Y137256D03*
G54D386*
Y137755D03*
G54D118*
X41366Y138705D03*
G54D126*
Y139706D03*
X42706D03*
G54D118*
Y138705D03*
X44067D03*
G54D471*
X47630Y146446D03*
G54D467*
X45837Y146456D03*
G54D461*
X43837Y146635D03*
G54D122*
X56970Y146706D03*
Y145706D03*
Y144706D03*
G54D136*
X58310D03*
Y145706D03*
Y146706D03*
G54D26*
X46637Y143106D03*
Y142105D03*
G54D49*
Y144106D03*
G54D53*
X53639Y143105D03*
G54D478*
X49758Y147306D03*
G54D480*
X51918D03*
G54D464*
X17580Y140206D03*
G54D144*
X17500Y138305D03*
G54D295*
X17400Y133005D03*
Y133506D03*
G54D26*
X16630Y135005D03*
G54D295*
X17400Y132506D03*
G54D305*
Y132005D03*
G54D301*
Y131505D03*
G54D295*
Y131006D03*
Y130505D03*
Y130006D03*
G54D305*
Y129505D03*
G54D301*
Y129005D03*
G54D295*
Y128506D03*
G54D339*
X18131Y134235D03*
G54D164*
X17730Y153356D03*
G54D464*
X17480Y144006D03*
G54D144*
X17500Y142106D03*
G54D126*
Y145506D03*
Y146506D03*
Y147506D03*
Y148506D03*
G36*
X16561Y154530D02*
G01Y153730D01*
X16549D01*
Y154530D01*
G37*
G36*
Y153736D02*
G01Y154536D01*
X16561Y154525D01*
Y153725D01*
G37*
G36*
X16549Y154536D02*
G01X17555D01*
Y154525D01*
X16561D01*
G37*
G54D126*
X17500Y149506D03*
G54D437*
X51839Y115276D03*
X50838D03*
G54D436*
Y113935D03*
G54D437*
Y112776D03*
G54D336*
X51739Y109336D03*
G54D343*
X51238D03*
G54D335*
X50738D03*
G54D336*
X50238D03*
G54D436*
X51839Y113935D03*
G54D437*
Y112776D03*
G54D436*
Y111435D03*
X50838D03*
G54D383*
X51408Y123855D03*
G54D366*
Y124356D03*
Y124855D03*
Y125356D03*
G54D384*
Y125855D03*
G54D383*
Y126355D03*
G54D366*
Y127856D03*
Y127355D03*
Y126856D03*
G54D343*
X45237Y109336D03*
G54D335*
X45737D03*
X46237D03*
G54D316*
X45237Y97875D03*
G54D314*
X46237D03*
X45737D03*
G54D437*
X45837Y115276D03*
G54D436*
Y111435D03*
G54D437*
Y112776D03*
G54D389*
X45267Y119955D03*
G54D388*
Y120455D03*
G54D376*
Y120956D03*
Y121454D03*
Y121956D03*
Y119456D03*
Y118954D03*
Y118456D03*
G54D388*
Y117955D03*
G54D389*
Y117455D03*
G54D436*
X45837Y113935D03*
G54D295*
X41006Y108605D03*
G54D301*
Y104605D03*
G54D305*
Y105105D03*
G54D295*
Y105606D03*
Y106105D03*
Y106606D03*
G54D301*
Y107105D03*
G54D305*
Y107605D03*
G54D295*
Y108106D03*
G54D336*
X42236Y109336D03*
G54D343*
X41736D03*
G54D443*
X41836Y115276D03*
G54D433*
X40836D03*
G54D435*
Y113935D03*
G54D26*
X40236Y110105D03*
G54D442*
X41836Y113935D03*
G54D443*
Y112776D03*
G54D442*
Y111435D03*
G54D435*
X40836D03*
G54D433*
Y112776D03*
G54D371*
X34855Y138704D03*
G54D386*
Y139203D03*
G54D387*
Y139703D03*
G54D371*
Y140204D03*
Y140702D03*
Y141204D03*
G54D347*
X38135Y132630D03*
G54D349*
X37635D03*
G54D348*
X37135D03*
G54D366*
X37515Y141204D03*
Y140702D03*
Y140204D03*
G54D383*
Y139703D03*
G54D384*
Y139203D03*
G54D366*
Y138704D03*
G54D444*
X37635Y135935D03*
G54D443*
Y137276D03*
G54D437*
X39635D03*
G54D445*
Y135935D03*
G54D283*
X39361Y130906D03*
G54D304*
Y131405D03*
G54D283*
Y131906D03*
G54D347*
X38635Y132630D03*
G54D443*
X38636Y137276D03*
G54D444*
Y135935D03*
G54D466*
X84146Y137455D03*
G54D465*
Y139156D03*
G54D433*
X83846Y142174D03*
G54D435*
Y140835D03*
X84846D03*
G54D433*
Y142174D03*
G54D443*
X85846D03*
G54D442*
Y140835D03*
Y138975D03*
G54D339*
X85746Y134330D03*
G54D338*
X85247D03*
X84746D03*
X84246D03*
X83746D03*
G54D339*
X83246D03*
G54D443*
X85846Y137636D03*
Y145374D03*
G54D433*
X84846D03*
X83846D03*
Y144036D03*
X84846D03*
G54D443*
X85846D03*
G54D26*
X84636Y151545D03*
G54D31*
X85176Y150425D03*
X85727Y151545D03*
Y148745D03*
X85176Y147625D03*
G54D26*
X84636Y148745D03*
X84086Y147625D03*
G54D28*
X83546Y148745D03*
G54D26*
X84086Y150425D03*
G54D28*
X83546Y151545D03*
G54D22*
X93848Y139805D03*
G54D433*
X91848Y142174D03*
G54D435*
Y140835D03*
G54D433*
X92848Y142174D03*
G54D279*
X95249Y140006D03*
G54D437*
X93848Y142174D03*
G54D436*
Y140835D03*
G54D435*
X92848D03*
G54D437*
X88847Y145374D03*
G54D436*
Y138975D03*
Y140835D03*
G54D437*
Y142174D03*
Y144036D03*
G54D26*
X88987Y148745D03*
Y151545D03*
G54D447*
X90848Y145374D03*
G54D437*
X89848D03*
Y144036D03*
Y142174D03*
G54D436*
Y140835D03*
Y138975D03*
G54D448*
X90848D03*
Y140835D03*
G54D447*
Y142174D03*
G54D29*
X90077Y151545D03*
G54D30*
X90628Y150425D03*
Y147625D03*
G54D29*
X90077Y148745D03*
G54D26*
X89538Y147625D03*
Y150425D03*
G54D447*
X90848Y144036D03*
G54D22*
X83146Y109605D03*
Y108605D03*
G54D319*
X82846Y88175D03*
G54D330*
Y99635D03*
G54D383*
X83076Y112655D03*
G54D366*
Y113156D03*
G54D384*
Y113655D03*
G54D366*
Y114156D03*
Y117156D03*
Y116656D03*
G54D384*
Y116155D03*
G54D366*
Y115656D03*
G54D383*
Y115155D03*
G54D366*
Y114656D03*
G54D437*
X82846Y145374D03*
G54D436*
Y140835D03*
G54D437*
Y142174D03*
G54D26*
X82986Y147625D03*
Y150425D03*
G54D437*
X82846Y144036D03*
X80845Y145374D03*
G54D446*
X79845D03*
G54D433*
X78845D03*
G54D443*
X77845D03*
G54D441*
X76844D03*
G54D44*
X79185Y150925D03*
Y148125D03*
G54D518*
X80015Y138505D03*
G54D508*
X80215Y138810D03*
Y138201D03*
G54D435*
X78845Y140835D03*
G54D449*
X79845D03*
G54D436*
X80845D03*
G36*
X80190Y138476D02*
G01X80535D01*
X80546Y138465D01*
X80190D01*
G37*
G36*
X80535Y138476D02*
G01Y138535D01*
X80546Y138546D01*
Y138465D01*
G37*
G36*
X80535Y138535D02*
G01X80196D01*
X80184Y138546D01*
X80546D01*
G37*
G36*
X80196Y138535D02*
G01Y138470D01*
X80184D01*
Y138546D01*
G37*
G36*
X80190Y138501D02*
G01X80541D01*
Y138490D01*
X80190D01*
G37*
G54D442*
X77845Y140835D03*
G54D441*
X76844Y144036D03*
G54D443*
X77845D03*
G54D433*
X78845Y142174D03*
Y144036D03*
G54D446*
X79845D03*
Y142174D03*
G54D437*
X80845D03*
Y144036D03*
G54D16*
X76444Y142305D03*
G54D443*
X77845Y142174D03*
G54D490*
X20031Y142625D03*
G54D455*
X20301Y137305D03*
G54D338*
X20631Y134235D03*
G54D340*
X20131D03*
G54D338*
X19631D03*
G54D340*
X19131D03*
G54D490*
X20031Y144785D03*
G54D162*
X19211Y151406D03*
G54D437*
X19831Y149374D03*
G54D75*
X19331Y146505D03*
G36*
X20700Y153730D02*
G01Y154530D01*
X20712D01*
Y153730D01*
G37*
G36*
X20706Y154525D02*
G01X19856D01*
Y154536D01*
X20706D01*
G37*
G36*
X19862Y154530D02*
G01Y153730D01*
X19850D01*
Y154530D01*
G37*
G36*
X19856Y153725D02*
G01X18906D01*
Y153736D01*
X19856D01*
G37*
G36*
X18912Y154530D02*
G01Y153736D01*
X18900Y153725D01*
Y154530D01*
G37*
G36*
X18912Y153736D02*
G01X19850D01*
X19862Y153725D01*
X18900D01*
G37*
G36*
X19850Y153736D02*
G01Y154536D01*
X19862Y154525D01*
Y153725D01*
G37*
G36*
X19850Y154536D02*
G01X20712D01*
X20700Y154525D01*
X19862D01*
G37*
G36*
X20712Y154536D02*
G01Y153736D01*
X20700Y153725D01*
Y154525D01*
G37*
G36*
X18900Y153730D02*
G01Y154530D01*
X18912D01*
Y153730D01*
G37*
G54D17*
X20331Y146505D03*
G54D436*
X19831Y148035D03*
G54D165*
X22832Y153356D03*
G54D488*
X23032Y144785D03*
Y142625D03*
G54D470*
X22839Y149564D03*
Y147824D03*
G36*
X24001Y153730D02*
G01Y154530D01*
X24013D01*
Y153730D01*
G37*
G36*
X24007Y154525D02*
G01X23007D01*
Y154536D01*
X24007D01*
G37*
G36*
X21662Y154530D02*
G01Y153730D01*
X21651D01*
Y154530D01*
G37*
G36*
Y153736D02*
G01Y154536D01*
X21662Y154525D01*
Y153725D01*
G37*
G36*
X21651Y154536D02*
G01X22657D01*
Y154525D01*
X21662D01*
G37*
G36*
X24013Y154530D02*
G01Y153736D01*
X24001Y153725D01*
Y154530D01*
G37*
G54D434*
X24232Y147975D03*
Y146635D03*
G54D162*
X24312Y151406D03*
G36*
X24957Y153725D02*
G01X24007D01*
Y153736D01*
X24957D01*
G37*
G36*
X24013D02*
G01X24951D01*
X24963Y153725D01*
X24001D01*
G37*
G54D474*
X27626Y144687D03*
G54D471*
Y142946D03*
G54D445*
X27233Y146635D03*
Y147975D03*
G54D451*
X26232D03*
Y146635D03*
G54D445*
X26132Y144475D03*
X25232Y147975D03*
Y146635D03*
G36*
X24963Y154530D02*
G01Y153730D01*
X24951D01*
Y154530D01*
G37*
G36*
Y154536D02*
G01X25958D01*
Y154525D01*
X24963D01*
G37*
G36*
X24951Y153736D02*
G01Y154536D01*
X24963Y154525D01*
Y153725D01*
G37*
G54D44*
X26813Y150725D03*
G54D437*
X26132Y143136D03*
G54D441*
X25132D03*
G54D451*
Y144475D03*
G54D30*
X30083Y151345D03*
G54D28*
X31174D03*
X29543Y150225D03*
G54D29*
X30633D03*
G54D28*
X31724D03*
G54D452*
X29233Y147975D03*
G54D434*
X30233D03*
X31234D03*
G54D26*
X32264Y151345D03*
G54D445*
X32234Y147975D03*
G54D444*
X35234D03*
G54D434*
X34234D03*
G54D26*
X33354Y151345D03*
X34444D03*
G54D30*
X35535D03*
G54D26*
X32814Y150225D03*
X33904D03*
X34994D03*
G54D445*
X33234Y147975D03*
G54D470*
X30841Y144664D03*
Y142924D03*
G54D447*
X29233Y143236D03*
G54D452*
Y146635D03*
G54D447*
Y144574D03*
G54D434*
X30233Y146635D03*
X31234D03*
G54D437*
X32234Y143436D03*
G54D445*
Y146635D03*
Y144775D03*
G54D437*
X33234Y143436D03*
G54D433*
X34234D03*
G54D443*
X35234D03*
G54D445*
X33234Y144775D03*
Y146635D03*
G54D434*
X34234D03*
Y144775D03*
G54D444*
X35234D03*
Y146635D03*
G54D477*
X41636Y144355D03*
G54D470*
X40629Y146346D03*
G54D444*
X42236Y146635D03*
G54D434*
X39236D03*
Y144775D03*
X38235D03*
Y146635D03*
G54D451*
X37235D03*
Y144775D03*
G54D433*
X39236Y143436D03*
X38235D03*
G54D441*
X37235D03*
G54D443*
X36235D03*
G54D444*
Y146635D03*
Y144775D03*
G54D470*
X40629Y148088D03*
G54D444*
X42236Y147975D03*
G54D434*
X39236D03*
X38235D03*
G54D451*
X37235D03*
G54D27*
X36625Y151345D03*
G54D26*
X37715D03*
G54D28*
X38805D03*
G54D26*
X39896D03*
G54D30*
X40986D03*
G54D26*
X40436Y150225D03*
X39345D03*
G54D31*
X38255D03*
G54D26*
X37165D03*
G54D51*
X41526D03*
G54D444*
X36235Y147975D03*
G54D449*
X87847Y138975D03*
Y140835D03*
G54D446*
Y142174D03*
Y144036D03*
G54D437*
X86847D03*
Y142174D03*
G54D436*
Y140835D03*
Y138975D03*
G54D446*
X87847Y145374D03*
G54D437*
X86847D03*
G54D26*
X86817Y151545D03*
G54D28*
X87357Y150425D03*
G54D31*
X87907Y151545D03*
G54D32*
X88447Y150425D03*
G54D26*
X86817Y148745D03*
G54D28*
X87357Y147625D03*
G54D31*
X87907Y148745D03*
G54D32*
X88447Y147625D03*
G54D339*
X15931Y100778D03*
Y104228D03*
G54D405*
X15882Y73785D03*
G54D412*
Y76225D03*
Y77985D03*
G54D416*
Y80425D03*
G54D412*
Y82385D03*
G54D405*
Y84825D03*
G54D162*
X16250Y151406D03*
G54D464*
X15880Y140206D03*
G54D463*
X15780Y144006D03*
G36*
X15611Y153736D02*
G01X16549D01*
X16561Y153725D01*
X15599D01*
G37*
G36*
X16555D02*
G01X15605D01*
Y153736D01*
X16555D01*
G37*
G54D125*
X16160Y145506D03*
Y146506D03*
Y147506D03*
Y148506D03*
Y149506D03*
G54D457*
Y138305D03*
Y142106D03*
G54D316*
X42736Y97875D03*
G54D315*
X43236D03*
G54D336*
Y109336D03*
G54D343*
X42736D03*
G54D436*
X42836Y111435D03*
G54D437*
Y112776D03*
G54D436*
Y113935D03*
G54D437*
Y115276D03*
G54D460*
X43636Y125975D03*
Y124635D03*
G54D336*
X43737Y109336D03*
G54D345*
X44237D03*
G54D315*
X43737Y97875D03*
G54D334*
X44237D03*
G54D440*
X43837Y113935D03*
G54D441*
Y112776D03*
G54D440*
Y111435D03*
G54D441*
Y115276D03*
G54D16*
X56640Y120705D03*
Y121705D03*
Y122705D03*
Y123705D03*
Y117705D03*
Y118705D03*
Y119705D03*
X56439Y127305D03*
G54D69*
X56640Y124706D03*
G54D156*
X53039Y123405D03*
G54D155*
Y124205D03*
G54D156*
Y125005D03*
G54D157*
Y125806D03*
G54D155*
Y126605D03*
G54D157*
Y127406D03*
G54D155*
X54039Y126605D03*
G54D157*
Y127406D03*
Y125806D03*
G54D156*
Y125005D03*
G54D155*
Y124205D03*
G54D156*
Y123405D03*
G54D17*
X55039Y127405D03*
Y126405D03*
Y123405D03*
Y122405D03*
Y121405D03*
Y124405D03*
Y125405D03*
G54D384*
X51408Y128355D03*
G54D16*
X56439Y129305D03*
Y128305D03*
G54D17*
X55039Y128405D03*
G54D70*
Y129406D03*
G54D392*
X47867Y128355D03*
G54D156*
X53039Y129005D03*
X54039D03*
X55440Y131205D03*
G54D155*
Y130405D03*
G54D156*
X54439Y131205D03*
G54D376*
X49218Y130204D03*
G54D389*
X52759Y131205D03*
G54D376*
Y130706D03*
Y130204D03*
G54D16*
X56439Y130305D03*
Y131305D03*
G54D376*
X49218Y130706D03*
G54D389*
Y131205D03*
G54D155*
X54439Y130405D03*
G54D360*
X14415Y145270D03*
G54D361*
X14015Y146140D03*
G54D399*
X14450Y138803D03*
G54D397*
Y139304D03*
G54D398*
Y139803D03*
G54D397*
Y140304D03*
Y140804D03*
G54D399*
Y141303D03*
G54D397*
Y141804D03*
G54D464*
X14079Y143506D03*
G54D295*
X14630Y148956D03*
Y148456D03*
Y147956D03*
Y147456D03*
G36*
X15611Y154530D02*
G01Y153736D01*
X15599Y153725D01*
Y154530D01*
G37*
G36*
X15605Y154525D02*
G01X14605D01*
Y154536D01*
X15605D01*
G37*
G36*
X15599Y153730D02*
G01Y154530D01*
X15611D01*
Y153730D01*
G37*
G54D467*
X92448Y145556D03*
G54D443*
X95049Y144036D03*
X94048D03*
Y145374D03*
X95049D03*
G54D467*
X92448Y143856D03*
G54D28*
X92808Y147625D03*
G54D31*
X93908D03*
G54D41*
X94989D03*
G54D28*
X94439Y148745D03*
G54D27*
X92258D03*
G54D26*
X93348D03*
G54D28*
X94989Y150425D03*
X94439Y151545D03*
G54D31*
X93908Y150425D03*
G54D26*
X93348Y151545D03*
G54D28*
X92808Y150425D03*
G54D27*
X92258Y151545D03*
G54D26*
X10008Y129956D03*
Y128866D03*
G36*
X7753Y139164D02*
G01X8269D01*
X8363Y139069D01*
X7753D01*
G37*
G36*
X7003Y138372D02*
G01X9060D01*
X9072Y138361D01*
X7003D01*
G37*
G36*
X7053Y138422D02*
G01X9011D01*
X9022Y138411D01*
X7053D01*
G37*
G36*
X7153Y138529D02*
G01X8905D01*
X8928Y138506D01*
X7153D01*
G37*
G36*
X7353Y138740D02*
G01X8693D01*
X8740Y138693D01*
X7353D01*
G37*
G36*
X7093Y138465D02*
G01X8969D01*
X8983Y138450D01*
X7093D01*
G37*
G36*
X7193Y138568D02*
G01X8865D01*
X8888Y138545D01*
X7193D01*
G37*
G36*
X7393Y138781D02*
G01X8653D01*
X8700Y138734D01*
X7393D01*
G37*
G36*
X7793Y139204D02*
G01X8229D01*
X8323Y139109D01*
X7793D01*
G37*
G36*
X7093Y138465D02*
G01X8969D01*
X8983Y138450D01*
X7093D01*
G37*
G36*
X7193Y138568D02*
G01X8865D01*
X8888Y138545D01*
X7193D01*
G37*
G36*
X7393Y138781D02*
G01X8653D01*
X8700Y138734D01*
X7393D01*
G37*
G36*
X7793Y139204D02*
G01X8229D01*
X8323Y139109D01*
X7793D01*
G37*
G54D131*
X10159Y137505D03*
G54D468*
X9347Y135698D03*
G54D43*
X44257Y150725D03*
G54D35*
X48738Y152566D03*
X46087Y152245D03*
G54D16*
X47398Y151055D03*
X48228D03*
G54D18*
X49248D03*
G54D16*
X50078D03*
Y150076D03*
X47398D03*
G54D461*
X43837Y147975D03*
G54D467*
X45837Y148156D03*
G54D471*
X47630Y148188D03*
G54D36*
X51388Y152245D03*
G54D136*
X58310Y147706D03*
G54D48*
X54639Y150506D03*
G54D43*
X57720Y150725D03*
G54D122*
X56970Y147706D03*
G54D338*
X23632Y134235D03*
G54D340*
X23132D03*
G54D338*
X22632D03*
X22131D03*
G54D339*
X21631D03*
G54D283*
X24862Y133506D03*
Y133005D03*
Y132506D03*
G54D26*
X25632Y135005D03*
G54D15*
X25832Y137705D03*
G54D283*
X24862Y130006D03*
Y130505D03*
Y131006D03*
G54D300*
Y131505D03*
G54D304*
Y132005D03*
G54D339*
X24132Y134235D03*
G54D475*
X25382Y140906D03*
G36*
X11235Y22898D02*
G01Y22205D01*
X11211D01*
Y22922D01*
G37*
G36*
X11130Y23003D02*
G01Y22105D01*
X11116D01*
Y23017D01*
G37*
G36*
X11235Y22898D02*
G01Y22205D01*
X11211D01*
Y22922D01*
G37*
G36*
X11130Y23003D02*
G01Y22105D01*
X11116D01*
Y23017D01*
G37*
G36*
X11195Y22938D02*
G01Y22165D01*
X11171D01*
Y22962D01*
G37*
G36*
X11089Y23044D02*
G01Y22065D01*
X11077D01*
Y23056D01*
G37*
G36*
X11039Y23094D02*
G01Y22015D01*
X11027D01*
Y23106D01*
G37*
G36*
X6903Y18386D02*
G01X7903D01*
Y18374D01*
X6903D01*
G37*
G36*
X6897Y18380D02*
G01Y19380D01*
X6909D01*
Y18380D01*
G37*
G54D368*
X9008Y30403D03*
G54D485*
X9829Y43885D03*
G54D369*
X9008Y31403D03*
G54D365*
Y30903D03*
G54D366*
Y31903D03*
G54D364*
Y32403D03*
Y32903D03*
G54D365*
Y33403D03*
G54D484*
X9829Y41725D03*
G54D364*
X95269Y24205D03*
G54D365*
Y24705D03*
Y25205D03*
G54D366*
Y25705D03*
G54D367*
Y26205D03*
G54D364*
Y26705D03*
G54D365*
Y27205D03*
Y27705D03*
G54D366*
Y28205D03*
G54D367*
Y28705D03*
G54D489*
X94849Y115785D03*
G54D21*
X94048Y94305D03*
G54D39*
Y88305D03*
G54D46*
X94649Y106355D03*
Y108855D03*
G54D481*
X94249Y99425D03*
G54D488*
Y101585D03*
X94849Y113625D03*
G54D65*
X98450Y101306D03*
G54D488*
X98050Y113625D03*
G54D336*
X97749Y127681D03*
G54D335*
X97249D03*
G54D283*
X98475Y128406D03*
G54D46*
X99650Y106355D03*
G54D420*
X99680Y90105D03*
G54D512*
X95349Y136676D03*
G36*
X95378Y136856D02*
G01Y137195D01*
X95390Y137206D01*
Y136845D01*
G37*
G36*
X95314Y136856D02*
G01X95378D01*
X95390Y136845D01*
X95314D01*
G37*
G36*
X95378Y137195D02*
G01X95320D01*
X95308Y137206D01*
X95390D01*
G37*
G36*
X95320Y137195D02*
G01Y136850D01*
X95308D01*
Y137206D01*
G37*
G36*
X95333Y136850D02*
G01Y137201D01*
X95344D01*
Y136850D01*
G37*
G54D22*
X93848Y136805D03*
G54D496*
X95044Y136875D03*
G54D497*
X95654D03*
G54D443*
X92648Y137636D03*
G54D512*
X95349Y139136D03*
G36*
X95333Y138610D02*
G01Y138961D01*
X95344D01*
Y138610D01*
G37*
G36*
X95320Y138955D02*
G01Y138610D01*
X95308D01*
Y138966D01*
G37*
G36*
X95378Y138955D02*
G01X95320D01*
X95308Y138966D01*
X95390D01*
G37*
G36*
X95378Y138616D02*
G01Y138955D01*
X95390Y138966D01*
Y138605D01*
G37*
G36*
X95314Y138616D02*
G01X95378D01*
X95390Y138605D01*
X95314D01*
G37*
G54D442*
X92648Y138975D03*
G54D507*
X95654Y138936D03*
G54D506*
X95044D03*
G54D349*
X82746Y127880D03*
G54D347*
X82246D03*
G54D346*
X81746D03*
G54D515*
X32104Y135005D03*
G54D508*
X32304Y135310D03*
G36*
X32279Y135001D02*
G01X32629D01*
Y134990D01*
X32279D01*
G37*
G36*
X32285Y135035D02*
G01Y134970D01*
X32273D01*
Y135046D01*
G37*
G36*
X32623Y135035D02*
G01X32285D01*
X32273Y135046D01*
X32635D01*
G37*
G36*
X32279Y134976D02*
G01X32623D01*
X32635Y134965D01*
X32279D01*
G37*
G36*
X32623Y134976D02*
G01Y135035D01*
X32635Y135046D01*
Y134965D01*
G37*
G54D464*
X32584Y137306D03*
G54D509*
X32304Y134700D03*
G54D463*
X34284Y137306D03*
G54D517*
X34564Y135005D03*
G54D437*
X35435Y136176D03*
G36*
X34039Y134976D02*
G01X34383D01*
X34395Y134965D01*
X34039D01*
G37*
G36*
X34383Y134976D02*
G01Y135035D01*
X34395Y135046D01*
Y134965D01*
G37*
G36*
X34383Y135035D02*
G01X34045D01*
X34033Y135046D01*
X34395D01*
G37*
G36*
X34045Y135035D02*
G01Y134970D01*
X34033D01*
Y135046D01*
G37*
G36*
X34039Y135001D02*
G01X34389D01*
Y134990D01*
X34039D01*
G37*
G54D437*
X35435Y134836D03*
G54D508*
X34364Y135310D03*
G54D509*
Y134700D03*
G54D340*
X81746Y134330D03*
G54D338*
X82246D03*
G54D342*
X82746D03*
G54D508*
X82276Y136601D03*
G54D518*
X82476Y138505D03*
G54D516*
Y136906D03*
G36*
X81951Y136901D02*
G01X82301D01*
Y136890D01*
X81951D01*
G37*
G36*
X81956Y136935D02*
G01Y136870D01*
X81945D01*
Y136946D01*
G37*
G36*
X82295Y136935D02*
G01X81956D01*
X81945Y136946D01*
X82307D01*
G37*
G36*
X81951Y138476D02*
G01X82295D01*
X82307Y138465D01*
X81951D01*
G37*
G36*
X82295Y138476D02*
G01Y138535D01*
X82307Y138546D01*
Y138465D01*
G37*
G36*
X82295Y138535D02*
G01X81956D01*
X81945Y138546D01*
X82307D01*
G37*
G36*
X81956Y138535D02*
G01Y138470D01*
X81945D01*
Y138546D01*
G37*
G36*
X81951Y138501D02*
G01X82301D01*
Y138490D01*
X81951D01*
G37*
G36*
Y136876D02*
G01X82295D01*
X82307Y136865D01*
X81951D01*
G37*
G36*
X82295Y136876D02*
G01Y136935D01*
X82307Y136946D01*
Y136865D01*
G37*
G54D508*
X82276Y137210D03*
Y138201D03*
Y138810D03*
G54D335*
X29333Y110376D03*
G54D336*
X29833D03*
G54D511*
X29533Y127436D03*
G54D336*
X29833Y121836D03*
G36*
X29517Y126911D02*
G01Y127261D01*
X29529D01*
Y126911D01*
G37*
G36*
X29504Y127255D02*
G01Y126911D01*
X29492D01*
Y127266D01*
G37*
G36*
X29562Y127255D02*
G01X29504D01*
X29492Y127266D01*
X29574D01*
G37*
G36*
X29498Y125156D02*
G01X29562D01*
X29574Y125145D01*
X29498D01*
G37*
G36*
X29562Y125156D02*
G01Y125495D01*
X29574Y125506D01*
Y125145D01*
G37*
G36*
X29562Y125495D02*
G01X29504D01*
X29492Y125506D01*
X29574D01*
G37*
G36*
X29504Y125495D02*
G01Y125151D01*
X29492D01*
Y125506D01*
G37*
G36*
X29517Y125151D02*
G01Y125501D01*
X29529D01*
Y125151D01*
G37*
G36*
X29498Y126916D02*
G01X29562D01*
X29574Y126905D01*
X29498D01*
G37*
G36*
X29562Y126916D02*
G01Y127255D01*
X29574Y127266D01*
Y126905D01*
G37*
G54D335*
X29333Y121836D03*
G54D491*
X29228Y125175D03*
Y127235D03*
G54D511*
X29533Y124975D03*
G54D489*
X98050Y115785D03*
G54D492*
X97944Y118275D03*
G54D491*
X98554D03*
G36*
X98234Y120010D02*
G01Y120361D01*
X98245D01*
Y120010D01*
G37*
G36*
X98220Y120355D02*
G01Y120010D01*
X98209D01*
Y120366D01*
G37*
G36*
X98279Y120355D02*
G01X98220D01*
X98209Y120366D01*
X98290D01*
G37*
G36*
X98234Y118250D02*
G01Y118600D01*
X98245D01*
Y118250D01*
G37*
G36*
X98220Y118595D02*
G01Y118250D01*
X98209D01*
Y118606D01*
G37*
G36*
X98279Y118595D02*
G01X98220D01*
X98209Y118606D01*
X98290D01*
G37*
G36*
X98279Y118255D02*
G01Y118595D01*
X98290Y118606D01*
Y118244D01*
G37*
G36*
X98215Y118255D02*
G01X98279D01*
X98290Y118244D01*
X98215D01*
G37*
G36*
Y120015D02*
G01X98279D01*
X98290Y120004D01*
X98215D01*
G37*
G36*
X98279Y120015D02*
G01Y120355D01*
X98290Y120366D01*
Y120004D01*
G37*
G54D491*
X98554Y120335D03*
G54D492*
X97944D03*
G54D510*
X98250Y118075D03*
Y120536D03*
G54D511*
X29533Y131136D03*
G36*
X29562Y130615D02*
G01Y130954D01*
X29574Y130965D01*
Y130604D01*
G37*
G36*
X29498Y130615D02*
G01X29562D01*
X29574Y130604D01*
X29498D01*
G37*
G36*
X29517Y128850D02*
G01Y129200D01*
X29529D01*
Y128850D01*
G37*
G36*
X29504Y129194D02*
G01Y128850D01*
X29492D01*
Y129205D01*
G37*
G36*
X29562Y129194D02*
G01X29504D01*
X29492Y129205D01*
X29574D01*
G37*
G36*
X29562Y128855D02*
G01Y129194D01*
X29574Y129205D01*
Y128844D01*
G37*
G36*
X29498Y128855D02*
G01X29562D01*
X29574Y128844D01*
X29498D01*
G37*
G36*
X29562Y130954D02*
G01X29504D01*
X29492Y130965D01*
X29574D01*
G37*
G36*
X29504Y130954D02*
G01Y130610D01*
X29492D01*
Y130965D01*
G37*
G36*
X29517Y130610D02*
G01Y130960D01*
X29529D01*
Y130610D01*
G37*
G54D492*
X29838Y128875D03*
Y130935D03*
G54D511*
X29533Y128674D03*
G54D434*
X31334Y137835D03*
Y140335D03*
Y139175D03*
G54D450*
X30333Y140335D03*
G54D343*
X28333Y110376D03*
G54D336*
X27833D03*
G54D510*
X27933Y128674D03*
G36*
X27917Y130610D02*
G01Y130960D01*
X27929D01*
Y130610D01*
G37*
G36*
X27904Y130954D02*
G01Y130610D01*
X27892D01*
Y130965D01*
G37*
G36*
X27962Y130954D02*
G01X27904D01*
X27892Y130965D01*
X27974D01*
G37*
G36*
X27962Y130615D02*
G01Y130954D01*
X27974Y130965D01*
Y130604D01*
G37*
G36*
X27898Y128855D02*
G01X27962D01*
X27974Y128844D01*
X27898D01*
G37*
G36*
X27962Y128855D02*
G01Y129194D01*
X27974Y129205D01*
Y128844D01*
G37*
G36*
X27962Y129194D02*
G01X27904D01*
X27892Y129205D01*
X27974D01*
G37*
G36*
X27904Y129194D02*
G01Y128850D01*
X27892D01*
Y129205D01*
G37*
G36*
X27917Y128850D02*
G01Y129200D01*
X27929D01*
Y128850D01*
G37*
G36*
X27898Y130615D02*
G01X27962D01*
X27974Y130604D01*
X27898D01*
G37*
G54D343*
X28333Y121836D03*
G54D336*
X27833D03*
G54D492*
X28238Y128875D03*
Y130935D03*
G54D510*
X27933Y131136D03*
G54D335*
X27333Y110376D03*
G54D336*
X26832D03*
G54D335*
X27333Y121836D03*
G54D336*
X26832D03*
G54D510*
X27333Y134936D03*
G36*
X27362Y134416D02*
G01Y134755D01*
X27374Y134766D01*
Y134405D01*
G37*
G36*
X27298Y134416D02*
G01X27362D01*
X27374Y134405D01*
X27298D01*
G37*
G36*
X27317Y132650D02*
G01Y133001D01*
X27329D01*
Y132650D01*
G37*
G36*
X27304Y132995D02*
G01Y132650D01*
X27292D01*
Y133006D01*
G37*
G36*
X27362Y132995D02*
G01X27304D01*
X27292Y133006D01*
X27374D01*
G37*
G36*
X27362Y132656D02*
G01Y132995D01*
X27374Y133006D01*
Y132645D01*
G37*
G36*
X27298Y132656D02*
G01X27362D01*
X27374Y132645D01*
X27298D01*
G37*
G36*
X27362Y134755D02*
G01X27304D01*
X27292Y134766D01*
X27374D01*
G37*
G36*
X27304Y134755D02*
G01Y134410D01*
X27292D01*
Y134766D01*
G37*
G36*
X27317Y134410D02*
G01Y134761D01*
X27329D01*
Y134410D01*
G37*
G54D491*
X27028Y132675D03*
Y134735D03*
G54D510*
X27333Y132474D03*
G54D513*
X100150Y139136D03*
G54D502*
X100455Y138936D03*
G54D501*
Y136875D03*
G54D500*
X99845D03*
G36*
X100135Y136850D02*
G01Y137201D01*
X100146D01*
Y136850D01*
G37*
G36*
X100121Y137195D02*
G01Y136850D01*
X100110D01*
Y137206D01*
G37*
G36*
X100180Y137195D02*
G01X100121D01*
X100110Y137206D01*
X100191D01*
G37*
G36*
X100180Y136856D02*
G01Y137195D01*
X100191Y137206D01*
Y136845D01*
G37*
G36*
X100116Y136856D02*
G01X100180D01*
X100191Y136845D01*
X100116D01*
G37*
G36*
X100135Y138610D02*
G01Y138961D01*
X100146D01*
Y138610D01*
G37*
G36*
X100121Y138955D02*
G01Y138610D01*
X100110D01*
Y138966D01*
G37*
G36*
X100180Y138955D02*
G01X100121D01*
X100110Y138966D01*
X100191D01*
G37*
G36*
X100180Y138616D02*
G01Y138955D01*
X100191Y138966D01*
Y138605D01*
G37*
G36*
X100116Y138616D02*
G01X100180D01*
X100191Y138605D01*
X100116D01*
G37*
G54D503*
X99845Y138936D03*
G54D513*
X100150Y136676D03*
G54D473*
X99643Y140446D03*
Y142186D03*
M02*